M48
METRIC,LZ,000.000
;FILE_FORMAT=3:3
;TYPE=PLATED
;Layer: PTH_Through
;EasyEDA v6.5.47, 2024-09-23 12:58:21
;38ad9990bc604fb2ba1212fbd044b429,455023a0ac88494abd61f565c8365122,10
;Gerber Generator version 0.2
;Holesize 1 = 0.306 mm
T01C0.306
;Holesize 2 = 0.310 mm
T02C0.310
;Holesize 3 = 0.701 mm
T03C0.701
;Holesize 4 = 0.800 mm
T04C0.800
;Holesize 5 = 0.900 mm
T05C0.900
;Holesize 6 = 0.915 mm
T06C0.915
;Holesize 7 = 1.101 mm
T07C1.101
;Holesize 8 = 1.200 mm
T08C1.200
;Holesize 9 = 1.300 mm
T09C1.300
;Holesize 10 = 3.000 mm
T10C3.000
%
G05
G90
T01
X037211Y021082
T02
X046863Y036830
T03
X069723Y025146
X064643Y025146
X064516Y038481
X069596Y038481
X069312Y032340
X068042Y032340
X066772Y032340
X032131Y027051
X030861Y027051
X029591Y027051
T04
X041402Y045085
X041402Y047625
X041402Y050165
X041402Y052705
X038862Y051435
X038862Y053975
X026162Y052705
X026162Y050165
X026162Y047625
X026162Y045085
X026162Y042545
X026162Y040005
X026162Y037465
X026162Y034925
X041402Y034925
X041402Y037465
X041402Y040005
X041402Y042545
X026162Y055245
X041402Y060325
X041402Y062865
X041402Y057785
X026162Y057785
X026162Y060325
X026162Y062865
X041402Y055245
T05
X053340Y036703
X053340Y024003
X057912Y024130
X057912Y036830
T06
X075492Y050392
X075492Y052892
X075492Y055392
X075492Y047892
X075492Y057892
X075492Y060392
X075492Y062892
X075492Y065392
X050492Y047892
X050492Y050392
X050492Y052892
X050492Y055392
X050492Y057892
X050492Y060392
X050492Y062892
X050492Y065392
T07
X078867Y022479
X076327Y022479
T08
X013843Y056642
X013843Y051562
X013843Y046482
X013843Y041402
X081534Y032296
X081534Y037300
T09
X024127Y015494G85X024133Y015494
X029127Y015494G85X029133Y015494
X034127Y015494G85X034133Y015494
X054988Y015494G85X054994Y015494
X059988Y015494G85X059994Y015494
X064988Y015494G85X064994Y015494
T10
X013462Y064135
X081280Y064262
X081153Y015113
X013335Y015113
M30
