G04 Layer: BottomLayer*
G04 EasyEDA v6.5.47, 2024-09-23 12:58:21*
G04 38ad9990bc604fb2ba1212fbd044b429,455023a0ac88494abd61f565c8365122,10*
G04 Gerber Generator version 0.2*
G04 Scale: 100 percent, Rotated: No, Reflected: No *
G04 Dimensions in millimeters *
G04 leading zeros omitted , absolute positions ,4 integer and 5 decimal *
%FSLAX45Y45*%
%MOMM*%

%ADD10C,1.0000*%
%ADD11C,0.2540*%
%ADD12R,2.5000X2.2000*%
%ADD13O,2.4999949999999997X2.1999956000000003*%
%ADD14R,2.4130X2.4130*%
%ADD15C,2.4130*%
%ADD16C,1.8796*%
%ADD17C,1.2000*%
%ADD18R,2.1000X1.8000*%
%ADD19O,2.0999958X1.7999964*%
%ADD20R,0.9000X1.6000*%
%ADD21O,0.8999982X1.5999968*%
%ADD22C,2.0000*%
%ADD23R,1.7000X1.5748*%
%ADD24C,1.7000*%
%ADD25C,4.0000*%
%ADD26C,0.6100*%
%ADD27C,0.6200*%
%ADD28C,0.0101*%

%LPD*%
G36*
X1700174Y1025906D02*
G01*
X1656080Y1026921D01*
X1612442Y1029868D01*
X1569008Y1034745D01*
X1525828Y1041603D01*
X1483004Y1050391D01*
X1440637Y1061059D01*
X1398778Y1073658D01*
X1357528Y1088085D01*
X1316939Y1104392D01*
X1277162Y1122476D01*
X1238199Y1142339D01*
X1200200Y1163929D01*
X1163167Y1187196D01*
X1127252Y1212088D01*
X1092504Y1238554D01*
X1058926Y1266596D01*
X1026668Y1296111D01*
X995781Y1326997D01*
X966317Y1359306D01*
X938276Y1392834D01*
X911809Y1427632D01*
X886917Y1463548D01*
X863701Y1500581D01*
X842111Y1538630D01*
X822299Y1577543D01*
X804214Y1617370D01*
X787958Y1657959D01*
X773531Y1699209D01*
X760984Y1741068D01*
X750265Y1783486D01*
X741527Y1826310D01*
X734720Y1869490D01*
X729843Y1912924D01*
X726897Y1956511D01*
X725932Y2000402D01*
X725932Y5999581D01*
X726897Y6043930D01*
X729843Y6087516D01*
X734771Y6130950D01*
X741629Y6174130D01*
X750366Y6216954D01*
X761085Y6259372D01*
X773684Y6301232D01*
X788111Y6342481D01*
X804418Y6383020D01*
X822502Y6422847D01*
X842314Y6461760D01*
X863904Y6499809D01*
X887171Y6536791D01*
X912063Y6572707D01*
X938580Y6607505D01*
X966571Y6641033D01*
X996086Y6673291D01*
X1027023Y6704228D01*
X1059281Y6733692D01*
X1092860Y6761683D01*
X1127607Y6788150D01*
X1163574Y6813042D01*
X1200607Y6836308D01*
X1238605Y6857847D01*
X1277569Y6877710D01*
X1317345Y6895795D01*
X1357934Y6912051D01*
X1399184Y6926478D01*
X1441094Y6939025D01*
X1483461Y6949694D01*
X1526286Y6958431D01*
X1569466Y6965289D01*
X1612900Y6970166D01*
X1656537Y6973112D01*
X1700377Y6974078D01*
X7699603Y6974078D01*
X7743901Y6973062D01*
X7787538Y6970115D01*
X7830972Y6965238D01*
X7874152Y6958380D01*
X7916976Y6949592D01*
X7959344Y6938924D01*
X8001203Y6926325D01*
X8042452Y6911898D01*
X8083042Y6895592D01*
X8122818Y6877507D01*
X8161781Y6857644D01*
X8199780Y6836054D01*
X8236813Y6812788D01*
X8272729Y6787896D01*
X8307476Y6761429D01*
X8341055Y6733387D01*
X8373313Y6703872D01*
X8404199Y6672986D01*
X8433663Y6640677D01*
X8461705Y6607149D01*
X8488172Y6572351D01*
X8513064Y6536435D01*
X8536279Y6499402D01*
X8557869Y6461353D01*
X8577681Y6422440D01*
X8595766Y6382613D01*
X8612022Y6342024D01*
X8626449Y6300774D01*
X8638997Y6258915D01*
X8649716Y6216497D01*
X8658453Y6173673D01*
X8665260Y6130493D01*
X8670137Y6087059D01*
X8673084Y6043472D01*
X8674100Y5999581D01*
X8674100Y2000402D01*
X8673084Y1956054D01*
X8670137Y1912467D01*
X8665210Y1869033D01*
X8658352Y1825853D01*
X8649614Y1783029D01*
X8638895Y1740611D01*
X8626297Y1698752D01*
X8611870Y1657502D01*
X8595563Y1616964D01*
X8577478Y1577136D01*
X8557666Y1538224D01*
X8536076Y1500174D01*
X8512810Y1463192D01*
X8487918Y1427276D01*
X8461400Y1392478D01*
X8433409Y1358950D01*
X8403894Y1326692D01*
X8372957Y1295755D01*
X8340699Y1266291D01*
X8307120Y1238300D01*
X8272373Y1211834D01*
X8236407Y1186942D01*
X8199374Y1163675D01*
X8161375Y1142136D01*
X8122412Y1122273D01*
X8082635Y1104188D01*
X8042046Y1087932D01*
X8000796Y1073505D01*
X7958886Y1060958D01*
X7916519Y1050290D01*
X7873695Y1041552D01*
X7830515Y1034694D01*
X7787081Y1029817D01*
X7743444Y1026871D01*
X7699603Y1025906D01*
G37*

%LPC*%
G36*
X8115300Y1285392D02*
G01*
X8136128Y1286357D01*
X8156803Y1289253D01*
X8177123Y1294028D01*
X8196884Y1300632D01*
X8215985Y1309065D01*
X8234222Y1319225D01*
X8251444Y1331010D01*
X8267496Y1344371D01*
X8282228Y1359103D01*
X8295589Y1375156D01*
X8307374Y1392377D01*
X8317534Y1410614D01*
X8325967Y1429715D01*
X8332571Y1449476D01*
X8337346Y1469796D01*
X8340242Y1490472D01*
X8341207Y1511300D01*
X8340242Y1532128D01*
X8337346Y1552803D01*
X8332571Y1573123D01*
X8325967Y1592884D01*
X8317534Y1611985D01*
X8307374Y1630222D01*
X8295589Y1647443D01*
X8282228Y1663496D01*
X8267496Y1678228D01*
X8251444Y1691589D01*
X8234222Y1703374D01*
X8215985Y1713534D01*
X8196884Y1721967D01*
X8177123Y1728571D01*
X8156803Y1733346D01*
X8136128Y1736242D01*
X8115300Y1737207D01*
X8094472Y1736242D01*
X8073796Y1733346D01*
X8053476Y1728571D01*
X8033715Y1721967D01*
X8014614Y1713534D01*
X7996377Y1703374D01*
X7979156Y1691589D01*
X7963103Y1678228D01*
X7948371Y1663496D01*
X7935010Y1647443D01*
X7923225Y1630222D01*
X7913065Y1611985D01*
X7904632Y1592884D01*
X7898028Y1573123D01*
X7893253Y1552803D01*
X7890357Y1532128D01*
X7889392Y1511300D01*
X7890357Y1490472D01*
X7893253Y1469796D01*
X7898028Y1449476D01*
X7904632Y1429715D01*
X7913065Y1410614D01*
X7923225Y1392377D01*
X7935010Y1375156D01*
X7948371Y1359103D01*
X7963103Y1344371D01*
X7979156Y1331010D01*
X7996377Y1319225D01*
X8014614Y1309065D01*
X8033715Y1300632D01*
X8053476Y1294028D01*
X8073796Y1289253D01*
X8094472Y1286357D01*
G37*
G36*
X1333500Y1285392D02*
G01*
X1354328Y1286357D01*
X1375003Y1289253D01*
X1395323Y1294028D01*
X1415084Y1300632D01*
X1434185Y1309065D01*
X1452422Y1319225D01*
X1469644Y1331010D01*
X1485696Y1344371D01*
X1500428Y1359103D01*
X1513789Y1375156D01*
X1525574Y1392377D01*
X1535734Y1410614D01*
X1544167Y1429715D01*
X1550771Y1449476D01*
X1555546Y1469796D01*
X1558442Y1490472D01*
X1559407Y1511300D01*
X1558442Y1532128D01*
X1555546Y1552803D01*
X1550771Y1573123D01*
X1544167Y1592884D01*
X1535734Y1611985D01*
X1525574Y1630222D01*
X1513789Y1647443D01*
X1500428Y1663496D01*
X1485696Y1678228D01*
X1469644Y1691589D01*
X1452422Y1703374D01*
X1434185Y1713534D01*
X1415084Y1721967D01*
X1395323Y1728571D01*
X1375003Y1733346D01*
X1354328Y1736242D01*
X1333500Y1737207D01*
X1312672Y1736242D01*
X1291996Y1733346D01*
X1271676Y1728571D01*
X1251915Y1721967D01*
X1232814Y1713534D01*
X1214577Y1703374D01*
X1197356Y1691589D01*
X1181303Y1678228D01*
X1166571Y1663496D01*
X1153210Y1647443D01*
X1141425Y1630222D01*
X1131265Y1611985D01*
X1122832Y1592884D01*
X1116228Y1573123D01*
X1111453Y1552803D01*
X1108557Y1532128D01*
X1107592Y1511300D01*
X1108557Y1490472D01*
X1111453Y1469796D01*
X1116228Y1449476D01*
X1122832Y1429715D01*
X1131265Y1410614D01*
X1141425Y1392377D01*
X1153210Y1375156D01*
X1166571Y1359103D01*
X1181303Y1344371D01*
X1197356Y1331010D01*
X1214577Y1319225D01*
X1232814Y1309065D01*
X1251915Y1300632D01*
X1271676Y1294028D01*
X1291996Y1289253D01*
X1312672Y1286357D01*
G37*
G36*
X2913024Y1402842D02*
G01*
X2929382Y1403756D01*
X2945587Y1406550D01*
X2961386Y1411071D01*
X2976575Y1417370D01*
X2990951Y1425295D01*
X3004362Y1434846D01*
X3016605Y1445768D01*
X3027578Y1458010D01*
X3037078Y1471422D01*
X3045053Y1485798D01*
X3051302Y1500987D01*
X3055874Y1516786D01*
X3058617Y1532991D01*
X3059531Y1549400D01*
X3058617Y1565808D01*
X3055874Y1582013D01*
X3051302Y1597812D01*
X3045053Y1613001D01*
X3037078Y1627378D01*
X3027578Y1640789D01*
X3016605Y1653032D01*
X3004362Y1663954D01*
X2990951Y1673504D01*
X2976575Y1681429D01*
X2961386Y1687728D01*
X2945587Y1692249D01*
X2929382Y1695043D01*
X2913024Y1695957D01*
X2896616Y1695043D01*
X2880410Y1692249D01*
X2864612Y1687728D01*
X2849422Y1681429D01*
X2835046Y1673504D01*
X2821635Y1663954D01*
X2809392Y1653032D01*
X2798419Y1640789D01*
X2788920Y1627378D01*
X2780944Y1613001D01*
X2774696Y1597812D01*
X2770124Y1582013D01*
X2767380Y1565808D01*
X2766466Y1549400D01*
X2767380Y1532991D01*
X2770124Y1516786D01*
X2774696Y1500987D01*
X2780944Y1485798D01*
X2788920Y1471422D01*
X2798419Y1458010D01*
X2809392Y1445768D01*
X2821635Y1434846D01*
X2835046Y1425295D01*
X2849422Y1417370D01*
X2864612Y1411071D01*
X2880410Y1406550D01*
X2896616Y1403756D01*
G37*
G36*
X5379008Y1402842D02*
G01*
X5619191Y1402842D01*
X5625490Y1403553D01*
X5630976Y1405483D01*
X5635853Y1408531D01*
X5639968Y1412646D01*
X5643016Y1417523D01*
X5644946Y1423009D01*
X5645658Y1429308D01*
X5645658Y1669491D01*
X5644946Y1675790D01*
X5643016Y1681276D01*
X5639968Y1686153D01*
X5635853Y1690268D01*
X5630976Y1693316D01*
X5625490Y1695246D01*
X5619191Y1695957D01*
X5379008Y1695957D01*
X5372709Y1695246D01*
X5367223Y1693316D01*
X5362346Y1690268D01*
X5358231Y1686153D01*
X5355183Y1681276D01*
X5353253Y1675790D01*
X5352542Y1669491D01*
X5352542Y1429308D01*
X5353253Y1423009D01*
X5355183Y1417523D01*
X5358231Y1412646D01*
X5362346Y1408531D01*
X5367223Y1405483D01*
X5372709Y1403553D01*
G37*
G36*
X2292908Y1402842D02*
G01*
X2533091Y1402842D01*
X2539390Y1403553D01*
X2544876Y1405483D01*
X2549753Y1408531D01*
X2553868Y1412646D01*
X2556916Y1417523D01*
X2558846Y1423009D01*
X2559558Y1429308D01*
X2559558Y1669491D01*
X2558846Y1675790D01*
X2556916Y1681276D01*
X2553868Y1686153D01*
X2549753Y1690268D01*
X2544876Y1693316D01*
X2538526Y1695551D01*
X2535021Y1697634D01*
X2532634Y1700936D01*
X2531719Y1704898D01*
X2532481Y1708912D01*
X2534716Y1712315D01*
X3014624Y2192324D01*
X3020263Y2199132D01*
X3026308Y2208784D01*
X3027426Y2210968D01*
X3030829Y2219198D01*
X3031591Y2221534D01*
X3033725Y2230120D01*
X3034131Y2232558D01*
X3034944Y2241397D01*
X3034995Y2600401D01*
X3035909Y2604566D01*
X3038449Y2608021D01*
X3042158Y2610104D01*
X3046425Y2610459D01*
X3050489Y2609037D01*
X3053943Y2606954D01*
X3064205Y2602687D01*
X3075025Y2600096D01*
X3086100Y2599232D01*
X3097174Y2600096D01*
X3107994Y2602687D01*
X3118256Y2606954D01*
X3127756Y2612745D01*
X3136239Y2619959D01*
X3141878Y2626614D01*
X3145332Y2629255D01*
X3149600Y2630170D01*
X3153867Y2629255D01*
X3157321Y2626614D01*
X3162960Y2619959D01*
X3171444Y2612745D01*
X3180943Y2606954D01*
X3191205Y2602687D01*
X3202025Y2600096D01*
X3213100Y2599232D01*
X3224174Y2600096D01*
X3234994Y2602687D01*
X3245256Y2606954D01*
X3254756Y2612745D01*
X3263239Y2619959D01*
X3270453Y2628442D01*
X3276244Y2637942D01*
X3280511Y2648204D01*
X3283102Y2659024D01*
X3284016Y2670505D01*
X3284016Y2676753D01*
X3284728Y2680462D01*
X3285591Y2682748D01*
X3288131Y2693771D01*
X3288995Y2705455D01*
X3288944Y2791307D01*
X3288131Y2800146D01*
X3287725Y2802585D01*
X3285591Y2811221D01*
X3284829Y2813558D01*
X3281426Y2821787D01*
X3280308Y2823972D01*
X3275685Y2831592D01*
X3268624Y2840431D01*
X2903423Y3205632D01*
X2894584Y3212693D01*
X2886964Y3217316D01*
X2884779Y3218434D01*
X2876550Y3221837D01*
X2874213Y3222599D01*
X2865577Y3224733D01*
X2863138Y3225139D01*
X2854299Y3225952D01*
X2540152Y3226003D01*
X2537206Y3226460D01*
X2534513Y3227730D01*
X2328316Y3365042D01*
X2325928Y3367278D01*
X2324354Y3370224D01*
X2323795Y3373475D01*
X2323795Y4533544D01*
X2323084Y4544212D01*
X2320696Y4555337D01*
X2316683Y4565954D01*
X2311146Y4575810D01*
X2303932Y4585106D01*
X1466646Y5511342D01*
X1464614Y5514644D01*
X1464005Y5518454D01*
X1464868Y5522264D01*
X1467104Y5525414D01*
X1470355Y5527548D01*
X1474165Y5528310D01*
X1508709Y5528310D01*
X1515059Y5529021D01*
X1520494Y5530900D01*
X1525422Y5533999D01*
X1529486Y5538063D01*
X1532585Y5542991D01*
X1534515Y5548426D01*
X1535226Y5554776D01*
X1535226Y5773623D01*
X1534515Y5779973D01*
X1532585Y5785408D01*
X1529486Y5790336D01*
X1525422Y5794400D01*
X1520494Y5797499D01*
X1515059Y5799378D01*
X1508709Y5800090D01*
X1259890Y5800090D01*
X1253540Y5799378D01*
X1248105Y5797499D01*
X1243177Y5794400D01*
X1239113Y5790336D01*
X1236014Y5785408D01*
X1234084Y5779973D01*
X1233373Y5773623D01*
X1233373Y5554776D01*
X1234084Y5548426D01*
X1236014Y5542991D01*
X1239113Y5538063D01*
X1243177Y5533999D01*
X1248105Y5530900D01*
X1253540Y5529021D01*
X1259890Y5528310D01*
X1298244Y5528310D01*
X1302105Y5527497D01*
X1305407Y5525312D01*
X1307642Y5522010D01*
X1308404Y5518150D01*
X1308404Y5489448D01*
X1309116Y5478932D01*
X1311808Y5466740D01*
X1315923Y5456174D01*
X1321612Y5446420D01*
X1329283Y5436870D01*
X1451254Y5301945D01*
X1453438Y5298135D01*
X1453794Y5293817D01*
X1452321Y5289702D01*
X1449273Y5286603D01*
X1445158Y5285079D01*
X1440789Y5285384D01*
X1430629Y5288432D01*
X1415084Y5291175D01*
X1398981Y5292090D01*
X1369618Y5292090D01*
X1353515Y5291175D01*
X1337970Y5288432D01*
X1322832Y5283911D01*
X1308303Y5277612D01*
X1294638Y5269738D01*
X1281938Y5260289D01*
X1270457Y5249468D01*
X1260297Y5237327D01*
X1251610Y5224170D01*
X1244498Y5210048D01*
X1239113Y5195163D01*
X1235456Y5179822D01*
X1233627Y5164124D01*
X1233627Y5148275D01*
X1235456Y5132578D01*
X1239113Y5117236D01*
X1244498Y5102352D01*
X1251610Y5088229D01*
X1260297Y5075072D01*
X1270457Y5062931D01*
X1281938Y5052110D01*
X1294638Y5042662D01*
X1308303Y5034788D01*
X1322832Y5028488D01*
X1337970Y5023967D01*
X1353515Y5021224D01*
X1369618Y5020310D01*
X1398981Y5020310D01*
X1415084Y5021224D01*
X1430629Y5023967D01*
X1445768Y5028488D01*
X1460296Y5034788D01*
X1473962Y5042662D01*
X1486662Y5052110D01*
X1498142Y5062931D01*
X1508302Y5075072D01*
X1516989Y5088229D01*
X1524101Y5102352D01*
X1529486Y5117236D01*
X1533144Y5132578D01*
X1534972Y5148275D01*
X1534972Y5164124D01*
X1533144Y5179822D01*
X1532128Y5184038D01*
X1532077Y5188508D01*
X1533906Y5192522D01*
X1537258Y5195417D01*
X1541576Y5196535D01*
X1545894Y5195773D01*
X1549552Y5193233D01*
X2169363Y4507585D01*
X2171293Y4504436D01*
X2172004Y4500778D01*
X2172004Y3327603D01*
X2172258Y3320846D01*
X2172817Y3316122D01*
X2174087Y3309670D01*
X2175357Y3305098D01*
X2177592Y3298850D01*
X2179472Y3294532D01*
X2182622Y3288690D01*
X2185162Y3284677D01*
X2189124Y3279394D01*
X2192223Y3275838D01*
X2196896Y3271164D01*
X2200554Y3268116D01*
X2205990Y3264103D01*
X2471724Y3087116D01*
X2481122Y3081731D01*
X2491740Y3077616D01*
X2502763Y3075076D01*
X2514447Y3074212D01*
X2815996Y3074212D01*
X2819908Y3073450D01*
X2823210Y3071215D01*
X3069691Y2824734D01*
X3072028Y2821127D01*
X3072638Y2816910D01*
X3071469Y2812796D01*
X3068726Y2809544D01*
X3053943Y2803245D01*
X3044444Y2797454D01*
X3041802Y2795219D01*
X3037992Y2793136D01*
X3033674Y2792882D01*
X3029661Y2794457D01*
X3026613Y2797505D01*
X3024327Y2801213D01*
X3020212Y2805328D01*
X3015335Y2808376D01*
X3009849Y2810306D01*
X3003550Y2811018D01*
X2914650Y2811018D01*
X2908350Y2810306D01*
X2902864Y2808376D01*
X2897987Y2805328D01*
X2893872Y2801213D01*
X2890824Y2796336D01*
X2888894Y2790850D01*
X2888183Y2784551D01*
X2888183Y2733446D01*
X2887472Y2729738D01*
X2886608Y2727452D01*
X2884068Y2716428D01*
X2883204Y2704744D01*
X2883204Y2279700D01*
X2882442Y2275840D01*
X2880207Y2272538D01*
X2359609Y1751888D01*
X2351938Y1743049D01*
X2345893Y1733448D01*
X2341372Y1723034D01*
X2338425Y1712061D01*
X2337663Y1705000D01*
X2336596Y1701444D01*
X2334310Y1698548D01*
X2331161Y1696618D01*
X2327554Y1695957D01*
X2292908Y1695957D01*
X2286609Y1695246D01*
X2281123Y1693316D01*
X2276246Y1690268D01*
X2272131Y1686153D01*
X2269083Y1681276D01*
X2267153Y1675790D01*
X2266442Y1669491D01*
X2266442Y1429308D01*
X2267153Y1423009D01*
X2269083Y1417523D01*
X2272131Y1412646D01*
X2276246Y1408531D01*
X2281123Y1405483D01*
X2286609Y1403553D01*
G37*
G36*
X5999124Y1402842D02*
G01*
X6015482Y1403756D01*
X6031687Y1406550D01*
X6047486Y1411071D01*
X6062675Y1417370D01*
X6077051Y1425295D01*
X6090462Y1434846D01*
X6102705Y1445768D01*
X6113678Y1458010D01*
X6123178Y1471422D01*
X6131153Y1485798D01*
X6137402Y1500987D01*
X6141974Y1516786D01*
X6144717Y1532991D01*
X6145631Y1549400D01*
X6144717Y1565808D01*
X6141974Y1582013D01*
X6137402Y1597812D01*
X6131153Y1613001D01*
X6123178Y1627378D01*
X6113678Y1640789D01*
X6102705Y1653032D01*
X6090462Y1663954D01*
X6077051Y1673504D01*
X6062675Y1681429D01*
X6047486Y1687728D01*
X6031687Y1692249D01*
X6015482Y1695043D01*
X5999124Y1695957D01*
X5982716Y1695043D01*
X5966510Y1692249D01*
X5950712Y1687728D01*
X5935522Y1681429D01*
X5922060Y1674012D01*
X5917946Y1672742D01*
X5913628Y1673352D01*
X5909970Y1675688D01*
X5729935Y1855724D01*
X5723737Y1860854D01*
X5717032Y1864410D01*
X5709818Y1866595D01*
X5701792Y1867407D01*
X4940808Y1867407D01*
X4932781Y1866595D01*
X4925568Y1864410D01*
X4918964Y1860905D01*
X4911902Y1854962D01*
X4698085Y1629257D01*
X4694732Y1626920D01*
X4690719Y1626107D01*
X3883050Y1626107D01*
X3879037Y1626920D01*
X3875684Y1629308D01*
X3533851Y1993544D01*
X3531819Y1996744D01*
X3531108Y2000504D01*
X3531108Y3288792D01*
X3530295Y3296818D01*
X3528110Y3304032D01*
X3524554Y3310737D01*
X3519424Y3316935D01*
X3075635Y3760724D01*
X3069437Y3765854D01*
X3062732Y3769410D01*
X3055518Y3771595D01*
X3047492Y3772408D01*
X2747213Y3772408D01*
X2743047Y3773322D01*
X2739593Y3775811D01*
X2737510Y3779520D01*
X2733903Y3791153D01*
X2727655Y3805021D01*
X2719781Y3818026D01*
X2710434Y3829964D01*
X2699664Y3840734D01*
X2687726Y3850081D01*
X2674721Y3857955D01*
X2660802Y3864254D01*
X2657602Y3866438D01*
X2655519Y3869690D01*
X2654808Y3873500D01*
X2655519Y3877310D01*
X2657602Y3880561D01*
X2660802Y3882745D01*
X2674721Y3889044D01*
X2687726Y3896918D01*
X2699664Y3906265D01*
X2710434Y3917035D01*
X2719781Y3928973D01*
X2727655Y3941978D01*
X2733903Y3955846D01*
X2738424Y3970375D01*
X2741168Y3985310D01*
X2742082Y4000500D01*
X2741168Y4015689D01*
X2738424Y4030624D01*
X2733903Y4045153D01*
X2727655Y4059021D01*
X2719781Y4072026D01*
X2710434Y4083964D01*
X2699664Y4094734D01*
X2687726Y4104081D01*
X2674721Y4111955D01*
X2660802Y4118254D01*
X2657602Y4120438D01*
X2655519Y4123690D01*
X2654808Y4127500D01*
X2655519Y4131310D01*
X2657602Y4134561D01*
X2660802Y4136745D01*
X2674721Y4143044D01*
X2687726Y4150918D01*
X2699664Y4160265D01*
X2710434Y4171035D01*
X2719781Y4182973D01*
X2727655Y4195978D01*
X2733903Y4209846D01*
X2738424Y4224375D01*
X2741168Y4239310D01*
X2742082Y4254500D01*
X2741168Y4269689D01*
X2738424Y4284624D01*
X2733903Y4299153D01*
X2727655Y4313021D01*
X2719781Y4326026D01*
X2710434Y4337964D01*
X2699664Y4348734D01*
X2687726Y4358081D01*
X2674721Y4365955D01*
X2660802Y4372254D01*
X2657602Y4374438D01*
X2655519Y4377690D01*
X2654808Y4381500D01*
X2655519Y4385310D01*
X2657602Y4388561D01*
X2660802Y4390745D01*
X2674721Y4397044D01*
X2687726Y4404918D01*
X2699664Y4414266D01*
X2710434Y4425035D01*
X2719781Y4436973D01*
X2727655Y4449978D01*
X2733903Y4463846D01*
X2738424Y4478375D01*
X2741168Y4493310D01*
X2742082Y4508500D01*
X2741168Y4523689D01*
X2738424Y4538624D01*
X2733903Y4553153D01*
X2727655Y4567021D01*
X2719781Y4580026D01*
X2710434Y4591964D01*
X2699664Y4602734D01*
X2687726Y4612081D01*
X2674721Y4619955D01*
X2660802Y4626254D01*
X2657602Y4628438D01*
X2655519Y4631690D01*
X2654808Y4635500D01*
X2655519Y4639310D01*
X2657602Y4642561D01*
X2660802Y4644745D01*
X2674721Y4651044D01*
X2687726Y4658918D01*
X2699664Y4668266D01*
X2710434Y4679035D01*
X2719781Y4690973D01*
X2727655Y4703978D01*
X2733903Y4717846D01*
X2738424Y4732375D01*
X2741168Y4747310D01*
X2742082Y4762500D01*
X2741168Y4777689D01*
X2738424Y4792624D01*
X2733903Y4807153D01*
X2727655Y4821021D01*
X2719781Y4834026D01*
X2710434Y4845964D01*
X2699664Y4856734D01*
X2687726Y4866081D01*
X2674721Y4873955D01*
X2660802Y4880254D01*
X2657602Y4882438D01*
X2655519Y4885690D01*
X2654808Y4889500D01*
X2655519Y4893310D01*
X2657602Y4896561D01*
X2660802Y4898745D01*
X2674721Y4905044D01*
X2687726Y4912918D01*
X2699664Y4922266D01*
X2710434Y4933035D01*
X2719781Y4944973D01*
X2727655Y4957978D01*
X2733903Y4971846D01*
X2738424Y4986375D01*
X2741168Y5001310D01*
X2742082Y5016500D01*
X2741168Y5031689D01*
X2738424Y5046624D01*
X2733903Y5061153D01*
X2727655Y5075021D01*
X2719781Y5088026D01*
X2710434Y5099964D01*
X2699664Y5110734D01*
X2687726Y5120081D01*
X2674721Y5127955D01*
X2660802Y5134254D01*
X2657602Y5136438D01*
X2655519Y5139690D01*
X2654808Y5143500D01*
X2655519Y5147310D01*
X2657602Y5150561D01*
X2660802Y5152745D01*
X2674721Y5159044D01*
X2687726Y5166918D01*
X2699664Y5176266D01*
X2710434Y5187035D01*
X2719781Y5198973D01*
X2727655Y5211978D01*
X2733903Y5225846D01*
X2738424Y5240375D01*
X2741168Y5255310D01*
X2742082Y5270500D01*
X2741168Y5285689D01*
X2738424Y5300624D01*
X2733903Y5315153D01*
X2727655Y5329021D01*
X2719781Y5342026D01*
X2710434Y5353964D01*
X2699664Y5364734D01*
X2687726Y5374081D01*
X2674721Y5381955D01*
X2660802Y5388254D01*
X2646324Y5392724D01*
X2631389Y5395468D01*
X2616200Y5396382D01*
X2601010Y5395468D01*
X2586075Y5392724D01*
X2571597Y5388254D01*
X2557678Y5381955D01*
X2544673Y5374081D01*
X2532735Y5364734D01*
X2521966Y5353964D01*
X2512618Y5342026D01*
X2504744Y5329021D01*
X2498496Y5315153D01*
X2493975Y5300624D01*
X2491232Y5285689D01*
X2490317Y5270500D01*
X2491232Y5255310D01*
X2493975Y5240375D01*
X2498496Y5225846D01*
X2504744Y5211978D01*
X2512618Y5198973D01*
X2521966Y5187035D01*
X2532735Y5176266D01*
X2544673Y5166918D01*
X2557678Y5159044D01*
X2571597Y5152745D01*
X2574798Y5150561D01*
X2576880Y5147310D01*
X2577592Y5143500D01*
X2576880Y5139690D01*
X2574798Y5136438D01*
X2571597Y5134254D01*
X2557678Y5127955D01*
X2544673Y5120081D01*
X2532735Y5110734D01*
X2521966Y5099964D01*
X2512618Y5088026D01*
X2504744Y5075021D01*
X2498496Y5061153D01*
X2493975Y5046624D01*
X2491232Y5031689D01*
X2490317Y5016500D01*
X2491232Y5001310D01*
X2493975Y4986375D01*
X2498496Y4971846D01*
X2504744Y4957978D01*
X2512618Y4944973D01*
X2521966Y4933035D01*
X2532735Y4922266D01*
X2544673Y4912918D01*
X2557678Y4905044D01*
X2571597Y4898745D01*
X2574798Y4896561D01*
X2576880Y4893310D01*
X2577592Y4889500D01*
X2576880Y4885690D01*
X2574798Y4882438D01*
X2571597Y4880254D01*
X2557678Y4873955D01*
X2544673Y4866081D01*
X2532735Y4856734D01*
X2521966Y4845964D01*
X2512618Y4834026D01*
X2504744Y4821021D01*
X2498496Y4807153D01*
X2493975Y4792624D01*
X2491232Y4777689D01*
X2490317Y4762500D01*
X2491232Y4747310D01*
X2493975Y4732375D01*
X2498496Y4717846D01*
X2504744Y4703978D01*
X2512618Y4690973D01*
X2521966Y4679035D01*
X2532735Y4668266D01*
X2544673Y4658918D01*
X2557678Y4651044D01*
X2571597Y4644745D01*
X2574798Y4642561D01*
X2576880Y4639310D01*
X2577592Y4635500D01*
X2576880Y4631690D01*
X2574798Y4628438D01*
X2571597Y4626254D01*
X2557678Y4619955D01*
X2544673Y4612081D01*
X2532735Y4602734D01*
X2521966Y4591964D01*
X2512618Y4580026D01*
X2504744Y4567021D01*
X2498496Y4553153D01*
X2493975Y4538624D01*
X2491232Y4523689D01*
X2490317Y4508500D01*
X2491232Y4493310D01*
X2493975Y4478375D01*
X2498496Y4463846D01*
X2504744Y4449978D01*
X2512618Y4436973D01*
X2521966Y4425035D01*
X2532735Y4414266D01*
X2544673Y4404918D01*
X2557678Y4397044D01*
X2571597Y4390745D01*
X2574798Y4388561D01*
X2576880Y4385310D01*
X2577592Y4381500D01*
X2576880Y4377690D01*
X2574798Y4374438D01*
X2571597Y4372254D01*
X2557678Y4365955D01*
X2544673Y4358081D01*
X2532735Y4348734D01*
X2521966Y4337964D01*
X2512618Y4326026D01*
X2504744Y4313021D01*
X2498496Y4299153D01*
X2493975Y4284624D01*
X2491232Y4269689D01*
X2490317Y4254500D01*
X2491232Y4239310D01*
X2493975Y4224375D01*
X2498496Y4209846D01*
X2504744Y4195978D01*
X2512618Y4182973D01*
X2521966Y4171035D01*
X2532735Y4160265D01*
X2544673Y4150918D01*
X2557678Y4143044D01*
X2571597Y4136745D01*
X2574798Y4134561D01*
X2576880Y4131310D01*
X2577592Y4127500D01*
X2576880Y4123690D01*
X2574798Y4120438D01*
X2571597Y4118254D01*
X2557678Y4111955D01*
X2544673Y4104081D01*
X2532735Y4094734D01*
X2521966Y4083964D01*
X2512618Y4072026D01*
X2504744Y4059021D01*
X2498496Y4045153D01*
X2493975Y4030624D01*
X2491232Y4015689D01*
X2490317Y4000500D01*
X2491232Y3985310D01*
X2493975Y3970375D01*
X2498496Y3955846D01*
X2504744Y3941978D01*
X2512618Y3928973D01*
X2521966Y3917035D01*
X2532735Y3906265D01*
X2544673Y3896918D01*
X2557678Y3889044D01*
X2571597Y3882745D01*
X2574798Y3880561D01*
X2576880Y3877310D01*
X2577592Y3873500D01*
X2576880Y3869690D01*
X2574798Y3866438D01*
X2571597Y3864254D01*
X2557678Y3857955D01*
X2544673Y3850081D01*
X2532735Y3840734D01*
X2521966Y3829964D01*
X2512618Y3818026D01*
X2504744Y3805021D01*
X2498496Y3791153D01*
X2493975Y3776624D01*
X2491232Y3761689D01*
X2490317Y3746500D01*
X2491232Y3731310D01*
X2493975Y3716375D01*
X2498496Y3701846D01*
X2504744Y3687978D01*
X2512618Y3674973D01*
X2521966Y3663035D01*
X2532735Y3652265D01*
X2544673Y3642918D01*
X2557678Y3635044D01*
X2571597Y3628745D01*
X2574798Y3626561D01*
X2576880Y3623310D01*
X2577592Y3619500D01*
X2576880Y3615690D01*
X2574798Y3612438D01*
X2571597Y3610254D01*
X2557678Y3603955D01*
X2544673Y3596081D01*
X2532735Y3586734D01*
X2521966Y3575964D01*
X2512618Y3564026D01*
X2504744Y3551021D01*
X2498496Y3537153D01*
X2493975Y3522624D01*
X2491232Y3507689D01*
X2490317Y3492500D01*
X2491232Y3477310D01*
X2493975Y3462375D01*
X2498496Y3447846D01*
X2504744Y3433978D01*
X2512618Y3420973D01*
X2521966Y3409035D01*
X2532735Y3398265D01*
X2544673Y3388918D01*
X2557678Y3381044D01*
X2571546Y3374796D01*
X2586075Y3370275D01*
X2601010Y3367532D01*
X2616200Y3366617D01*
X2631389Y3367532D01*
X2646324Y3370275D01*
X2660853Y3374796D01*
X2674721Y3381044D01*
X2687726Y3388918D01*
X2699664Y3398265D01*
X2710434Y3409035D01*
X2719781Y3420973D01*
X2727655Y3433978D01*
X2733903Y3447846D01*
X2738424Y3462375D01*
X2741168Y3477310D01*
X2742082Y3492500D01*
X2741168Y3507689D01*
X2738424Y3522624D01*
X2733903Y3537153D01*
X2727655Y3551021D01*
X2719781Y3564026D01*
X2710434Y3575964D01*
X2699664Y3586734D01*
X2687726Y3596081D01*
X2674721Y3603955D01*
X2660802Y3610254D01*
X2657602Y3612438D01*
X2655519Y3615690D01*
X2654808Y3619500D01*
X2655519Y3623310D01*
X2657602Y3626561D01*
X2660802Y3628745D01*
X2674721Y3635044D01*
X2687726Y3642918D01*
X2699664Y3652265D01*
X2710434Y3663035D01*
X2719781Y3674973D01*
X2730449Y3692347D01*
X2733700Y3694480D01*
X2737459Y3695192D01*
X3027781Y3695192D01*
X3031693Y3694429D01*
X3034995Y3692194D01*
X3450894Y3276295D01*
X3453129Y3272993D01*
X3453892Y3269081D01*
X3453892Y1981606D01*
X3454450Y1974951D01*
X3456432Y1967585D01*
X3459784Y1960829D01*
X3464712Y1954428D01*
X3833774Y1561134D01*
X3840530Y1555445D01*
X3847185Y1551889D01*
X3854450Y1549704D01*
X3862476Y1548892D01*
X4711192Y1548892D01*
X4719218Y1549704D01*
X4726432Y1551889D01*
X4733036Y1555394D01*
X4740097Y1561338D01*
X4953914Y1787042D01*
X4957267Y1789379D01*
X4961280Y1790192D01*
X5682081Y1790192D01*
X5685993Y1789430D01*
X5689295Y1787194D01*
X5861253Y1615287D01*
X5863437Y1611985D01*
X5864199Y1608074D01*
X5863437Y1604213D01*
X5860796Y1597812D01*
X5856224Y1582013D01*
X5853480Y1565808D01*
X5852566Y1549400D01*
X5853480Y1532991D01*
X5856224Y1516786D01*
X5860796Y1500987D01*
X5867044Y1485798D01*
X5875020Y1471422D01*
X5884519Y1458010D01*
X5895492Y1445768D01*
X5907735Y1434846D01*
X5921146Y1425295D01*
X5935522Y1417370D01*
X5950712Y1411071D01*
X5966510Y1406550D01*
X5982716Y1403756D01*
G37*
G36*
X3479698Y1419098D02*
G01*
X3490976Y1425295D01*
X3504387Y1434846D01*
X3516629Y1445768D01*
X3527551Y1458010D01*
X3537102Y1471422D01*
X3543300Y1482699D01*
X3479698Y1482699D01*
G37*
G36*
X3346348Y1419098D02*
G01*
X3346348Y1482699D01*
X3282696Y1482699D01*
X3288893Y1471422D01*
X3298444Y1458010D01*
X3309365Y1445768D01*
X3321608Y1434846D01*
X3335020Y1425295D01*
G37*
G36*
X6432448Y1419098D02*
G01*
X6432448Y1482699D01*
X6368796Y1482699D01*
X6374993Y1471422D01*
X6384544Y1458010D01*
X6395466Y1445768D01*
X6407708Y1434846D01*
X6421120Y1425295D01*
G37*
G36*
X6565798Y1419098D02*
G01*
X6577075Y1425295D01*
X6590487Y1434846D01*
X6602730Y1445768D01*
X6613652Y1458010D01*
X6623202Y1471422D01*
X6629400Y1482699D01*
X6565798Y1482699D01*
G37*
G36*
X3282696Y1616049D02*
G01*
X3346348Y1616049D01*
X3346348Y1679702D01*
X3335020Y1673504D01*
X3321608Y1663954D01*
X3309365Y1653032D01*
X3298444Y1640789D01*
X3288893Y1627378D01*
G37*
G36*
X6368796Y1616049D02*
G01*
X6432448Y1616049D01*
X6432448Y1679702D01*
X6421120Y1673504D01*
X6407708Y1663954D01*
X6395466Y1653032D01*
X6384544Y1640789D01*
X6374993Y1627378D01*
G37*
G36*
X6565798Y1616049D02*
G01*
X6629400Y1616049D01*
X6623202Y1627378D01*
X6613652Y1640789D01*
X6602730Y1653032D01*
X6590487Y1663954D01*
X6577075Y1673504D01*
X6565798Y1679702D01*
G37*
G36*
X3479698Y1616049D02*
G01*
X3543300Y1616049D01*
X3537102Y1627378D01*
X3527551Y1640789D01*
X3516629Y1653032D01*
X3504387Y1663954D01*
X3490976Y1673504D01*
X3479698Y1679702D01*
G37*
G36*
X3721100Y2051812D02*
G01*
X3730904Y2052675D01*
X3740404Y2055215D01*
X3749294Y2059381D01*
X3757320Y2065020D01*
X3764279Y2071979D01*
X3769918Y2080006D01*
X3774084Y2088896D01*
X3776624Y2098395D01*
X3777487Y2108200D01*
X3776624Y2118004D01*
X3774084Y2127504D01*
X3769918Y2136394D01*
X3764279Y2144420D01*
X3762705Y2146046D01*
X3760470Y2149348D01*
X3759708Y2153208D01*
X3759708Y4069181D01*
X3760470Y4073093D01*
X3762705Y4076395D01*
X4014520Y4328261D01*
X4018026Y4330547D01*
X4022191Y4331208D01*
X4026204Y4330192D01*
X4029506Y4327601D01*
X4031487Y4323892D01*
X4031792Y4319727D01*
X4030421Y4315815D01*
X4028744Y4313021D01*
X4022496Y4299153D01*
X4017975Y4284624D01*
X4015232Y4269689D01*
X4014317Y4254500D01*
X4015232Y4239310D01*
X4017975Y4224375D01*
X4022496Y4209846D01*
X4028744Y4195978D01*
X4036618Y4182973D01*
X4045965Y4171035D01*
X4056735Y4160265D01*
X4068673Y4150918D01*
X4081678Y4143044D01*
X4095597Y4136745D01*
X4098798Y4134561D01*
X4100880Y4131310D01*
X4101592Y4127500D01*
X4100880Y4123690D01*
X4098798Y4120438D01*
X4095597Y4118254D01*
X4081678Y4111955D01*
X4068673Y4104081D01*
X4056735Y4094734D01*
X4045965Y4083964D01*
X4036618Y4072026D01*
X4028744Y4059021D01*
X4022496Y4045153D01*
X4017975Y4030624D01*
X4015232Y4015689D01*
X4014317Y4000500D01*
X4015232Y3985310D01*
X4017975Y3970375D01*
X4022496Y3955846D01*
X4028744Y3941978D01*
X4036618Y3928973D01*
X4045965Y3917035D01*
X4056735Y3906265D01*
X4068673Y3896918D01*
X4081678Y3889044D01*
X4095597Y3882745D01*
X4098798Y3880561D01*
X4100880Y3877310D01*
X4101592Y3873500D01*
X4100880Y3869690D01*
X4098798Y3866438D01*
X4095597Y3864254D01*
X4081678Y3857955D01*
X4068673Y3850081D01*
X4056735Y3840734D01*
X4045965Y3829964D01*
X4036618Y3818026D01*
X4028744Y3805021D01*
X4022496Y3791153D01*
X4017975Y3776624D01*
X4015232Y3761689D01*
X4014317Y3746500D01*
X4015232Y3731310D01*
X4017975Y3716375D01*
X4022496Y3701846D01*
X4028744Y3687978D01*
X4036618Y3674973D01*
X4045965Y3663035D01*
X4056735Y3652265D01*
X4068673Y3642918D01*
X4081678Y3635044D01*
X4095597Y3628745D01*
X4098798Y3626561D01*
X4100880Y3623310D01*
X4101592Y3619500D01*
X4100880Y3615690D01*
X4098798Y3612438D01*
X4095597Y3610254D01*
X4081678Y3603955D01*
X4068673Y3596081D01*
X4056735Y3586734D01*
X4045965Y3575964D01*
X4036618Y3564026D01*
X4028744Y3551021D01*
X4022496Y3537153D01*
X4017975Y3522624D01*
X4015232Y3507689D01*
X4014317Y3492500D01*
X4015232Y3477310D01*
X4017975Y3462375D01*
X4022496Y3447846D01*
X4028744Y3433978D01*
X4036618Y3420973D01*
X4045965Y3409035D01*
X4056735Y3398265D01*
X4068673Y3388918D01*
X4081678Y3381044D01*
X4095546Y3374796D01*
X4110075Y3370275D01*
X4125010Y3367532D01*
X4140200Y3366617D01*
X4155389Y3367532D01*
X4170324Y3370275D01*
X4184853Y3374796D01*
X4198721Y3381044D01*
X4211726Y3388918D01*
X4223664Y3398265D01*
X4234434Y3409035D01*
X4243781Y3420973D01*
X4251655Y3433978D01*
X4257903Y3447846D01*
X4262424Y3462375D01*
X4265168Y3477310D01*
X4266082Y3492500D01*
X4265168Y3507689D01*
X4262424Y3522624D01*
X4257903Y3537153D01*
X4255058Y3543503D01*
X4254144Y3547465D01*
X4254906Y3551428D01*
X4257141Y3554831D01*
X4776724Y4074464D01*
X4781854Y4080662D01*
X4785410Y4087368D01*
X4787595Y4094581D01*
X4788408Y4102608D01*
X4788408Y4719675D01*
X4789170Y4723587D01*
X4791405Y4726889D01*
X4902200Y4837582D01*
X4905502Y4839766D01*
X4909362Y4840528D01*
X4990338Y4840528D01*
X4990338Y4905908D01*
X4987086Y4908143D01*
X4984902Y4911445D01*
X4984140Y4915306D01*
X4984953Y4919167D01*
X4987137Y4922469D01*
X4990592Y4925923D01*
X4993640Y4928006D01*
X4997246Y4928870D01*
X5000955Y4928412D01*
X5005374Y4926939D01*
X5019700Y4924247D01*
X5034534Y4923282D01*
X5063896Y4923282D01*
X5078730Y4924247D01*
X5093004Y4926939D01*
X5106873Y4931460D01*
X5120030Y4937658D01*
X5132324Y4945430D01*
X5143550Y4954727D01*
X5153507Y4965344D01*
X5162042Y4977079D01*
X5169052Y4989880D01*
X5174437Y5003393D01*
X5178044Y5017465D01*
X5179872Y5031943D01*
X5179872Y5046472D01*
X5178044Y5060899D01*
X5174437Y5075021D01*
X5169052Y5088534D01*
X5162042Y5101285D01*
X5153507Y5113070D01*
X5143550Y5123688D01*
X5132324Y5132933D01*
X5120030Y5140756D01*
X5106873Y5146954D01*
X5093004Y5151424D01*
X5078476Y5154218D01*
X5074818Y5155742D01*
X5071973Y5158536D01*
X5070449Y5162194D01*
X5070449Y5166207D01*
X5071973Y5169865D01*
X5074818Y5172659D01*
X5078476Y5174183D01*
X5093004Y5176977D01*
X5106873Y5181447D01*
X5120030Y5187645D01*
X5132324Y5195468D01*
X5143550Y5204714D01*
X5153507Y5215331D01*
X5162042Y5227116D01*
X5169052Y5239867D01*
X5174437Y5253380D01*
X5178044Y5267502D01*
X5179872Y5281930D01*
X5179872Y5296458D01*
X5178044Y5310936D01*
X5174437Y5325008D01*
X5169052Y5338521D01*
X5162042Y5351272D01*
X5153507Y5363057D01*
X5143550Y5373674D01*
X5132324Y5382971D01*
X5120030Y5390743D01*
X5106873Y5396941D01*
X5093004Y5401462D01*
X5078476Y5404205D01*
X5074818Y5405729D01*
X5071973Y5408523D01*
X5070449Y5412181D01*
X5070449Y5416194D01*
X5071973Y5419852D01*
X5074818Y5422696D01*
X5078476Y5424170D01*
X5093004Y5426964D01*
X5106873Y5431434D01*
X5120030Y5437632D01*
X5132324Y5445455D01*
X5143550Y5454700D01*
X5153507Y5465318D01*
X5162042Y5477103D01*
X5169052Y5489854D01*
X5174437Y5503367D01*
X5178044Y5517489D01*
X5179872Y5531916D01*
X5179872Y5546496D01*
X5178044Y5560923D01*
X5174437Y5574995D01*
X5169052Y5588558D01*
X5162042Y5601309D01*
X5153507Y5613044D01*
X5143550Y5623661D01*
X5132324Y5632958D01*
X5120030Y5640730D01*
X5106873Y5646928D01*
X5093004Y5651449D01*
X5078476Y5654243D01*
X5074818Y5655716D01*
X5071973Y5658510D01*
X5070449Y5662218D01*
X5070449Y5666181D01*
X5071973Y5669889D01*
X5074818Y5672683D01*
X5078476Y5674156D01*
X5093004Y5676950D01*
X5106873Y5681472D01*
X5120030Y5687669D01*
X5132324Y5695442D01*
X5143550Y5704738D01*
X5153507Y5715304D01*
X5162042Y5727090D01*
X5169052Y5739841D01*
X5174437Y5753404D01*
X5178044Y5767476D01*
X5179872Y5781903D01*
X5179872Y5796483D01*
X5178044Y5810910D01*
X5174437Y5825032D01*
X5169052Y5838545D01*
X5162042Y5851296D01*
X5153507Y5863082D01*
X5143550Y5873699D01*
X5132324Y5882944D01*
X5120030Y5890768D01*
X5106873Y5896965D01*
X5093004Y5901436D01*
X5078476Y5904230D01*
X5074818Y5905703D01*
X5071973Y5908548D01*
X5070449Y5912205D01*
X5070449Y5916168D01*
X5071973Y5919876D01*
X5074818Y5922670D01*
X5078476Y5924194D01*
X5093004Y5926937D01*
X5106873Y5931458D01*
X5120030Y5937656D01*
X5132324Y5945428D01*
X5143550Y5954725D01*
X5153507Y5965342D01*
X5162042Y5977077D01*
X5169052Y5989878D01*
X5174437Y6003391D01*
X5178044Y6017463D01*
X5179872Y6031941D01*
X5179872Y6046470D01*
X5178044Y6060897D01*
X5174437Y6075019D01*
X5169052Y6088532D01*
X5162042Y6101283D01*
X5153507Y6113068D01*
X5143550Y6123686D01*
X5132324Y6132931D01*
X5120030Y6140754D01*
X5106873Y6146952D01*
X5093004Y6151422D01*
X5078476Y6154216D01*
X5074818Y6155740D01*
X5071973Y6158534D01*
X5070449Y6162192D01*
X5070449Y6166205D01*
X5071973Y6169863D01*
X5074818Y6172657D01*
X5078476Y6174181D01*
X5093004Y6176975D01*
X5106873Y6181445D01*
X5120030Y6187643D01*
X5132324Y6195466D01*
X5143550Y6204712D01*
X5153507Y6215329D01*
X5162042Y6227114D01*
X5169052Y6239865D01*
X5174437Y6253378D01*
X5178044Y6267500D01*
X5179872Y6281928D01*
X5179872Y6296456D01*
X5178044Y6310934D01*
X5174437Y6325006D01*
X5169052Y6338519D01*
X5162042Y6351270D01*
X5153507Y6363055D01*
X5143550Y6373672D01*
X5132324Y6382969D01*
X5120030Y6390741D01*
X5106873Y6396939D01*
X5093004Y6401460D01*
X5078730Y6404152D01*
X5063896Y6405118D01*
X5034534Y6405118D01*
X5019700Y6404152D01*
X5005374Y6401460D01*
X4991557Y6396939D01*
X4978349Y6390741D01*
X4966106Y6382969D01*
X4954879Y6373672D01*
X4944922Y6363055D01*
X4936337Y6351270D01*
X4929327Y6338519D01*
X4923993Y6325006D01*
X4920386Y6310934D01*
X4918557Y6296456D01*
X4918557Y6281928D01*
X4920386Y6267500D01*
X4923993Y6253378D01*
X4929327Y6239865D01*
X4936337Y6227114D01*
X4944922Y6215329D01*
X4954879Y6204712D01*
X4966106Y6195466D01*
X4978349Y6187643D01*
X4991557Y6181445D01*
X5005374Y6176975D01*
X5019903Y6174181D01*
X5023612Y6172657D01*
X5026456Y6169863D01*
X5027980Y6166205D01*
X5027980Y6162192D01*
X5026456Y6158534D01*
X5023612Y6155740D01*
X5019903Y6154216D01*
X5005374Y6151422D01*
X4991557Y6146952D01*
X4978349Y6140754D01*
X4966106Y6132931D01*
X4954879Y6123686D01*
X4944922Y6113068D01*
X4936337Y6101283D01*
X4929327Y6088532D01*
X4923993Y6075019D01*
X4920386Y6060897D01*
X4918557Y6046470D01*
X4918557Y6031941D01*
X4920386Y6017463D01*
X4923993Y6003391D01*
X4929327Y5989878D01*
X4936337Y5977077D01*
X4944922Y5965342D01*
X4954879Y5954725D01*
X4966106Y5945428D01*
X4978349Y5937656D01*
X4991557Y5931458D01*
X5005374Y5926937D01*
X5019903Y5924194D01*
X5023612Y5922670D01*
X5026456Y5919876D01*
X5027980Y5916168D01*
X5027980Y5912205D01*
X5026456Y5908548D01*
X5023612Y5905703D01*
X5019903Y5904230D01*
X5005374Y5901436D01*
X4991557Y5896965D01*
X4978349Y5890768D01*
X4966106Y5882944D01*
X4954879Y5873699D01*
X4944922Y5863082D01*
X4936337Y5851296D01*
X4929327Y5838545D01*
X4923993Y5825032D01*
X4920386Y5810910D01*
X4918557Y5796483D01*
X4918557Y5781903D01*
X4920386Y5767476D01*
X4923993Y5753404D01*
X4929327Y5739841D01*
X4931359Y5736234D01*
X4932578Y5732068D01*
X4931968Y5727750D01*
X4929632Y5724144D01*
X4354576Y5149037D01*
X4349445Y5142839D01*
X4345889Y5136134D01*
X4343704Y5128920D01*
X4342892Y5120894D01*
X4342892Y4516018D01*
X4342130Y4512106D01*
X4339894Y4508804D01*
X4265879Y4434738D01*
X4262374Y4432452D01*
X4258208Y4431792D01*
X4254195Y4432808D01*
X4250893Y4435398D01*
X4248912Y4439107D01*
X4248607Y4443272D01*
X4249978Y4447184D01*
X4251655Y4449978D01*
X4257903Y4463846D01*
X4262424Y4478375D01*
X4265168Y4493310D01*
X4266082Y4508500D01*
X4265168Y4523689D01*
X4262424Y4538624D01*
X4257903Y4553153D01*
X4251655Y4567021D01*
X4243781Y4580026D01*
X4234434Y4591964D01*
X4223664Y4602734D01*
X4211726Y4612081D01*
X4198721Y4619955D01*
X4184802Y4626254D01*
X4181601Y4628438D01*
X4179519Y4631690D01*
X4178808Y4635500D01*
X4179519Y4639310D01*
X4181601Y4642561D01*
X4184802Y4644745D01*
X4198721Y4651044D01*
X4211726Y4658918D01*
X4223664Y4668266D01*
X4234434Y4679035D01*
X4243781Y4690973D01*
X4251655Y4703978D01*
X4257903Y4717846D01*
X4262424Y4732375D01*
X4265168Y4747310D01*
X4266082Y4762500D01*
X4265168Y4777689D01*
X4262424Y4792624D01*
X4257903Y4807153D01*
X4251655Y4821021D01*
X4243781Y4834026D01*
X4234434Y4845964D01*
X4223664Y4856734D01*
X4211726Y4866081D01*
X4198721Y4873955D01*
X4184802Y4880254D01*
X4181601Y4882438D01*
X4179519Y4885690D01*
X4178808Y4889500D01*
X4179519Y4893310D01*
X4181601Y4896561D01*
X4184802Y4898745D01*
X4198721Y4905044D01*
X4211726Y4912918D01*
X4223664Y4922266D01*
X4234434Y4933035D01*
X4243781Y4944973D01*
X4251655Y4957978D01*
X4257903Y4971846D01*
X4262424Y4986375D01*
X4265168Y5001310D01*
X4266082Y5016500D01*
X4265168Y5031689D01*
X4262424Y5046624D01*
X4257903Y5061153D01*
X4251655Y5075021D01*
X4243781Y5088026D01*
X4234434Y5099964D01*
X4223664Y5110734D01*
X4211726Y5120081D01*
X4198721Y5127955D01*
X4184802Y5134254D01*
X4181601Y5136438D01*
X4179519Y5139690D01*
X4178808Y5143500D01*
X4179519Y5147310D01*
X4181601Y5150561D01*
X4184802Y5152745D01*
X4198721Y5159044D01*
X4211726Y5166918D01*
X4223664Y5176266D01*
X4234434Y5187035D01*
X4243781Y5198973D01*
X4251655Y5211978D01*
X4257903Y5225846D01*
X4262424Y5240375D01*
X4265168Y5255310D01*
X4266082Y5270500D01*
X4265168Y5285689D01*
X4262424Y5300624D01*
X4257903Y5315153D01*
X4251655Y5329021D01*
X4243781Y5342026D01*
X4234434Y5353964D01*
X4223664Y5364734D01*
X4211726Y5374081D01*
X4198721Y5381955D01*
X4184802Y5388254D01*
X4181601Y5390438D01*
X4179519Y5393690D01*
X4178808Y5397500D01*
X4179519Y5401310D01*
X4181601Y5404561D01*
X4184802Y5406745D01*
X4198721Y5413044D01*
X4211726Y5420918D01*
X4223664Y5430266D01*
X4234434Y5441035D01*
X4243781Y5452973D01*
X4251655Y5465978D01*
X4257903Y5479846D01*
X4262424Y5494375D01*
X4265168Y5509310D01*
X4266082Y5524500D01*
X4265168Y5539689D01*
X4262424Y5554624D01*
X4257903Y5569153D01*
X4251655Y5583021D01*
X4243781Y5596026D01*
X4234434Y5607964D01*
X4223664Y5618734D01*
X4211726Y5628081D01*
X4198721Y5635955D01*
X4184802Y5642254D01*
X4181601Y5644438D01*
X4179519Y5647690D01*
X4178808Y5651500D01*
X4179519Y5655310D01*
X4181601Y5658561D01*
X4184802Y5660745D01*
X4198721Y5667044D01*
X4211726Y5674918D01*
X4223664Y5684266D01*
X4234434Y5695035D01*
X4243781Y5706973D01*
X4251655Y5719978D01*
X4257903Y5733846D01*
X4262424Y5748375D01*
X4265168Y5763310D01*
X4266082Y5778500D01*
X4265168Y5793689D01*
X4262424Y5808624D01*
X4257903Y5823153D01*
X4251655Y5837021D01*
X4243781Y5850026D01*
X4234434Y5861964D01*
X4223664Y5872734D01*
X4211726Y5882081D01*
X4198721Y5889955D01*
X4184802Y5896254D01*
X4170324Y5900724D01*
X4155389Y5903468D01*
X4140200Y5904382D01*
X4125010Y5903468D01*
X4110075Y5900724D01*
X4095597Y5896254D01*
X4081678Y5889955D01*
X4068673Y5882081D01*
X4056735Y5872734D01*
X4045965Y5861964D01*
X4036618Y5850026D01*
X4028744Y5837021D01*
X4022496Y5823153D01*
X4017975Y5808624D01*
X4015232Y5793689D01*
X4014317Y5778500D01*
X4015232Y5763310D01*
X4017975Y5748375D01*
X4022496Y5733846D01*
X4028744Y5719978D01*
X4036618Y5706973D01*
X4045965Y5695035D01*
X4056735Y5684266D01*
X4068673Y5674918D01*
X4081678Y5667044D01*
X4095597Y5660745D01*
X4098798Y5658561D01*
X4100880Y5655310D01*
X4101592Y5651500D01*
X4100880Y5647690D01*
X4098798Y5644438D01*
X4095597Y5642254D01*
X4081678Y5635955D01*
X4068673Y5628081D01*
X4056735Y5618734D01*
X4045965Y5607964D01*
X4036618Y5596026D01*
X4028744Y5583021D01*
X4022496Y5569153D01*
X4017975Y5554624D01*
X4015232Y5539689D01*
X4014317Y5524500D01*
X4015232Y5509310D01*
X4017975Y5494375D01*
X4022496Y5479846D01*
X4028744Y5465978D01*
X4036618Y5452973D01*
X4045965Y5441035D01*
X4056735Y5430266D01*
X4068673Y5420918D01*
X4081678Y5413044D01*
X4095597Y5406745D01*
X4098798Y5404561D01*
X4100880Y5401310D01*
X4101592Y5397500D01*
X4100880Y5393690D01*
X4098798Y5390438D01*
X4095597Y5388254D01*
X4081678Y5381955D01*
X4068673Y5374081D01*
X4056735Y5364734D01*
X4045965Y5353964D01*
X4036618Y5342026D01*
X4028744Y5329021D01*
X4022496Y5315153D01*
X4017975Y5300624D01*
X4015232Y5285689D01*
X4014317Y5270500D01*
X4015232Y5255310D01*
X4017975Y5240375D01*
X4022496Y5225846D01*
X4028744Y5211978D01*
X4036618Y5198973D01*
X4045965Y5187035D01*
X4056735Y5176266D01*
X4068673Y5166918D01*
X4081678Y5159044D01*
X4095597Y5152745D01*
X4098798Y5150561D01*
X4100880Y5147310D01*
X4101592Y5143500D01*
X4100880Y5139690D01*
X4098798Y5136438D01*
X4095597Y5134254D01*
X4081678Y5127955D01*
X4068673Y5120081D01*
X4056735Y5110734D01*
X4045965Y5099964D01*
X4036618Y5088026D01*
X4028744Y5075021D01*
X4022496Y5061153D01*
X4017975Y5046624D01*
X4015232Y5031689D01*
X4014317Y5016500D01*
X4015232Y5001310D01*
X4017975Y4986375D01*
X4022496Y4971846D01*
X4028744Y4957978D01*
X4036618Y4944973D01*
X4045965Y4933035D01*
X4056735Y4922266D01*
X4068673Y4912918D01*
X4081678Y4905044D01*
X4095597Y4898745D01*
X4098798Y4896561D01*
X4100880Y4893310D01*
X4101592Y4889500D01*
X4100880Y4885690D01*
X4098798Y4882438D01*
X4095597Y4880254D01*
X4081678Y4873955D01*
X4068673Y4866081D01*
X4056735Y4856734D01*
X4045965Y4845964D01*
X4036618Y4834026D01*
X4028744Y4821021D01*
X4022496Y4807153D01*
X4017975Y4792624D01*
X4015232Y4777689D01*
X4014317Y4762500D01*
X4015232Y4747310D01*
X4017975Y4732375D01*
X4022496Y4717846D01*
X4028744Y4703978D01*
X4036618Y4690973D01*
X4045965Y4679035D01*
X4056735Y4668266D01*
X4068673Y4658918D01*
X4081678Y4651044D01*
X4095597Y4644745D01*
X4098798Y4642561D01*
X4100880Y4639310D01*
X4101592Y4635500D01*
X4100880Y4631690D01*
X4098798Y4628438D01*
X4095597Y4626254D01*
X4081678Y4619955D01*
X4068673Y4612081D01*
X4056735Y4602734D01*
X4045965Y4591964D01*
X4036618Y4580026D01*
X4028744Y4567021D01*
X4022496Y4553153D01*
X4017975Y4538624D01*
X4015232Y4523689D01*
X4014317Y4508500D01*
X4015232Y4493310D01*
X4017975Y4478375D01*
X4022496Y4463846D01*
X4025341Y4457496D01*
X4026255Y4453534D01*
X4025493Y4449572D01*
X4023258Y4446168D01*
X3694176Y4117035D01*
X3689045Y4110837D01*
X3685489Y4104132D01*
X3683304Y4096918D01*
X3682492Y4088892D01*
X3682492Y2153208D01*
X3681729Y2149348D01*
X3679494Y2146046D01*
X3677920Y2144420D01*
X3672281Y2136394D01*
X3668115Y2127504D01*
X3665575Y2118004D01*
X3664712Y2108200D01*
X3665575Y2098395D01*
X3668115Y2088896D01*
X3672281Y2080006D01*
X3677920Y2071979D01*
X3684879Y2065020D01*
X3692906Y2059381D01*
X3701796Y2055215D01*
X3711295Y2052675D01*
G37*
G36*
X7629144Y2137054D02*
G01*
X7643368Y2137511D01*
X7657388Y2139797D01*
X7671003Y2143810D01*
X7684008Y2149602D01*
X7696149Y2156968D01*
X7707274Y2165807D01*
X7717129Y2176018D01*
X7725613Y2187397D01*
X7732623Y2199792D01*
X7737957Y2212949D01*
X7741564Y2226716D01*
X7743342Y2240788D01*
X7743342Y2255012D01*
X7741564Y2269083D01*
X7737957Y2282850D01*
X7732623Y2296007D01*
X7725613Y2308402D01*
X7717129Y2319782D01*
X7707274Y2329992D01*
X7696149Y2338832D01*
X7684008Y2346198D01*
X7671003Y2351938D01*
X7657388Y2356002D01*
X7643368Y2358288D01*
X7629144Y2358745D01*
X7615021Y2357374D01*
X7601153Y2354224D01*
X7587792Y2349296D01*
X7575194Y2342743D01*
X7563561Y2334615D01*
X7553045Y2325065D01*
X7543850Y2314244D01*
X7536078Y2302306D01*
X7529931Y2289505D01*
X7525461Y2276043D01*
X7522718Y2262073D01*
X7521803Y2247900D01*
X7522718Y2233726D01*
X7525461Y2219756D01*
X7529931Y2206294D01*
X7536078Y2193493D01*
X7543850Y2181555D01*
X7553045Y2170734D01*
X7563561Y2161184D01*
X7575194Y2153056D01*
X7587792Y2146503D01*
X7601153Y2141575D01*
X7615021Y2138426D01*
G37*
G36*
X7802270Y2143252D02*
G01*
X7971129Y2143252D01*
X7977428Y2143963D01*
X7982915Y2145893D01*
X7987792Y2148941D01*
X7991906Y2153056D01*
X7995005Y2157933D01*
X7996885Y2163419D01*
X7997596Y2169718D01*
X7997596Y2326081D01*
X7996885Y2332380D01*
X7995005Y2337866D01*
X7991906Y2342743D01*
X7987792Y2346858D01*
X7982915Y2349906D01*
X7977428Y2351836D01*
X7971129Y2352548D01*
X7802270Y2352548D01*
X7795971Y2351836D01*
X7790484Y2349906D01*
X7785608Y2346858D01*
X7781493Y2342743D01*
X7778394Y2337866D01*
X7776514Y2332380D01*
X7775803Y2326081D01*
X7775803Y2169718D01*
X7776514Y2163419D01*
X7778394Y2157933D01*
X7781493Y2153056D01*
X7785608Y2148941D01*
X7790484Y2145893D01*
X7795971Y2143963D01*
G37*
G36*
X5334000Y2280412D02*
G01*
X5348732Y2281326D01*
X5363260Y2284069D01*
X5377281Y2288540D01*
X5390692Y2294686D01*
X5403240Y2302459D01*
X5414772Y2311704D01*
X5425033Y2322322D01*
X5433923Y2334107D01*
X5441289Y2346858D01*
X5444947Y2355494D01*
X5447182Y2358745D01*
X5450433Y2360930D01*
X5454294Y2361692D01*
X5676798Y2361692D01*
X5680456Y2360980D01*
X5683656Y2359050D01*
X5685891Y2356053D01*
X5687415Y2353056D01*
X5695543Y2340762D01*
X5705144Y2329535D01*
X5716066Y2319629D01*
X5728106Y2311095D01*
X5741111Y2304084D01*
X5754878Y2298750D01*
X5769152Y2295194D01*
X5783834Y2293366D01*
X5798566Y2293366D01*
X5813247Y2295194D01*
X5827522Y2298750D01*
X5841288Y2304084D01*
X5854293Y2311095D01*
X5866333Y2319629D01*
X5877255Y2329535D01*
X5886856Y2340762D01*
X5894984Y2353056D01*
X5901588Y2366264D01*
X5906516Y2380183D01*
X5909665Y2394610D01*
X5911037Y2409291D01*
X5910580Y2424074D01*
X5908294Y2438654D01*
X5904230Y2452827D01*
X5898489Y2466441D01*
X5891123Y2479192D01*
X5882233Y2490978D01*
X5871972Y2501595D01*
X5860440Y2510840D01*
X5847892Y2518613D01*
X5834481Y2524760D01*
X5820460Y2529230D01*
X5805932Y2531973D01*
X5791200Y2532888D01*
X5776468Y2531973D01*
X5761939Y2529230D01*
X5747918Y2524760D01*
X5734507Y2518613D01*
X5721959Y2510840D01*
X5710428Y2501595D01*
X5700166Y2490978D01*
X5691276Y2479192D01*
X5683910Y2466441D01*
X5678170Y2452827D01*
X5676290Y2446274D01*
X5674207Y2442464D01*
X5670753Y2439822D01*
X5666486Y2438908D01*
X5454446Y2438908D01*
X5450382Y2439771D01*
X5446979Y2442159D01*
X5437784Y2460244D01*
X5429656Y2472537D01*
X5420055Y2483764D01*
X5409133Y2493670D01*
X5397093Y2502204D01*
X5384088Y2509215D01*
X5370322Y2514549D01*
X5356047Y2518105D01*
X5341366Y2519934D01*
X5326634Y2519934D01*
X5311952Y2518105D01*
X5297678Y2514549D01*
X5283911Y2509215D01*
X5270906Y2502204D01*
X5258866Y2493670D01*
X5247944Y2483764D01*
X5238343Y2472537D01*
X5230215Y2460244D01*
X5221020Y2442159D01*
X5217617Y2439771D01*
X5213553Y2438908D01*
X5014468Y2438908D01*
X5010556Y2439670D01*
X5007305Y2441905D01*
X5005070Y2445156D01*
X5004308Y2449068D01*
X5004308Y3403092D01*
X5003495Y3411118D01*
X5001310Y3418332D01*
X4997754Y3425037D01*
X4992624Y3431235D01*
X4745990Y3677869D01*
X4743958Y3680815D01*
X4743043Y3684219D01*
X4742332Y3692601D01*
X4739944Y3701948D01*
X4735931Y3710736D01*
X4730546Y3718712D01*
X4723892Y3725672D01*
X4716119Y3731412D01*
X4707483Y3735781D01*
X4698288Y3738575D01*
X4688738Y3739845D01*
X4679086Y3739387D01*
X4669637Y3737356D01*
X4660696Y3733800D01*
X4652467Y3728720D01*
X4645253Y3722370D01*
X4639157Y3714851D01*
X4634484Y3706418D01*
X4631283Y3697325D01*
X4629658Y3687826D01*
X4629658Y3678174D01*
X4631283Y3668674D01*
X4634484Y3659581D01*
X4639157Y3651148D01*
X4645253Y3643629D01*
X4652467Y3637279D01*
X4660696Y3632200D01*
X4669637Y3628644D01*
X4679086Y3626612D01*
X4684572Y3626358D01*
X4688230Y3625494D01*
X4691329Y3623411D01*
X4924094Y3390595D01*
X4926330Y3387293D01*
X4927092Y3383381D01*
X4927092Y2426208D01*
X4927904Y2418181D01*
X4930089Y2410968D01*
X4933645Y2404262D01*
X4938776Y2398064D01*
X4963464Y2373376D01*
X4969662Y2368245D01*
X4976368Y2364689D01*
X4983581Y2362504D01*
X4991608Y2361692D01*
X5213705Y2361692D01*
X5217566Y2360930D01*
X5220817Y2358745D01*
X5223052Y2355494D01*
X5226710Y2346858D01*
X5234076Y2334107D01*
X5242966Y2322322D01*
X5253228Y2311704D01*
X5264759Y2302459D01*
X5277307Y2294686D01*
X5290718Y2288540D01*
X5304739Y2284069D01*
X5319268Y2281326D01*
G37*
G36*
X6972300Y2428697D02*
G01*
X6984542Y2429611D01*
X6996480Y2432202D01*
X7007961Y2436469D01*
X7018731Y2442362D01*
X7028535Y2449677D01*
X7037222Y2458364D01*
X7044537Y2468168D01*
X7050430Y2478938D01*
X7054697Y2490419D01*
X7057288Y2502357D01*
X7058202Y2514600D01*
X7057288Y2526842D01*
X7054697Y2538780D01*
X7050430Y2550261D01*
X7044537Y2561031D01*
X7037222Y2570835D01*
X7028535Y2579522D01*
X7018731Y2586837D01*
X7007961Y2592730D01*
X6996480Y2596997D01*
X6984542Y2599588D01*
X6972300Y2600502D01*
X6960057Y2599588D01*
X6948119Y2596997D01*
X6936638Y2592730D01*
X6925868Y2586837D01*
X6916064Y2579522D01*
X6907377Y2570835D01*
X6900062Y2561031D01*
X6894169Y2550261D01*
X6889902Y2538780D01*
X6887311Y2526842D01*
X6886397Y2514600D01*
X6887311Y2502357D01*
X6889902Y2490419D01*
X6894169Y2478938D01*
X6900062Y2468168D01*
X6907377Y2458364D01*
X6916064Y2449677D01*
X6925868Y2442362D01*
X6936638Y2436469D01*
X6948119Y2432202D01*
X6960057Y2429611D01*
G37*
G36*
X6500672Y2436825D02*
G01*
X6510731Y2442362D01*
X6520535Y2449677D01*
X6529222Y2458364D01*
X6536537Y2468168D01*
X6542074Y2478227D01*
X6500672Y2478227D01*
G37*
G36*
X6427927Y2436825D02*
G01*
X6427927Y2478227D01*
X6386525Y2478227D01*
X6392062Y2468168D01*
X6399377Y2458364D01*
X6408064Y2449677D01*
X6417868Y2442362D01*
G37*
G36*
X6386525Y2550972D02*
G01*
X6427927Y2550972D01*
X6427927Y2592374D01*
X6417868Y2586837D01*
X6408064Y2579522D01*
X6399377Y2570835D01*
X6392062Y2561031D01*
G37*
G36*
X6500672Y2550972D02*
G01*
X6542074Y2550972D01*
X6536537Y2561031D01*
X6529222Y2570835D01*
X6520535Y2579522D01*
X6510731Y2586837D01*
X6500672Y2592374D01*
G37*
G36*
X8028990Y3093720D02*
G01*
X8277809Y3093720D01*
X8284159Y3094431D01*
X8289594Y3096310D01*
X8294522Y3099409D01*
X8298586Y3103473D01*
X8301685Y3108401D01*
X8303615Y3113836D01*
X8304326Y3120186D01*
X8304326Y3339033D01*
X8303615Y3345383D01*
X8301685Y3350818D01*
X8298586Y3355746D01*
X8294522Y3359810D01*
X8289594Y3362909D01*
X8284159Y3364788D01*
X8277809Y3365500D01*
X8028990Y3365500D01*
X8022640Y3364788D01*
X8017205Y3362909D01*
X8012277Y3359810D01*
X8008213Y3355746D01*
X8005114Y3350818D01*
X8003184Y3345383D01*
X8002473Y3339033D01*
X8002473Y3120186D01*
X8003184Y3113836D01*
X8005114Y3108401D01*
X8008213Y3103473D01*
X8012277Y3099409D01*
X8017205Y3096310D01*
X8022640Y3094431D01*
G37*
G36*
X6960057Y3128060D02*
G01*
X6975652Y3128060D01*
X6981952Y3128772D01*
X6987438Y3130651D01*
X6992315Y3133750D01*
X6996430Y3137865D01*
X6999478Y3142742D01*
X7001408Y3148228D01*
X7002119Y3154527D01*
X7002119Y3187598D01*
X6960057Y3187598D01*
G37*
G36*
X6677202Y3128060D02*
G01*
X6688277Y3128975D01*
X6699097Y3131566D01*
X6709359Y3135833D01*
X6718858Y3141624D01*
X6727342Y3148838D01*
X6732981Y3155442D01*
X6736435Y3158083D01*
X6740702Y3159048D01*
X6744970Y3158083D01*
X6748424Y3155442D01*
X6754063Y3148838D01*
X6762546Y3141624D01*
X6772046Y3135833D01*
X6782308Y3131566D01*
X6793128Y3128975D01*
X6804202Y3128060D01*
X6815277Y3128975D01*
X6826097Y3131566D01*
X6836359Y3135833D01*
X6845858Y3141624D01*
X6848500Y3143859D01*
X6852310Y3145891D01*
X6856628Y3146196D01*
X6860641Y3144621D01*
X6863689Y3141522D01*
X6865975Y3137865D01*
X6870090Y3133750D01*
X6874967Y3130651D01*
X6880453Y3128772D01*
X6886752Y3128060D01*
X6902348Y3128060D01*
X6902348Y3187598D01*
X6885178Y3187598D01*
X6881114Y3188462D01*
X6877710Y3190849D01*
X6875576Y3194456D01*
X6875119Y3199384D01*
X6875119Y3268573D01*
X6875576Y3273501D01*
X6877710Y3277057D01*
X6881114Y3279444D01*
X6885178Y3280308D01*
X6902348Y3280308D01*
X6902348Y3339846D01*
X6886752Y3339846D01*
X6880453Y3339134D01*
X6874967Y3337255D01*
X6870090Y3334156D01*
X6865975Y3330092D01*
X6863689Y3326384D01*
X6860641Y3323285D01*
X6856628Y3321761D01*
X6852310Y3322015D01*
X6848500Y3324047D01*
X6845858Y3326282D01*
X6836359Y3332124D01*
X6826097Y3336391D01*
X6815277Y3338982D01*
X6804202Y3339846D01*
X6793128Y3338982D01*
X6782308Y3336391D01*
X6772046Y3332124D01*
X6762546Y3326282D01*
X6754063Y3319068D01*
X6748424Y3312464D01*
X6744970Y3309823D01*
X6740702Y3308908D01*
X6736435Y3309823D01*
X6732981Y3312464D01*
X6727342Y3319068D01*
X6718858Y3326282D01*
X6709359Y3332124D01*
X6699097Y3336391D01*
X6688277Y3338982D01*
X6682587Y3339439D01*
X6679082Y3340303D01*
X6676186Y3342335D01*
X6530492Y3488029D01*
X6528307Y3491331D01*
X6527495Y3495243D01*
X6527495Y3805783D01*
X6527850Y3808272D01*
X6529730Y3812438D01*
X6533997Y3823919D01*
X6536588Y3835857D01*
X6537502Y3848100D01*
X6536588Y3860342D01*
X6533997Y3872280D01*
X6529730Y3883761D01*
X6527800Y3887927D01*
X6527495Y3890416D01*
X6527495Y4211269D01*
X6528257Y4215180D01*
X6530492Y4218482D01*
X7400950Y5088940D01*
X7404658Y5091277D01*
X7409027Y5091887D01*
X7413193Y5090566D01*
X7490358Y5090566D01*
X7490358Y5155184D01*
X7486142Y5156758D01*
X7482992Y5159959D01*
X7481570Y5164175D01*
X7482078Y5168646D01*
X7484465Y5172456D01*
X7488580Y5176570D01*
X7491628Y5178653D01*
X7495235Y5179517D01*
X7498892Y5179060D01*
X7505395Y5176977D01*
X7519670Y5174234D01*
X7534503Y5173268D01*
X7563866Y5173268D01*
X7578699Y5174234D01*
X7593025Y5176977D01*
X7606842Y5181447D01*
X7620050Y5187645D01*
X7632293Y5195468D01*
X7643520Y5204714D01*
X7653477Y5215331D01*
X7662062Y5227116D01*
X7669072Y5239867D01*
X7674406Y5253380D01*
X7678013Y5267502D01*
X7679842Y5281930D01*
X7679842Y5296458D01*
X7678013Y5310936D01*
X7674406Y5325008D01*
X7669072Y5338521D01*
X7662062Y5351272D01*
X7653477Y5363057D01*
X7643520Y5373674D01*
X7632293Y5382971D01*
X7620050Y5390743D01*
X7606842Y5396941D01*
X7593025Y5401462D01*
X7578496Y5404205D01*
X7574788Y5405729D01*
X7571943Y5408523D01*
X7570419Y5412181D01*
X7570419Y5416194D01*
X7571943Y5419852D01*
X7574788Y5422696D01*
X7578496Y5424170D01*
X7593025Y5426964D01*
X7606842Y5431434D01*
X7620050Y5437632D01*
X7632293Y5445455D01*
X7643520Y5454700D01*
X7653477Y5465318D01*
X7662062Y5477103D01*
X7669072Y5489854D01*
X7674406Y5503367D01*
X7678013Y5517489D01*
X7679842Y5531916D01*
X7679842Y5546496D01*
X7678013Y5560923D01*
X7674406Y5574995D01*
X7669072Y5588558D01*
X7662062Y5601309D01*
X7653477Y5613044D01*
X7643520Y5623661D01*
X7632293Y5632958D01*
X7620050Y5640730D01*
X7606842Y5646928D01*
X7593025Y5651449D01*
X7578496Y5654243D01*
X7574788Y5655716D01*
X7571943Y5658510D01*
X7570419Y5662218D01*
X7570419Y5666181D01*
X7571943Y5669889D01*
X7574788Y5672683D01*
X7578496Y5674156D01*
X7593025Y5676950D01*
X7606842Y5681472D01*
X7620050Y5687669D01*
X7632293Y5695442D01*
X7643520Y5704738D01*
X7653477Y5715304D01*
X7662062Y5727090D01*
X7669072Y5739841D01*
X7674406Y5753404D01*
X7678013Y5767476D01*
X7679842Y5781903D01*
X7679842Y5796483D01*
X7678013Y5810910D01*
X7674406Y5825032D01*
X7669072Y5838545D01*
X7662062Y5851296D01*
X7653477Y5863082D01*
X7643520Y5873699D01*
X7632293Y5882944D01*
X7620050Y5890768D01*
X7606842Y5896965D01*
X7593025Y5901436D01*
X7578496Y5904230D01*
X7574788Y5905703D01*
X7571943Y5908548D01*
X7570419Y5912205D01*
X7570419Y5916168D01*
X7571943Y5919876D01*
X7574788Y5922670D01*
X7578496Y5924194D01*
X7593025Y5926937D01*
X7606842Y5931458D01*
X7620050Y5937656D01*
X7632293Y5945428D01*
X7643520Y5954725D01*
X7653477Y5965342D01*
X7662062Y5977077D01*
X7669072Y5989878D01*
X7674406Y6003391D01*
X7678013Y6017463D01*
X7679842Y6031941D01*
X7679842Y6046470D01*
X7678013Y6060897D01*
X7674406Y6075019D01*
X7669072Y6088532D01*
X7662062Y6101283D01*
X7653477Y6113068D01*
X7643520Y6123686D01*
X7632293Y6132931D01*
X7620050Y6140754D01*
X7606842Y6146952D01*
X7593025Y6151422D01*
X7578496Y6154216D01*
X7574788Y6155740D01*
X7571943Y6158534D01*
X7570419Y6162192D01*
X7570419Y6166205D01*
X7571943Y6169863D01*
X7574788Y6172657D01*
X7578496Y6174181D01*
X7593025Y6176975D01*
X7606842Y6181445D01*
X7620050Y6187643D01*
X7632293Y6195466D01*
X7643520Y6204712D01*
X7653477Y6215329D01*
X7662062Y6227114D01*
X7669072Y6239865D01*
X7674406Y6253378D01*
X7678013Y6267500D01*
X7679842Y6281928D01*
X7679842Y6296456D01*
X7678013Y6310934D01*
X7674406Y6325006D01*
X7669072Y6338519D01*
X7662062Y6351270D01*
X7653477Y6363055D01*
X7643520Y6373672D01*
X7632293Y6382969D01*
X7620050Y6390741D01*
X7606842Y6396939D01*
X7593025Y6401460D01*
X7578496Y6404203D01*
X7574788Y6405727D01*
X7571943Y6408521D01*
X7570419Y6412179D01*
X7570419Y6416192D01*
X7571943Y6419850D01*
X7574788Y6422694D01*
X7578496Y6424168D01*
X7593025Y6426962D01*
X7606842Y6431432D01*
X7620050Y6437630D01*
X7632293Y6445453D01*
X7643520Y6454698D01*
X7653477Y6465316D01*
X7662062Y6477101D01*
X7669072Y6489852D01*
X7674406Y6503365D01*
X7678013Y6517487D01*
X7679842Y6531914D01*
X7679842Y6546494D01*
X7678013Y6560921D01*
X7674406Y6574993D01*
X7669072Y6588556D01*
X7662062Y6601307D01*
X7653477Y6613042D01*
X7643520Y6623659D01*
X7632293Y6632956D01*
X7620050Y6640728D01*
X7606842Y6646925D01*
X7593025Y6651447D01*
X7578699Y6654190D01*
X7563866Y6655104D01*
X7534503Y6655104D01*
X7519670Y6654190D01*
X7505395Y6651447D01*
X7491526Y6646925D01*
X7478369Y6640728D01*
X7466075Y6632956D01*
X7454849Y6623659D01*
X7444892Y6613042D01*
X7436358Y6601307D01*
X7429347Y6588556D01*
X7423962Y6574993D01*
X7420356Y6560921D01*
X7418527Y6546494D01*
X7418527Y6531914D01*
X7420356Y6517487D01*
X7423962Y6503365D01*
X7429347Y6489852D01*
X7436358Y6477101D01*
X7444892Y6465316D01*
X7454849Y6454698D01*
X7466075Y6445453D01*
X7478369Y6437630D01*
X7491526Y6431432D01*
X7505395Y6426962D01*
X7519924Y6424168D01*
X7523581Y6422694D01*
X7526426Y6419850D01*
X7527950Y6416192D01*
X7527950Y6412179D01*
X7526426Y6408521D01*
X7523581Y6405727D01*
X7519924Y6404203D01*
X7505395Y6401460D01*
X7491526Y6396939D01*
X7478369Y6390741D01*
X7466075Y6382969D01*
X7454849Y6373672D01*
X7444892Y6363055D01*
X7436358Y6351270D01*
X7429347Y6338519D01*
X7423962Y6325006D01*
X7420356Y6310934D01*
X7418527Y6296456D01*
X7418527Y6281928D01*
X7420356Y6267500D01*
X7423962Y6253378D01*
X7429347Y6239865D01*
X7436358Y6227114D01*
X7444892Y6215329D01*
X7454849Y6204712D01*
X7466075Y6195466D01*
X7478369Y6187643D01*
X7491526Y6181445D01*
X7505395Y6176975D01*
X7519924Y6174181D01*
X7523581Y6172657D01*
X7526426Y6169863D01*
X7527950Y6166205D01*
X7527950Y6162192D01*
X7526426Y6158534D01*
X7523581Y6155740D01*
X7519924Y6154216D01*
X7505395Y6151422D01*
X7491526Y6146952D01*
X7478369Y6140754D01*
X7466075Y6132931D01*
X7454849Y6123686D01*
X7444892Y6113068D01*
X7436358Y6101283D01*
X7429347Y6088532D01*
X7423962Y6075019D01*
X7420356Y6060897D01*
X7418527Y6046470D01*
X7418527Y6031941D01*
X7420356Y6017463D01*
X7423962Y6003391D01*
X7429347Y5989878D01*
X7436358Y5977077D01*
X7444892Y5965342D01*
X7454849Y5954725D01*
X7466075Y5945428D01*
X7478369Y5937656D01*
X7491526Y5931458D01*
X7505395Y5926937D01*
X7519924Y5924194D01*
X7523581Y5922670D01*
X7526426Y5919876D01*
X7527950Y5916168D01*
X7527950Y5912205D01*
X7526426Y5908548D01*
X7523581Y5905703D01*
X7519924Y5904230D01*
X7505395Y5901436D01*
X7491526Y5896965D01*
X7478369Y5890768D01*
X7466075Y5882944D01*
X7454849Y5873699D01*
X7444892Y5863082D01*
X7436358Y5851296D01*
X7429347Y5838545D01*
X7423962Y5825032D01*
X7420356Y5810910D01*
X7418527Y5796483D01*
X7418527Y5781903D01*
X7420356Y5767476D01*
X7423962Y5753404D01*
X7429347Y5739841D01*
X7436358Y5727090D01*
X7444892Y5715304D01*
X7454849Y5704738D01*
X7466075Y5695442D01*
X7478369Y5687669D01*
X7491526Y5681472D01*
X7505395Y5676950D01*
X7519924Y5674156D01*
X7523581Y5672683D01*
X7526426Y5669889D01*
X7527950Y5666181D01*
X7527950Y5662218D01*
X7526426Y5658510D01*
X7523581Y5655716D01*
X7519924Y5654243D01*
X7505395Y5651449D01*
X7491526Y5646928D01*
X7478369Y5640730D01*
X7466075Y5632958D01*
X7454849Y5623661D01*
X7444892Y5613044D01*
X7436358Y5601309D01*
X7429347Y5588558D01*
X7423962Y5574995D01*
X7420356Y5560923D01*
X7418527Y5546496D01*
X7418527Y5531916D01*
X7420356Y5517489D01*
X7423962Y5503367D01*
X7429347Y5489854D01*
X7436358Y5477103D01*
X7444892Y5465318D01*
X7454849Y5454700D01*
X7466075Y5445455D01*
X7478369Y5437632D01*
X7491526Y5431434D01*
X7505395Y5426964D01*
X7519924Y5424170D01*
X7523581Y5422696D01*
X7526426Y5419852D01*
X7527950Y5416194D01*
X7527950Y5412181D01*
X7526426Y5408523D01*
X7523581Y5405729D01*
X7519924Y5404205D01*
X7505395Y5401462D01*
X7491526Y5396941D01*
X7478369Y5390743D01*
X7466075Y5382971D01*
X7454849Y5373674D01*
X7444892Y5363057D01*
X7436358Y5351272D01*
X7429347Y5338521D01*
X7425842Y5329682D01*
X7423556Y5326278D01*
X6396075Y4298696D01*
X6389014Y4289856D01*
X6384391Y4282236D01*
X6383274Y4280052D01*
X6379870Y4271822D01*
X6379108Y4269486D01*
X6376974Y4260850D01*
X6376568Y4258411D01*
X6375755Y4249572D01*
X6375704Y3890416D01*
X6375400Y3887927D01*
X6373469Y3883761D01*
X6369202Y3872280D01*
X6366611Y3860342D01*
X6365697Y3848100D01*
X6366611Y3835857D01*
X6369202Y3823919D01*
X6373469Y3812438D01*
X6375400Y3808272D01*
X6375704Y3805783D01*
X6375755Y3456940D01*
X6376568Y3448100D01*
X6376974Y3445662D01*
X6379108Y3437026D01*
X6383274Y3426460D01*
X6384391Y3424275D01*
X6389014Y3416655D01*
X6396075Y3407816D01*
X6603796Y3200044D01*
X6605828Y3197098D01*
X6606743Y3193643D01*
X6607200Y3187852D01*
X6609791Y3177082D01*
X6614058Y3166770D01*
X6619849Y3157321D01*
X6627063Y3148838D01*
X6635546Y3141624D01*
X6645046Y3135833D01*
X6655308Y3131566D01*
X6666128Y3128975D01*
G37*
G36*
X6960057Y3280308D02*
G01*
X7002119Y3280308D01*
X7002119Y3313379D01*
X7001408Y3319729D01*
X6999478Y3325164D01*
X6996430Y3330092D01*
X6992315Y3334156D01*
X6987438Y3337255D01*
X6981952Y3339134D01*
X6975652Y3339846D01*
X6960057Y3339846D01*
G37*
G36*
X5387340Y3563162D02*
G01*
X5390692Y3564686D01*
X5403240Y3572459D01*
X5414772Y3581704D01*
X5425033Y3592322D01*
X5433923Y3604107D01*
X5441340Y3616960D01*
X5387340Y3616960D01*
G37*
G36*
X5280660Y3563162D02*
G01*
X5280660Y3616960D01*
X5226659Y3616960D01*
X5234076Y3604107D01*
X5242966Y3592322D01*
X5253228Y3581704D01*
X5264759Y3572459D01*
X5277307Y3564686D01*
G37*
G36*
X5783834Y3563365D02*
G01*
X5798566Y3563365D01*
X5813247Y3565194D01*
X5827522Y3568750D01*
X5841288Y3574084D01*
X5854293Y3581095D01*
X5866333Y3589629D01*
X5877255Y3599535D01*
X5886856Y3610762D01*
X5894984Y3623056D01*
X5901588Y3636264D01*
X5906516Y3650183D01*
X5909665Y3664610D01*
X5911037Y3679291D01*
X5910580Y3694074D01*
X5908294Y3708654D01*
X5904230Y3722827D01*
X5898489Y3736441D01*
X5891123Y3749192D01*
X5882233Y3760978D01*
X5871972Y3771595D01*
X5860440Y3780840D01*
X5847892Y3788613D01*
X5834481Y3794760D01*
X5820460Y3799230D01*
X5805932Y3801973D01*
X5791200Y3802887D01*
X5776468Y3801973D01*
X5761939Y3799230D01*
X5747918Y3794760D01*
X5734507Y3788613D01*
X5721959Y3780840D01*
X5710428Y3771595D01*
X5700166Y3760978D01*
X5691276Y3749192D01*
X5683910Y3736441D01*
X5678170Y3722827D01*
X5674106Y3708654D01*
X5671820Y3694074D01*
X5671413Y3679291D01*
X5672734Y3664610D01*
X5675884Y3650183D01*
X5680811Y3636264D01*
X5687415Y3623056D01*
X5695543Y3610762D01*
X5705144Y3599535D01*
X5716066Y3589629D01*
X5728106Y3581095D01*
X5741111Y3574084D01*
X5754878Y3568750D01*
X5769152Y3565194D01*
G37*
G36*
X8084566Y3605479D02*
G01*
X8084566Y3668623D01*
X8017408Y3668623D01*
X8020710Y3662019D01*
X8029397Y3648862D01*
X8039557Y3636721D01*
X8051038Y3625900D01*
X8063738Y3616451D01*
X8077403Y3608578D01*
G37*
G36*
X8222234Y3605479D02*
G01*
X8229396Y3608578D01*
X8243062Y3616451D01*
X8255762Y3625900D01*
X8267242Y3636721D01*
X8277402Y3648862D01*
X8286089Y3662019D01*
X8289391Y3668623D01*
X8222234Y3668623D01*
G37*
G36*
X5387340Y3723640D02*
G01*
X5441086Y3723640D01*
X5437784Y3730244D01*
X5429656Y3742537D01*
X5420055Y3753764D01*
X5409133Y3763670D01*
X5397093Y3772204D01*
X5387340Y3777437D01*
G37*
G36*
X5226913Y3723640D02*
G01*
X5280660Y3723640D01*
X5280660Y3777437D01*
X5270906Y3772204D01*
X5258866Y3763670D01*
X5247944Y3753764D01*
X5238343Y3742537D01*
X5230215Y3730244D01*
G37*
G36*
X6995972Y3770325D02*
G01*
X7006031Y3775862D01*
X7015835Y3783177D01*
X7024522Y3791864D01*
X7031837Y3801668D01*
X7037374Y3811727D01*
X6995972Y3811727D01*
G37*
G36*
X6923227Y3770325D02*
G01*
X6923227Y3811727D01*
X6881825Y3811727D01*
X6887362Y3801668D01*
X6894677Y3791864D01*
X6903364Y3783177D01*
X6913168Y3775862D01*
G37*
G36*
X8017408Y3791356D02*
G01*
X8084566Y3791356D01*
X8084566Y3854500D01*
X8077403Y3851401D01*
X8063738Y3843528D01*
X8051038Y3834079D01*
X8039557Y3823258D01*
X8029397Y3811117D01*
X8020710Y3797960D01*
G37*
G36*
X8222234Y3791356D02*
G01*
X8289391Y3791356D01*
X8286089Y3797960D01*
X8277402Y3811117D01*
X8267242Y3823258D01*
X8255762Y3834079D01*
X8243062Y3843528D01*
X8229396Y3851401D01*
X8222234Y3854500D01*
G37*
G36*
X6881825Y3884472D02*
G01*
X6923227Y3884472D01*
X6923227Y3925874D01*
X6913168Y3920337D01*
X6903364Y3913022D01*
X6894677Y3904335D01*
X6887362Y3894531D01*
G37*
G36*
X6995972Y3884472D02*
G01*
X7037374Y3884472D01*
X7031837Y3894531D01*
X7024522Y3904335D01*
X7015835Y3913022D01*
X7006031Y3920337D01*
X6995972Y3925874D01*
G37*
G36*
X1453134Y4015689D02*
G01*
X1460296Y4018787D01*
X1473962Y4026662D01*
X1486662Y4036110D01*
X1498142Y4046931D01*
X1508302Y4059072D01*
X1516989Y4072229D01*
X1520291Y4078833D01*
X1453134Y4078833D01*
G37*
G36*
X1315466Y4015689D02*
G01*
X1315466Y4078833D01*
X1248308Y4078833D01*
X1251610Y4072229D01*
X1260297Y4059072D01*
X1270457Y4046931D01*
X1281938Y4036110D01*
X1294638Y4026662D01*
X1308303Y4018787D01*
G37*
G36*
X1453134Y4201566D02*
G01*
X1520291Y4201566D01*
X1516989Y4208170D01*
X1508302Y4221327D01*
X1498142Y4233468D01*
X1486662Y4244289D01*
X1473962Y4253738D01*
X1460296Y4261612D01*
X1453134Y4264710D01*
G37*
G36*
X1248308Y4201566D02*
G01*
X1315466Y4201566D01*
X1315466Y4264710D01*
X1308303Y4261612D01*
X1294638Y4253738D01*
X1281938Y4244289D01*
X1270457Y4233468D01*
X1260297Y4221327D01*
X1251610Y4208170D01*
G37*
G36*
X1369618Y4512310D02*
G01*
X1398981Y4512310D01*
X1415084Y4513224D01*
X1430629Y4515967D01*
X1445768Y4520488D01*
X1460296Y4526788D01*
X1473962Y4534662D01*
X1486662Y4544110D01*
X1498142Y4554931D01*
X1508302Y4567072D01*
X1516989Y4580229D01*
X1524101Y4594352D01*
X1529486Y4609236D01*
X1533144Y4624578D01*
X1534972Y4640275D01*
X1534972Y4656124D01*
X1533144Y4671822D01*
X1529486Y4687163D01*
X1524101Y4702048D01*
X1516989Y4716170D01*
X1508302Y4729327D01*
X1498142Y4741468D01*
X1486662Y4752289D01*
X1473962Y4761738D01*
X1460296Y4769612D01*
X1445768Y4775911D01*
X1430629Y4780432D01*
X1415084Y4783175D01*
X1398981Y4784090D01*
X1369618Y4784090D01*
X1353515Y4783175D01*
X1337970Y4780432D01*
X1322832Y4775911D01*
X1308303Y4769612D01*
X1294638Y4761738D01*
X1281938Y4752289D01*
X1270457Y4741468D01*
X1260297Y4729327D01*
X1251610Y4716170D01*
X1244498Y4702048D01*
X1239113Y4687163D01*
X1235456Y4671822D01*
X1233627Y4656124D01*
X1233627Y4640275D01*
X1235456Y4624578D01*
X1239113Y4609236D01*
X1244498Y4594352D01*
X1251610Y4580229D01*
X1260297Y4567072D01*
X1270457Y4554931D01*
X1281938Y4544110D01*
X1294638Y4534662D01*
X1308303Y4526788D01*
X1322832Y4520488D01*
X1337970Y4515967D01*
X1353515Y4513224D01*
G37*
G36*
X5108041Y4673295D02*
G01*
X5153609Y4673295D01*
X5159959Y4674006D01*
X5165394Y4675936D01*
X5170322Y4678984D01*
X5174386Y4683099D01*
X5177485Y4687976D01*
X5179415Y4693462D01*
X5180126Y4699762D01*
X5180126Y4737862D01*
X5108041Y4737862D01*
G37*
G36*
X7444790Y4673295D02*
G01*
X7490358Y4673295D01*
X7490358Y4737862D01*
X7418273Y4737862D01*
X7418273Y4699762D01*
X7418984Y4693462D01*
X7420914Y4687976D01*
X7424013Y4683099D01*
X7428077Y4678984D01*
X7433005Y4675936D01*
X7438440Y4674006D01*
G37*
G36*
X4944770Y4673295D02*
G01*
X4990338Y4673295D01*
X4990338Y4737862D01*
X4918303Y4737862D01*
X4918303Y4699762D01*
X4919014Y4693462D01*
X4920894Y4687976D01*
X4923993Y4683099D01*
X4928108Y4678984D01*
X4932984Y4675936D01*
X4938471Y4674006D01*
G37*
G36*
X7608062Y4673295D02*
G01*
X7653629Y4673295D01*
X7659928Y4674006D01*
X7665415Y4675936D01*
X7670292Y4678984D01*
X7674406Y4683099D01*
X7677505Y4687976D01*
X7679385Y4693462D01*
X7680096Y4699762D01*
X7680096Y4737862D01*
X7608062Y4737862D01*
G37*
G36*
X5108041Y4840528D02*
G01*
X5180126Y4840528D01*
X5180126Y4878628D01*
X5179415Y4884928D01*
X5177485Y4890414D01*
X5174386Y4895291D01*
X5170322Y4899406D01*
X5165394Y4902504D01*
X5159959Y4904384D01*
X5153609Y4905095D01*
X5108041Y4905095D01*
G37*
G36*
X7418273Y4840528D02*
G01*
X7490358Y4840528D01*
X7490358Y4987848D01*
X7418273Y4987848D01*
X7418273Y4949748D01*
X7418984Y4943449D01*
X7420914Y4937963D01*
X7424013Y4933086D01*
X7428077Y4928971D01*
X7433005Y4925923D01*
X7439050Y4923790D01*
X7442606Y4921656D01*
X7444994Y4918252D01*
X7445857Y4914188D01*
X7444994Y4910124D01*
X7442606Y4906772D01*
X7439050Y4904587D01*
X7433005Y4902504D01*
X7428077Y4899406D01*
X7424013Y4895291D01*
X7420914Y4890414D01*
X7418984Y4884928D01*
X7418273Y4878628D01*
G37*
G36*
X7608062Y4840528D02*
G01*
X7680096Y4840528D01*
X7680096Y4878628D01*
X7679385Y4884928D01*
X7677505Y4890414D01*
X7674406Y4895291D01*
X7670292Y4899406D01*
X7665415Y4902504D01*
X7659319Y4904587D01*
X7655763Y4906772D01*
X7653375Y4910124D01*
X7652512Y4914188D01*
X7653375Y4918252D01*
X7655763Y4921656D01*
X7659319Y4923790D01*
X7665415Y4925923D01*
X7670292Y4928971D01*
X7674406Y4933086D01*
X7677505Y4937963D01*
X7679385Y4943449D01*
X7680096Y4949748D01*
X7680096Y4987848D01*
X7608062Y4987848D01*
G37*
G36*
X3886200Y5017617D02*
G01*
X3901389Y5018532D01*
X3916324Y5021275D01*
X3930853Y5025796D01*
X3944721Y5032044D01*
X3957726Y5039918D01*
X3969664Y5049266D01*
X3980434Y5060035D01*
X3989781Y5071973D01*
X3997655Y5084978D01*
X4003903Y5098846D01*
X4008424Y5113375D01*
X4011168Y5128310D01*
X4012082Y5143500D01*
X4011168Y5158689D01*
X4008424Y5173624D01*
X4003903Y5188153D01*
X3997655Y5202021D01*
X3989781Y5215026D01*
X3980434Y5226964D01*
X3969664Y5237734D01*
X3957726Y5247081D01*
X3944721Y5254955D01*
X3930802Y5261254D01*
X3927601Y5263438D01*
X3925519Y5266690D01*
X3924808Y5270500D01*
X3925519Y5274310D01*
X3927601Y5277561D01*
X3930802Y5279745D01*
X3944721Y5286044D01*
X3957726Y5293918D01*
X3969664Y5303266D01*
X3980434Y5314035D01*
X3989781Y5325973D01*
X3997655Y5338978D01*
X4003903Y5352846D01*
X4008424Y5367375D01*
X4011168Y5382310D01*
X4012082Y5397500D01*
X4011168Y5412689D01*
X4008424Y5427624D01*
X4003903Y5442153D01*
X3997655Y5456021D01*
X3989781Y5469026D01*
X3980434Y5480964D01*
X3969664Y5491734D01*
X3957726Y5501081D01*
X3944721Y5508955D01*
X3930853Y5515203D01*
X3916324Y5519724D01*
X3901389Y5522468D01*
X3886200Y5523382D01*
X3871010Y5522468D01*
X3856075Y5519724D01*
X3841546Y5515203D01*
X3827678Y5508955D01*
X3814673Y5501081D01*
X3802735Y5491734D01*
X3791965Y5480964D01*
X3782618Y5469026D01*
X3774744Y5456021D01*
X3768496Y5442153D01*
X3763975Y5427624D01*
X3761232Y5412689D01*
X3760317Y5397500D01*
X3761232Y5382310D01*
X3763975Y5367375D01*
X3768496Y5352846D01*
X3774744Y5338978D01*
X3782618Y5325973D01*
X3791965Y5314035D01*
X3802735Y5303266D01*
X3814673Y5293918D01*
X3827678Y5286044D01*
X3841597Y5279745D01*
X3844798Y5277561D01*
X3846880Y5274310D01*
X3847592Y5270500D01*
X3846880Y5266690D01*
X3844798Y5263438D01*
X3841597Y5261254D01*
X3827678Y5254955D01*
X3814673Y5247081D01*
X3802735Y5237734D01*
X3791965Y5226964D01*
X3782618Y5215026D01*
X3774744Y5202021D01*
X3768496Y5188153D01*
X3763975Y5173624D01*
X3761232Y5158689D01*
X3760317Y5143500D01*
X3761232Y5128310D01*
X3763975Y5113375D01*
X3768496Y5098846D01*
X3774744Y5084978D01*
X3782618Y5071973D01*
X3791965Y5060035D01*
X3802735Y5049266D01*
X3814673Y5039918D01*
X3827678Y5032044D01*
X3841546Y5025796D01*
X3856075Y5021275D01*
X3871010Y5018532D01*
G37*
G36*
X7608062Y5090566D02*
G01*
X7680096Y5090566D01*
X7680096Y5128615D01*
X7679385Y5134965D01*
X7677505Y5140401D01*
X7674406Y5145328D01*
X7670292Y5149392D01*
X7665415Y5152491D01*
X7659928Y5154371D01*
X7653629Y5155082D01*
X7608062Y5155082D01*
G37*
G36*
X2672537Y5412079D02*
G01*
X2674721Y5413044D01*
X2687726Y5420918D01*
X2699664Y5430266D01*
X2710434Y5441035D01*
X2719781Y5452973D01*
X2727655Y5465978D01*
X2728620Y5468162D01*
X2672537Y5468162D01*
G37*
G36*
X2559862Y5412079D02*
G01*
X2559862Y5468162D01*
X2503779Y5468162D01*
X2504744Y5465978D01*
X2512618Y5452973D01*
X2521966Y5441035D01*
X2532735Y5430266D01*
X2544673Y5420918D01*
X2557678Y5413044D01*
G37*
G36*
X2503779Y5580837D02*
G01*
X2559862Y5580837D01*
X2559862Y5636920D01*
X2557678Y5635955D01*
X2544673Y5628081D01*
X2532735Y5618734D01*
X2521966Y5607964D01*
X2512618Y5596026D01*
X2504744Y5583021D01*
G37*
G36*
X2672537Y5580837D02*
G01*
X2728620Y5580837D01*
X2727655Y5583021D01*
X2719781Y5596026D01*
X2710434Y5607964D01*
X2699664Y5618734D01*
X2687726Y5628081D01*
X2674721Y5635955D01*
X2672537Y5636920D01*
G37*
G36*
X2616200Y5652617D02*
G01*
X2631389Y5653532D01*
X2646324Y5656275D01*
X2660802Y5660745D01*
X2674721Y5667044D01*
X2687726Y5674918D01*
X2699664Y5684266D01*
X2710434Y5695035D01*
X2719781Y5706973D01*
X2727655Y5719978D01*
X2733903Y5733846D01*
X2738424Y5748375D01*
X2741168Y5763310D01*
X2742082Y5778500D01*
X2741168Y5793689D01*
X2738424Y5808624D01*
X2733903Y5823153D01*
X2727655Y5837021D01*
X2719781Y5850026D01*
X2710434Y5861964D01*
X2699664Y5872734D01*
X2687726Y5882081D01*
X2674721Y5889955D01*
X2660802Y5896254D01*
X2657602Y5898438D01*
X2655519Y5901690D01*
X2654808Y5905500D01*
X2655519Y5909310D01*
X2657602Y5912561D01*
X2660802Y5914745D01*
X2674721Y5921044D01*
X2687726Y5928918D01*
X2699664Y5938266D01*
X2710434Y5949035D01*
X2719781Y5960973D01*
X2727655Y5973978D01*
X2733903Y5987846D01*
X2738424Y6002375D01*
X2741168Y6017310D01*
X2742082Y6032500D01*
X2741168Y6047689D01*
X2738424Y6062624D01*
X2733903Y6077153D01*
X2727655Y6091021D01*
X2719781Y6104026D01*
X2710434Y6115964D01*
X2699664Y6126734D01*
X2687726Y6136081D01*
X2674721Y6143955D01*
X2660802Y6150254D01*
X2657602Y6152438D01*
X2655519Y6155690D01*
X2654808Y6159500D01*
X2655519Y6163310D01*
X2657602Y6166561D01*
X2660802Y6168745D01*
X2674721Y6175044D01*
X2687726Y6182918D01*
X2699664Y6192266D01*
X2710434Y6203035D01*
X2719781Y6214973D01*
X2727655Y6227978D01*
X2733903Y6241846D01*
X2738424Y6256375D01*
X2741168Y6271310D01*
X2742082Y6286500D01*
X2741168Y6301689D01*
X2738424Y6316624D01*
X2733903Y6331153D01*
X2727655Y6345021D01*
X2719781Y6358026D01*
X2710434Y6369964D01*
X2699664Y6380734D01*
X2687726Y6390081D01*
X2674721Y6397955D01*
X2660853Y6404203D01*
X2646324Y6408724D01*
X2631389Y6411468D01*
X2616200Y6412382D01*
X2601010Y6411468D01*
X2586075Y6408724D01*
X2571546Y6404203D01*
X2557678Y6397955D01*
X2544673Y6390081D01*
X2532735Y6380734D01*
X2521966Y6369964D01*
X2512618Y6358026D01*
X2504744Y6345021D01*
X2498496Y6331153D01*
X2493975Y6316624D01*
X2491232Y6301689D01*
X2490317Y6286500D01*
X2491232Y6271310D01*
X2493975Y6256375D01*
X2498496Y6241846D01*
X2504744Y6227978D01*
X2512618Y6214973D01*
X2521966Y6203035D01*
X2532735Y6192266D01*
X2544673Y6182918D01*
X2557678Y6175044D01*
X2571597Y6168745D01*
X2574798Y6166561D01*
X2576880Y6163310D01*
X2577592Y6159500D01*
X2576880Y6155690D01*
X2574798Y6152438D01*
X2571597Y6150254D01*
X2557678Y6143955D01*
X2544673Y6136081D01*
X2532735Y6126734D01*
X2521966Y6115964D01*
X2512618Y6104026D01*
X2504744Y6091021D01*
X2498496Y6077153D01*
X2493975Y6062624D01*
X2491232Y6047689D01*
X2490317Y6032500D01*
X2491232Y6017310D01*
X2493975Y6002375D01*
X2498496Y5987846D01*
X2504744Y5973978D01*
X2512618Y5960973D01*
X2521966Y5949035D01*
X2532735Y5938266D01*
X2544673Y5928918D01*
X2557678Y5921044D01*
X2571597Y5914745D01*
X2574798Y5912561D01*
X2576880Y5909310D01*
X2577592Y5905500D01*
X2576880Y5901690D01*
X2574798Y5898438D01*
X2571597Y5896254D01*
X2557678Y5889955D01*
X2544673Y5882081D01*
X2532735Y5872734D01*
X2521966Y5861964D01*
X2512618Y5850026D01*
X2504744Y5837021D01*
X2498496Y5823153D01*
X2493975Y5808624D01*
X2491232Y5793689D01*
X2490317Y5778500D01*
X2491232Y5763310D01*
X2493975Y5748375D01*
X2498496Y5733846D01*
X2504744Y5719978D01*
X2512618Y5706973D01*
X2521966Y5695035D01*
X2532735Y5684266D01*
X2544673Y5674918D01*
X2557678Y5667044D01*
X2571597Y5660745D01*
X2586075Y5656275D01*
X2601010Y5653532D01*
G37*
G36*
X4196537Y5920079D02*
G01*
X4198721Y5921044D01*
X4211726Y5928918D01*
X4223664Y5938266D01*
X4234434Y5949035D01*
X4243781Y5960973D01*
X4251655Y5973978D01*
X4252620Y5976162D01*
X4196537Y5976162D01*
G37*
G36*
X4083862Y5920079D02*
G01*
X4083862Y5976162D01*
X4027779Y5976162D01*
X4028744Y5973978D01*
X4036618Y5960973D01*
X4045965Y5949035D01*
X4056735Y5938266D01*
X4068673Y5928918D01*
X4081678Y5921044D01*
G37*
G36*
X4027779Y6088837D02*
G01*
X4083862Y6088837D01*
X4083862Y6144920D01*
X4081678Y6143955D01*
X4068673Y6136081D01*
X4056735Y6126734D01*
X4045965Y6115964D01*
X4036618Y6104026D01*
X4028744Y6091021D01*
G37*
G36*
X4196537Y6088837D02*
G01*
X4252620Y6088837D01*
X4251655Y6091021D01*
X4243781Y6104026D01*
X4234434Y6115964D01*
X4223664Y6126734D01*
X4211726Y6136081D01*
X4198721Y6143955D01*
X4196537Y6144920D01*
G37*
G36*
X4140200Y6160617D02*
G01*
X4155389Y6161532D01*
X4170324Y6164275D01*
X4184802Y6168745D01*
X4198721Y6175044D01*
X4211726Y6182918D01*
X4223664Y6192266D01*
X4234434Y6203035D01*
X4243781Y6214973D01*
X4251655Y6227978D01*
X4257903Y6241846D01*
X4262424Y6256375D01*
X4265168Y6271310D01*
X4266082Y6286500D01*
X4265168Y6301689D01*
X4262424Y6316624D01*
X4257903Y6331153D01*
X4251655Y6345021D01*
X4243781Y6358026D01*
X4234434Y6369964D01*
X4223664Y6380734D01*
X4211726Y6390081D01*
X4198721Y6397955D01*
X4184853Y6404203D01*
X4170324Y6408724D01*
X4155389Y6411468D01*
X4140200Y6412382D01*
X4125010Y6411468D01*
X4110075Y6408724D01*
X4095546Y6404203D01*
X4081678Y6397955D01*
X4068673Y6390081D01*
X4056735Y6380734D01*
X4045965Y6369964D01*
X4036618Y6358026D01*
X4028744Y6345021D01*
X4022496Y6331153D01*
X4017975Y6316624D01*
X4015232Y6301689D01*
X4014317Y6286500D01*
X4015232Y6271310D01*
X4017975Y6256375D01*
X4022496Y6241846D01*
X4028744Y6227978D01*
X4036618Y6214973D01*
X4045965Y6203035D01*
X4056735Y6192266D01*
X4068673Y6182918D01*
X4081678Y6175044D01*
X4095597Y6168745D01*
X4110075Y6164275D01*
X4125010Y6161532D01*
G37*
G36*
X1346200Y6187592D02*
G01*
X1367028Y6188557D01*
X1387703Y6191453D01*
X1408023Y6196228D01*
X1427784Y6202832D01*
X1446885Y6211265D01*
X1465122Y6221425D01*
X1482344Y6233210D01*
X1498396Y6246571D01*
X1513128Y6261303D01*
X1526489Y6277356D01*
X1538274Y6294577D01*
X1548434Y6312814D01*
X1556867Y6331915D01*
X1563471Y6351676D01*
X1568246Y6371996D01*
X1571142Y6392672D01*
X1572107Y6413500D01*
X1571142Y6434328D01*
X1568246Y6455003D01*
X1563471Y6475323D01*
X1556867Y6495084D01*
X1548434Y6514185D01*
X1538274Y6532422D01*
X1526489Y6549644D01*
X1513128Y6565696D01*
X1498396Y6580428D01*
X1482344Y6593789D01*
X1465122Y6605574D01*
X1446885Y6615734D01*
X1427784Y6624167D01*
X1408023Y6630771D01*
X1387703Y6635546D01*
X1367028Y6638442D01*
X1346200Y6639407D01*
X1325372Y6638442D01*
X1304696Y6635546D01*
X1284376Y6630771D01*
X1264615Y6624167D01*
X1245514Y6615734D01*
X1227277Y6605574D01*
X1210056Y6593789D01*
X1194003Y6580428D01*
X1179271Y6565696D01*
X1165910Y6549644D01*
X1154125Y6532422D01*
X1143965Y6514185D01*
X1135532Y6495084D01*
X1128928Y6475323D01*
X1124153Y6455003D01*
X1121257Y6434328D01*
X1120292Y6413500D01*
X1121257Y6392672D01*
X1124153Y6371996D01*
X1128928Y6351676D01*
X1135532Y6331915D01*
X1143965Y6312814D01*
X1154125Y6294577D01*
X1165910Y6277356D01*
X1179271Y6261303D01*
X1194003Y6246571D01*
X1210056Y6233210D01*
X1227277Y6221425D01*
X1245514Y6211265D01*
X1264615Y6202832D01*
X1284376Y6196228D01*
X1304696Y6191453D01*
X1325372Y6188557D01*
G37*
G36*
X8128000Y6200292D02*
G01*
X8148828Y6201257D01*
X8169503Y6204153D01*
X8189823Y6208928D01*
X8209584Y6215532D01*
X8228685Y6223965D01*
X8246922Y6234125D01*
X8264144Y6245910D01*
X8280196Y6259271D01*
X8294928Y6274003D01*
X8308289Y6290056D01*
X8320074Y6307277D01*
X8330234Y6325514D01*
X8338667Y6344615D01*
X8345271Y6364376D01*
X8350046Y6384696D01*
X8352942Y6405372D01*
X8353907Y6426200D01*
X8352942Y6447028D01*
X8350046Y6467703D01*
X8345271Y6488023D01*
X8338667Y6507784D01*
X8330234Y6526885D01*
X8320074Y6545122D01*
X8308289Y6562344D01*
X8294928Y6578396D01*
X8280196Y6593128D01*
X8264144Y6606489D01*
X8246922Y6618274D01*
X8228685Y6628434D01*
X8209584Y6636867D01*
X8189823Y6643471D01*
X8169503Y6648246D01*
X8148828Y6651142D01*
X8128000Y6652107D01*
X8107172Y6651142D01*
X8086496Y6648246D01*
X8066176Y6643471D01*
X8046415Y6636867D01*
X8027314Y6628434D01*
X8009077Y6618274D01*
X7991856Y6606489D01*
X7975803Y6593128D01*
X7961071Y6578396D01*
X7947710Y6562344D01*
X7935925Y6545122D01*
X7925765Y6526885D01*
X7917332Y6507784D01*
X7910728Y6488023D01*
X7905953Y6467703D01*
X7903057Y6447028D01*
X7902092Y6426200D01*
X7903057Y6405372D01*
X7905953Y6384696D01*
X7910728Y6364376D01*
X7917332Y6344615D01*
X7925765Y6325514D01*
X7935925Y6307277D01*
X7947710Y6290056D01*
X7961071Y6274003D01*
X7975803Y6259271D01*
X7991856Y6245910D01*
X8009077Y6234125D01*
X8027314Y6223965D01*
X8046415Y6215532D01*
X8066176Y6208928D01*
X8086496Y6204153D01*
X8107172Y6201257D01*
G37*
G36*
X5108041Y6423304D02*
G01*
X5153609Y6423304D01*
X5159959Y6424015D01*
X5165394Y6425895D01*
X5170322Y6428994D01*
X5174386Y6433108D01*
X5177485Y6437985D01*
X5179415Y6443421D01*
X5180126Y6449771D01*
X5180126Y6487871D01*
X5108041Y6487871D01*
G37*
G36*
X4944770Y6423304D02*
G01*
X4990338Y6423304D01*
X4990338Y6487871D01*
X4918303Y6487871D01*
X4918303Y6449771D01*
X4919014Y6443421D01*
X4920894Y6437985D01*
X4923993Y6433108D01*
X4928108Y6428994D01*
X4932984Y6425895D01*
X4938471Y6424015D01*
G37*
G36*
X4918303Y6590538D02*
G01*
X4990338Y6590538D01*
X4990338Y6655104D01*
X4944770Y6655104D01*
X4938471Y6654393D01*
X4932984Y6652463D01*
X4928108Y6649415D01*
X4923993Y6645300D01*
X4920894Y6640423D01*
X4919014Y6634937D01*
X4918303Y6628638D01*
G37*
G36*
X5108041Y6590538D02*
G01*
X5180126Y6590538D01*
X5180126Y6628638D01*
X5179415Y6634937D01*
X5177485Y6640423D01*
X5174386Y6645300D01*
X5170322Y6649415D01*
X5165394Y6652463D01*
X5159959Y6654393D01*
X5153609Y6655104D01*
X5108041Y6655104D01*
G37*

%LPD*%
D10*
X1384302Y5664202D02*
G01*
X1384302Y5489120D01*
D11*
X5999225Y1549400D02*
G01*
X5981700Y1549400D01*
X5702300Y1828800D01*
X4940300Y1828800D01*
X4711700Y1587500D01*
X3861958Y1587500D01*
X3492500Y1981200D01*
X3492500Y3289300D01*
X3048000Y3733800D01*
X2628900Y3733800D01*
X2616200Y3746500D01*
X5049265Y5039105D02*
G01*
X4749800Y4739894D01*
X4749800Y4102100D01*
X4140200Y3492500D01*
X4140200Y4508500D02*
G01*
X3721100Y4089400D01*
X3721100Y2108200D01*
X5049265Y5289295D02*
G01*
X4622800Y4862829D01*
X4622800Y4229100D01*
X4140200Y3746500D01*
X5049189Y5539206D02*
G01*
X4504842Y4994859D01*
X4504842Y4365147D01*
X4140200Y4000500D01*
X5049265Y5789168D02*
G01*
X4381500Y5121402D01*
X4381500Y4495800D01*
X4140200Y4254500D01*
D10*
X2959102Y2705102D02*
G01*
X2959102Y2244067D01*
X2413002Y1697967D01*
X1384300Y5489194D02*
G01*
X2247900Y4533900D01*
X2247900Y3327400D01*
X2514091Y3150107D01*
X2851658Y3150107D01*
X3213100Y2788665D01*
X3213100Y2705100D01*
D11*
X5334000Y2400300D02*
G01*
X4991100Y2400300D01*
X4965700Y2425700D01*
X4965700Y3403600D01*
X4686300Y3683000D01*
X5791200Y2413000D02*
G01*
X5778500Y2400300D01*
X5334000Y2400300D01*
D10*
X7549184Y5289194D02*
G01*
X7493861Y5289194D01*
X6451600Y4246933D01*
X6451600Y3848100D01*
X6677205Y3233981D02*
G01*
X6451602Y3459584D01*
X6451602Y3848102D01*
D11*
X2413002Y1549402D02*
G01*
X2413002Y1697967D01*
D12*
G01*
X1384300Y5664200D03*
D13*
G01*
X1384300Y5156200D03*
G01*
X1384300Y4648200D03*
G01*
X1384300Y4140200D03*
D14*
G01*
X2413000Y1549400D03*
D15*
G01*
X2912999Y1549400D03*
G01*
X3412997Y1549400D03*
D14*
G01*
X5499100Y1549400D03*
D15*
G01*
X5999099Y1549400D03*
G01*
X6499097Y1549400D03*
D12*
G01*
X8153400Y3229610D03*
D13*
G01*
X8153400Y3729989D03*
D16*
G01*
X5334000Y3670300D03*
G01*
X5334000Y2400300D03*
G01*
X5791200Y2413000D03*
G01*
X5791200Y3683000D03*
D17*
G01*
X6972300Y2514600D03*
G01*
X6464300Y2514600D03*
G01*
X6451600Y3848100D03*
G01*
X6959600Y3848100D03*
D18*
G01*
X7549184Y5039207D03*
D19*
G01*
X7549184Y5289194D03*
G01*
X7549184Y5539206D03*
D18*
G01*
X7549184Y4789195D03*
D19*
G01*
X7549184Y5789193D03*
G01*
X7549184Y6039205D03*
G01*
X7549184Y6289192D03*
G01*
X7549184Y6539204D03*
D18*
G01*
X5049189Y4789195D03*
D19*
G01*
X5049189Y5039207D03*
G01*
X5049189Y5289194D03*
G01*
X5049189Y5539206D03*
G01*
X5049189Y5789193D03*
G01*
X5049189Y6039205D03*
G01*
X5049189Y6289192D03*
D18*
G01*
X5049189Y6539204D03*
D20*
G01*
X6931202Y3233953D03*
D21*
G01*
X6804202Y3233978D03*
G01*
X6677202Y3233978D03*
G01*
X3213100Y2705100D03*
G01*
X3086100Y2705100D03*
D20*
G01*
X2959100Y2705100D03*
D22*
G01*
X4140200Y4508500D03*
G01*
X4140200Y4762500D03*
G01*
X4140200Y5016500D03*
G01*
X4140200Y5270500D03*
G01*
X3886200Y5143500D03*
G01*
X3886200Y5397500D03*
G01*
X2616200Y5270500D03*
G01*
X2616200Y5016500D03*
G01*
X2616200Y4762500D03*
G01*
X2616200Y4508500D03*
G01*
X2616200Y4254500D03*
G01*
X2616200Y4000500D03*
G01*
X2616200Y3746500D03*
G01*
X2616200Y3492500D03*
G01*
X4140200Y3492500D03*
G01*
X4140200Y3746500D03*
G01*
X4140200Y4000500D03*
G01*
X4140200Y4254500D03*
G01*
X2616200Y5524500D03*
G01*
X4140200Y6032500D03*
G01*
X4140200Y6286500D03*
G01*
X4140200Y5778500D03*
G01*
X2616200Y5778500D03*
G01*
X2616200Y6032500D03*
G01*
X2616200Y6286500D03*
G01*
X4140200Y5524500D03*
D23*
G01*
X7886700Y2247900D03*
D24*
G01*
X7632700Y2247900D03*
D25*
G01*
X1346200Y6413500D03*
G01*
X8128000Y6426200D03*
G01*
X8115300Y1511300D03*
G01*
X1333500Y1511300D03*
D26*
G01*
X3721100Y2108200D03*
D27*
G01*
X4686300Y3683000D03*
M02*
