G04 Layer: BottomSilkscreenLayer*
G04 EasyEDA v6.5.47, 2024-09-23 12:58:21*
G04 38ad9990bc604fb2ba1212fbd044b429,455023a0ac88494abd61f565c8365122,10*
G04 Gerber Generator version 0.2*
G04 Scale: 100 percent, Rotated: No, Reflected: No *
G04 Dimensions in millimeters *
G04 leading zeros omitted , absolute positions ,4 integer and 5 decimal *
%FSLAX45Y45*%
%MOMM*%

%ADD10C,0.2030*%
%ADD11C,0.2032*%

%LPD*%
G36*
X6436868Y6651498D02*
G01*
X6422034Y6642455D01*
X6418884Y6624015D01*
X6430975Y6601307D01*
X6430975Y6583832D01*
X6425590Y6567779D01*
X6417056Y6558280D01*
X6409944Y6541262D01*
X6398818Y6527698D01*
X6388100Y6509969D01*
X6375552Y6496812D01*
X6367373Y6482892D01*
X6346190Y6454597D01*
X6330035Y6430772D01*
X6322161Y6424218D01*
X6312916Y6407404D01*
X6295339Y6385864D01*
X6275578Y6360261D01*
X6266637Y6350812D01*
X6257645Y6336639D01*
X6246926Y6328003D01*
X6240373Y6315456D01*
X6204559Y6271107D01*
X6204559Y6265062D01*
X6191605Y6249720D01*
X6179769Y6232093D01*
X6151473Y6198209D01*
X6143345Y6185763D01*
X6104331Y6157772D01*
X6084519Y6140907D01*
X6062675Y6124397D01*
X6048552Y6111443D01*
X6039459Y6105093D01*
X6017056Y6078575D01*
X5998210Y6054191D01*
X5981700Y6036716D01*
X5959297Y6005677D01*
X5959297Y6000902D01*
X5946292Y5990844D01*
X5934506Y5970625D01*
X5917996Y5947918D01*
X5906922Y5935726D01*
X5898032Y5918352D01*
X5893104Y5915304D01*
X5879592Y5888532D01*
X5869127Y5879084D01*
X5860542Y5862269D01*
X5853633Y5856528D01*
X5842914Y5829554D01*
X5831941Y5817768D01*
X5820156Y5801258D01*
X5807151Y5781649D01*
X5797702Y5766257D01*
X5786729Y5747004D01*
X5775807Y5735218D01*
X5765952Y5715508D01*
X5761075Y5712510D01*
X5751169Y5692800D01*
X5732830Y5668772D01*
X5732830Y5663336D01*
X5716320Y5645048D01*
X5716320Y5640578D01*
X5700014Y5621477D01*
X5690920Y5598414D01*
X5681268Y5581954D01*
X5673293Y5546547D01*
X5661609Y5523280D01*
X5656732Y5471617D01*
X5661812Y5416042D01*
X5673496Y5392978D01*
X5680760Y5365140D01*
X5690362Y5353151D01*
X5697982Y5339029D01*
X5712358Y5323890D01*
X5722264Y5307634D01*
X5741720Y5282387D01*
X5790641Y5232857D01*
X5818936Y5211978D01*
X5833110Y5198668D01*
X5854293Y5180431D01*
X5874054Y5170424D01*
X5877052Y5165598D01*
X5894425Y5156708D01*
X5911189Y5140909D01*
X5925058Y5132628D01*
X5941568Y5121097D01*
X5959856Y5107889D01*
X5979312Y5092446D01*
X5992977Y5084267D01*
X6034786Y5047894D01*
X6045352Y5042458D01*
X6062218Y5025339D01*
X6084062Y5005273D01*
X6088126Y5005273D01*
X6098387Y4987036D01*
X6105855Y4980838D01*
X6114542Y4964023D01*
X6131458Y4945735D01*
X6131458Y4939385D01*
X6144768Y4923891D01*
X6152997Y4902962D01*
X6165646Y4886960D01*
X6185712Y4865878D01*
X6185712Y4860544D01*
X6211722Y4821783D01*
X6219088Y4815687D01*
X6233058Y4789474D01*
X6243472Y4773625D01*
X6260388Y4754067D01*
X6263132Y4746447D01*
X6285280Y4713986D01*
X6302451Y4694682D01*
X6328054Y4658715D01*
X6343243Y4651502D01*
X6354876Y4651502D01*
X6367170Y4661204D01*
X6372453Y4680661D01*
X6364935Y4739944D01*
X6355638Y4890871D01*
X6350812Y4923891D01*
X6344005Y4961737D01*
X6338925Y5053634D01*
X6334048Y5122011D01*
X6324041Y5199837D01*
X6323838Y5334304D01*
X6336233Y5371998D01*
X6343853Y5409692D01*
X6355842Y5426964D01*
X6365087Y5457952D01*
X6369913Y5460898D01*
X6381699Y5487568D01*
X6392926Y5499404D01*
X6402273Y5521248D01*
X6407861Y5524703D01*
X6419088Y5548884D01*
X6433718Y5565444D01*
X6457340Y5598464D01*
X6460845Y5604662D01*
X6481165Y5609234D01*
X6499047Y5597398D01*
X6520637Y5591962D01*
X6541465Y5578195D01*
X6575196Y5568848D01*
X6586016Y5561787D01*
X6620814Y5554573D01*
X6653834Y5538622D01*
X6689242Y5533491D01*
X6729323Y5521807D01*
X6785914Y5515152D01*
X6811772Y5504942D01*
X6860235Y5501030D01*
X6909155Y5504942D01*
X6926376Y5512155D01*
X6974636Y5522264D01*
X6990029Y5531104D01*
X7015937Y5538673D01*
X7028840Y5549493D01*
X7059523Y5564276D01*
X7086752Y5580532D01*
X7102500Y5596077D01*
X7122617Y5610250D01*
X7139686Y5626506D01*
X7165644Y5649518D01*
X7190435Y5673801D01*
X7190435Y5679592D01*
X7206691Y5691987D01*
X7221067Y5717489D01*
X7221067Y5735929D01*
X7204151Y5761177D01*
X7176465Y5775350D01*
X7152487Y5788456D01*
X7131100Y5804814D01*
X7125563Y5804814D01*
X7109256Y5815431D01*
X7078370Y5832805D01*
X7052716Y5845251D01*
X7038543Y5857138D01*
X7014718Y5868670D01*
X6998208Y5877560D01*
X6978142Y5885738D01*
X6978142Y5889752D01*
X6925106Y5915202D01*
X6910273Y5918301D01*
X6885330Y5936894D01*
X6881622Y5936894D01*
X6858304Y5957570D01*
X6853986Y5959297D01*
X6832193Y6004102D01*
X6829044Y6021882D01*
X6815480Y6041847D01*
X6807911Y6064402D01*
X6791807Y6091072D01*
X6791604Y6096101D01*
X6769404Y6120282D01*
X6744970Y6132576D01*
X6741871Y6137605D01*
X6717080Y6148578D01*
X6714236Y6156045D01*
X6689242Y6168644D01*
X6675881Y6179820D01*
X6669176Y6179820D01*
X6651345Y6195974D01*
X6630263Y6204204D01*
X6617462Y6214770D01*
X6592671Y6223000D01*
X6574586Y6236106D01*
X6559499Y6239357D01*
X6546697Y6245860D01*
X6508800Y6283401D01*
X6508800Y6288582D01*
X6496710Y6314135D01*
X6491732Y6346088D01*
X6494373Y6435699D01*
X6503720Y6486144D01*
X6509410Y6551269D01*
X6506565Y6586677D01*
X6486093Y6627723D01*
X6464503Y6646773D01*
X6453378Y6651193D01*
G37*
G36*
X4975402Y4553864D02*
G01*
X4942840Y4553458D01*
X4938522Y4549394D01*
X4937556Y4510176D01*
X4939233Y4501337D01*
X4942789Y4497781D01*
X4981854Y4496511D01*
X5005679Y4493361D01*
X5012994Y4489450D01*
X5018684Y4485284D01*
X5020818Y4485284D01*
X5024018Y4483658D01*
X5033619Y4479848D01*
X5033619Y4477969D01*
X5036261Y4477969D01*
X5038699Y4474667D01*
X5047640Y4469688D01*
X5049672Y4469688D01*
X5054244Y4464151D01*
X5060086Y4458258D01*
X5065725Y4453991D01*
X5065725Y4451451D01*
X5070144Y4444949D01*
X5077307Y4436262D01*
X5082489Y4424324D01*
X5088686Y4417974D01*
X5089702Y4413300D01*
X5092242Y4405071D01*
X5094020Y4394962D01*
X5097018Y4386732D01*
X5100726Y4370222D01*
X5099812Y4348226D01*
X5097627Y4336288D01*
X5093208Y4324807D01*
X5093208Y4320133D01*
X5089347Y4304385D01*
X5082692Y4295038D01*
X5081320Y4294428D01*
X5081270Y4291380D01*
X5077002Y4282186D01*
X5070551Y4276394D01*
X5064455Y4265828D01*
X5051501Y4252163D01*
X5041442Y4244441D01*
X5034584Y4241190D01*
X5029454Y4235399D01*
X5019649Y4231335D01*
X5016398Y4231335D01*
X5007102Y4223969D01*
X5000142Y4221378D01*
X4990998Y4219498D01*
X4978146Y4218482D01*
X4969154Y4215739D01*
X4943551Y4215739D01*
X4903876Y4223207D01*
X4892903Y4228795D01*
X4878832Y4235246D01*
X4870958Y4243222D01*
X4867859Y4243222D01*
X4851196Y4259173D01*
X4851196Y4261307D01*
X4847488Y4265676D01*
X4842205Y4271365D01*
X4838903Y4278528D01*
X4831638Y4287367D01*
X4827219Y4308805D01*
X4823663Y4323994D01*
X4823663Y4352188D01*
X4827320Y4363821D01*
X4827320Y4369460D01*
X4831943Y4384903D01*
X4835601Y4387392D01*
X4835601Y4389932D01*
X4837074Y4389932D01*
X4840274Y4396638D01*
X4845202Y4401870D01*
X4848301Y4401870D01*
X4859172Y4394606D01*
X4864252Y4388561D01*
X4902504Y4349597D01*
X4902504Y4348124D01*
X4907584Y4344416D01*
X4918100Y4342333D01*
X4925618Y4350410D01*
X4933594Y4355134D01*
X4935982Y4360062D01*
X4946091Y4367123D01*
X4947361Y4370578D01*
X4945938Y4383836D01*
X4941671Y4386732D01*
X4924958Y4404360D01*
X4923078Y4406900D01*
X4921859Y4410100D01*
X4919827Y4410100D01*
X4913985Y4415332D01*
X4911090Y4418888D01*
X4909921Y4422038D01*
X4907889Y4422038D01*
X4902047Y4427270D01*
X4899202Y4430826D01*
X4897983Y4433925D01*
X4895951Y4433925D01*
X4893259Y4436668D01*
X4891074Y4438091D01*
X4886960Y4443933D01*
X4886960Y4445050D01*
X4881880Y4449470D01*
X4879543Y4449521D01*
X4878070Y4453534D01*
X4866284Y4466996D01*
X4848250Y4485284D01*
X4845100Y4485284D01*
X4835144Y4479899D01*
X4831486Y4476242D01*
X4826863Y4469739D01*
X4825034Y4469688D01*
X4819091Y4464100D01*
X4819091Y4462526D01*
X4807559Y4450892D01*
X4801362Y4442206D01*
X4799838Y4442206D01*
X4799838Y4439564D01*
X4796129Y4436973D01*
X4791608Y4427982D01*
X4791557Y4426458D01*
X4784039Y4419447D01*
X4778806Y4399026D01*
X4775352Y4394047D01*
X4771491Y4383989D01*
X4767478Y4354068D01*
X4768494Y4313377D01*
X4771440Y4296867D01*
X4773218Y4288078D01*
X4779670Y4278020D01*
X4779670Y4275785D01*
X4784039Y4263288D01*
X4787595Y4259275D01*
X4791557Y4253484D01*
X4791557Y4251350D01*
X4796129Y4241850D01*
X4803495Y4233824D01*
X4803495Y4232503D01*
X4807153Y4229201D01*
X4807153Y4227423D01*
X4818278Y4215536D01*
X4819954Y4211167D01*
X4822545Y4211167D01*
X4835398Y4199229D01*
X4837277Y4199229D01*
X4839716Y4196943D01*
X4850333Y4189984D01*
X4851349Y4187291D01*
X4853482Y4187291D01*
X4862525Y4182719D01*
X4868621Y4176064D01*
X4888331Y4170934D01*
X4900726Y4164228D01*
X4931410Y4159859D01*
X4982768Y4159808D01*
X5001107Y4162704D01*
X5013756Y4164380D01*
X5016652Y4166819D01*
X5024018Y4171035D01*
X5036413Y4173626D01*
X5044694Y4177182D01*
X5045760Y4179976D01*
X5048097Y4179976D01*
X5050332Y4182668D01*
X5061204Y4188409D01*
X5067096Y4193794D01*
X5077206Y4199483D01*
X5082540Y4206646D01*
X5088788Y4209592D01*
X5101183Y4221683D01*
X5106212Y4230471D01*
X5110581Y4232148D01*
X5116322Y4240022D01*
X5117388Y4242612D01*
X5124348Y4248861D01*
X5125516Y4252874D01*
X5130139Y4262577D01*
X5134965Y4267708D01*
X5136997Y4272127D01*
X5141010Y4287723D01*
X5144668Y4294124D01*
X5148935Y4303268D01*
X5154015Y4349699D01*
X5151932Y4388561D01*
X5148478Y4414418D01*
X5145125Y4421581D01*
X5144058Y4422495D01*
X5141264Y4427067D01*
X5136845Y4444847D01*
X5130342Y4453483D01*
X5126278Y4460087D01*
X5123281Y4466031D01*
X5121656Y4466031D01*
X5121656Y4468571D01*
X5117185Y4471466D01*
X5114848Y4477969D01*
X5113375Y4477969D01*
X5113375Y4480356D01*
X5105146Y4486554D01*
X5104180Y4489602D01*
X5097373Y4496511D01*
X5093208Y4498086D01*
X5093208Y4500473D01*
X5086502Y4507433D01*
X5081778Y4509973D01*
X5077206Y4516374D01*
X5069992Y4519625D01*
X5060035Y4529277D01*
X5058054Y4529277D01*
X5046065Y4534103D01*
X5044186Y4536338D01*
X5037582Y4541215D01*
X5033873Y4541215D01*
X5014823Y4545533D01*
X5006594Y4549292D01*
X4997399Y4552442D01*
G37*
G36*
X7087870Y4548987D02*
G01*
X7085228Y4545330D01*
X7084110Y4544415D01*
X7079640Y4530699D01*
X7072223Y4519676D01*
X7068159Y4506722D01*
X7068159Y4504080D01*
X7060539Y4492142D01*
X7059168Y4486656D01*
X7054392Y4473854D01*
X7052564Y4473194D01*
X7052564Y4470704D01*
X7049211Y4468876D01*
X7045096Y4457344D01*
X7043674Y4451807D01*
X7039406Y4444492D01*
X7037120Y4441698D01*
X7035292Y4434382D01*
X7032040Y4423410D01*
X7025589Y4414215D01*
X7024522Y4413300D01*
X7020255Y4399584D01*
X7016343Y4392218D01*
X7013194Y4388510D01*
X7009739Y4377537D01*
X7008469Y4371136D01*
X7006488Y4366107D01*
X7004913Y4366107D01*
X7004913Y4363415D01*
X7001306Y4361484D01*
X6999579Y4355541D01*
X6994804Y4342739D01*
X6992975Y4342130D01*
X6992975Y4339742D01*
X6989165Y4337202D01*
X6983933Y4315714D01*
X6980250Y4310329D01*
X7036206Y4310329D01*
X7039000Y4319778D01*
X7044181Y4329887D01*
X7048957Y4346295D01*
X7051446Y4349140D01*
X7056221Y4358284D01*
X7056221Y4360926D01*
X7061047Y4372965D01*
X7063638Y4375708D01*
X7067296Y4380179D01*
X7071918Y4400245D01*
X7079792Y4411472D01*
X7081113Y4416958D01*
X7084822Y4425340D01*
X7087920Y4427270D01*
X7091984Y4424578D01*
X7091984Y4422038D01*
X7093610Y4422038D01*
X7103922Y4407814D01*
X7103922Y4404512D01*
X7107885Y4392218D01*
X7110679Y4386732D01*
X7111746Y4385818D01*
X7115809Y4377537D01*
X7120686Y4363262D01*
X7124090Y4361434D01*
X7124090Y4358894D01*
X7125970Y4358284D01*
X7132370Y4339945D01*
X7136028Y4337456D01*
X7136028Y4334916D01*
X7137552Y4334916D01*
X7141514Y4321810D01*
X7141514Y4310837D01*
X7136841Y4306519D01*
X7040321Y4306519D01*
X7036206Y4310329D01*
X6980250Y4310329D01*
X6977989Y4306976D01*
X6976872Y4306062D01*
X6972350Y4292295D01*
X6964934Y4281271D01*
X6960870Y4268317D01*
X6960870Y4265676D01*
X6953300Y4253788D01*
X6951929Y4248302D01*
X6947153Y4235450D01*
X6945325Y4234840D01*
X6945325Y4232300D01*
X6941921Y4230471D01*
X6937044Y4215790D01*
X6937044Y4212894D01*
X6932879Y4205173D01*
X6929780Y4200550D01*
X6924649Y4185005D01*
X6918401Y4175861D01*
X6917283Y4174947D01*
X6914845Y4167378D01*
X6916724Y4163923D01*
X6920585Y4160418D01*
X6968032Y4159554D01*
X6974941Y4164787D01*
X6977481Y4170984D01*
X6981240Y4174947D01*
X6984746Y4181754D01*
X6984746Y4184751D01*
X6988708Y4197858D01*
X6996328Y4208830D01*
X6998360Y4216196D01*
X7001052Y4223512D01*
X7007402Y4235500D01*
X7008672Y4241190D01*
X7012228Y4244441D01*
X7012279Y4246422D01*
X7017258Y4250131D01*
X7159396Y4250690D01*
X7170420Y4248454D01*
X7173874Y4246118D01*
X7177989Y4238802D01*
X7180173Y4232198D01*
X7183678Y4230319D01*
X7183678Y4228439D01*
X7186269Y4225848D01*
X7191095Y4209796D01*
X7199071Y4194200D01*
X7203338Y4180433D01*
X7207250Y4175861D01*
X7211212Y4170070D01*
X7211212Y4167124D01*
X7218527Y4159808D01*
X7249414Y4159808D01*
X7266076Y4160977D01*
X7271918Y4166311D01*
X7270648Y4173016D01*
X7266889Y4180433D01*
X7262520Y4185615D01*
X7262520Y4188358D01*
X7259015Y4196943D01*
X7257948Y4201871D01*
X7255205Y4204614D01*
X7255205Y4206494D01*
X7251953Y4208221D01*
X7247178Y4220768D01*
X7246061Y4225696D01*
X7243267Y4228439D01*
X7243267Y4230319D01*
X7239660Y4232249D01*
X7235037Y4247438D01*
X7235037Y4250842D01*
X7230109Y4257446D01*
X7227214Y4260342D01*
X7222845Y4277614D01*
X7215327Y4287723D01*
X7212888Y4294124D01*
X7210958Y4301439D01*
X7203389Y4311548D01*
X7201001Y4317949D01*
X7199020Y4325315D01*
X7191044Y4336186D01*
X7191044Y4338929D01*
X7185253Y4358741D01*
X7183678Y4358741D01*
X7183678Y4361434D01*
X7180427Y4363212D01*
X7175652Y4375708D01*
X7174534Y4380636D01*
X7171791Y4383379D01*
X7171791Y4385310D01*
X7168489Y4387037D01*
X7163714Y4399584D01*
X7162596Y4404461D01*
X7159853Y4407204D01*
X7159853Y4409135D01*
X7156246Y4411065D01*
X7151624Y4426254D01*
X7151624Y4429658D01*
X7146696Y4436262D01*
X7143800Y4439107D01*
X7139431Y4456430D01*
X7131913Y4466488D01*
X7129475Y4472889D01*
X7127494Y4480255D01*
X7119975Y4490313D01*
X7117537Y4496765D01*
X7115556Y4504080D01*
X7107580Y4514951D01*
X7107580Y4517694D01*
X7101789Y4537557D01*
X7100265Y4537557D01*
X7100265Y4540199D01*
X7096404Y4541418D01*
X7092594Y4544415D01*
G37*
G36*
X7516977Y4544669D02*
G01*
X7509713Y4539843D01*
X7507224Y4537557D01*
X7504938Y4537557D01*
X7500924Y4529582D01*
X7500924Y4526483D01*
X7497267Y4516069D01*
X7497267Y4512157D01*
X7489342Y4496714D01*
X7485430Y4480255D01*
X7484313Y4474413D01*
X7481671Y4472228D01*
X7481671Y4470704D01*
X7477099Y4465777D01*
X7476998Y4461916D01*
X7472934Y4446219D01*
X7469733Y4441342D01*
X7469733Y4438650D01*
X7467955Y4437532D01*
X7465415Y4431639D01*
X7461199Y4412386D01*
X7454138Y4400956D01*
X7452106Y4391507D01*
X7449566Y4385411D01*
X7449566Y4381042D01*
X7441641Y4365599D01*
X7437729Y4349140D01*
X7436612Y4343298D01*
X7433970Y4341114D01*
X7433970Y4339590D01*
X7429398Y4334662D01*
X7429296Y4330801D01*
X7425283Y4315104D01*
X7422083Y4310227D01*
X7422083Y4307890D01*
X7411212Y4302810D01*
X7408722Y4302810D01*
X7405878Y4308805D01*
X7401915Y4321048D01*
X7401915Y4324451D01*
X7394092Y4335373D01*
X7391603Y4341774D01*
X7389825Y4350969D01*
X7387894Y4358741D01*
X7386320Y4358741D01*
X7386320Y4361434D01*
X7382713Y4363364D01*
X7378090Y4378553D01*
X7378090Y4381754D01*
X7373874Y4389475D01*
X7370267Y4394911D01*
X7367828Y4401413D01*
X7365796Y4409643D01*
X7358888Y4419955D01*
X7356246Y4430725D01*
X7354011Y4437176D01*
X7350150Y4445406D01*
X7349032Y4446320D01*
X7346086Y4451807D01*
X7342022Y4468317D01*
X7334046Y4479239D01*
X7334046Y4482998D01*
X7328611Y4501286D01*
X7326731Y4501946D01*
X7326731Y4504486D01*
X7323124Y4506417D01*
X7318451Y4521606D01*
X7318451Y4525162D01*
X7314844Y4529734D01*
X7314793Y4531918D01*
X7310831Y4533188D01*
X7307021Y4536744D01*
X7301128Y4539538D01*
X7262977Y4538522D01*
X7254646Y4537405D01*
X7257135Y4526076D01*
X7261555Y4512360D01*
X7263130Y4502251D01*
X7270089Y4493006D01*
X7274966Y4478274D01*
X7278522Y4472889D01*
X7282688Y4465218D01*
X7282688Y4462018D01*
X7287361Y4446828D01*
X7290968Y4444898D01*
X7290968Y4442206D01*
X7292441Y4442206D01*
X7294625Y4436110D01*
X7294625Y4432350D01*
X7299147Y4418482D01*
X7306157Y4409236D01*
X7310577Y4391304D01*
X7313371Y4386732D01*
X7314336Y4385818D01*
X7317587Y4379925D01*
X7323175Y4362907D01*
X7326630Y4359198D01*
X7330338Y4350969D01*
X7330389Y4347311D01*
X7334707Y4335018D01*
X7338161Y4329887D01*
X7342327Y4322165D01*
X7342327Y4319574D01*
X7346899Y4305452D01*
X7352436Y4298594D01*
X7357008Y4285996D01*
X7358125Y4276344D01*
X7366152Y4265676D01*
X7366203Y4262932D01*
X7371486Y4247540D01*
X7374381Y4245914D01*
X7374381Y4243984D01*
X7378090Y4239310D01*
X7378090Y4235551D01*
X7382713Y4220362D01*
X7386320Y4218432D01*
X7386320Y4215739D01*
X7387844Y4215739D01*
X7389977Y4208627D01*
X7389977Y4204258D01*
X7394397Y4191762D01*
X7397953Y4187748D01*
X7401610Y4182262D01*
X7405725Y4165752D01*
X7408519Y4160164D01*
X7414717Y4156151D01*
X7417053Y4156100D01*
X7420609Y4153357D01*
X7422083Y4153357D01*
X7422083Y4155389D01*
X7425436Y4160265D01*
X7430211Y4182008D01*
X7433157Y4185005D01*
X7436815Y4189476D01*
X7437526Y4193286D01*
X7441539Y4210608D01*
X7448296Y4223512D01*
X7453426Y4244594D01*
X7461199Y4257446D01*
X7465415Y4276699D01*
X7467955Y4282592D01*
X7469733Y4283710D01*
X7469733Y4286504D01*
X7473137Y4291380D01*
X7477912Y4313123D01*
X7481214Y4316476D01*
X7483246Y4319016D01*
X7485075Y4322521D01*
X7486345Y4334154D01*
X7489240Y4340860D01*
X7496251Y4355541D01*
X7501128Y4375708D01*
X7507579Y4386275D01*
X7509154Y4386275D01*
X7509154Y4388713D01*
X7512862Y4392066D01*
X7512862Y4394250D01*
X7517079Y4396130D01*
X7520279Y4392218D01*
X7521295Y4387646D01*
X7524750Y4375505D01*
X7524750Y4371848D01*
X7528864Y4365599D01*
X7533030Y4358030D01*
X7533030Y4354728D01*
X7537653Y4339539D01*
X7541259Y4337608D01*
X7541259Y4335068D01*
X7542987Y4334459D01*
X7548981Y4307890D01*
X7551775Y4303268D01*
X7552740Y4302353D01*
X7555788Y4296867D01*
X7559598Y4285996D01*
X7560716Y4276699D01*
X7568793Y4264609D01*
X7568793Y4260342D01*
X7572756Y4245610D01*
X7577023Y4241647D01*
X7577023Y4239564D01*
X7578547Y4239564D01*
X7580680Y4232452D01*
X7580680Y4227779D01*
X7585506Y4212539D01*
X7588758Y4208830D01*
X7591856Y4202684D01*
X7594498Y4193286D01*
X7596936Y4180382D01*
X7604150Y4170781D01*
X7608265Y4152696D01*
X7611719Y4149598D01*
X7616190Y4152493D01*
X7621371Y4163009D01*
X7627975Y4173118D01*
X7632090Y4188663D01*
X7632039Y4191609D01*
X7636154Y4196181D01*
X7639456Y4201972D01*
X7642250Y4211624D01*
X7644942Y4222394D01*
X7651800Y4232706D01*
X7655915Y4248302D01*
X7655864Y4251198D01*
X7659979Y4255770D01*
X7663332Y4261561D01*
X7666075Y4271213D01*
X7668818Y4281982D01*
X7675676Y4292295D01*
X7679740Y4307890D01*
X7679690Y4310837D01*
X7683855Y4315358D01*
X7687157Y4321149D01*
X7689900Y4330801D01*
X7692644Y4341571D01*
X7699502Y4351883D01*
X7703566Y4367479D01*
X7703566Y4370425D01*
X7707680Y4374946D01*
X7710982Y4380788D01*
X7713725Y4390390D01*
X7716469Y4401159D01*
X7723327Y4411472D01*
X7727442Y4427067D01*
X7727391Y4430014D01*
X7731506Y4434586D01*
X7734808Y4440377D01*
X7737602Y4449978D01*
X7740294Y4460748D01*
X7747152Y4471060D01*
X7751267Y4486656D01*
X7751216Y4489602D01*
X7755381Y4494174D01*
X7758684Y4499965D01*
X7761427Y4509566D01*
X7764170Y4520488D01*
X7767726Y4525467D01*
X7767726Y4537354D01*
X7763611Y4538624D01*
X7721193Y4539640D01*
X7715453Y4537100D01*
X7715453Y4536084D01*
X7712202Y4532528D01*
X7704734Y4523079D01*
X7699654Y4506823D01*
X7695793Y4499051D01*
X7695285Y4497679D01*
X7691780Y4492142D01*
X7691628Y4488484D01*
X7687970Y4478426D01*
X7687970Y4474210D01*
X7683144Y4464659D01*
X7679944Y4460087D01*
X7675778Y4442663D01*
X7674000Y4437634D01*
X7672374Y4437634D01*
X7672374Y4435094D01*
X7668564Y4432554D01*
X7663332Y4411116D01*
X7656118Y4400499D01*
X7651953Y4383074D01*
X7650175Y4377994D01*
X7648549Y4377994D01*
X7648549Y4375912D01*
X7644231Y4371949D01*
X7642961Y4363821D01*
X7640066Y4351883D01*
X7637525Y4348988D01*
X7632039Y4337659D01*
X7632039Y4333240D01*
X7628381Y4324705D01*
X7628381Y4321962D01*
X7623606Y4311548D01*
X7622286Y4310634D01*
X7614818Y4299559D01*
X7612329Y4297476D01*
X7609433Y4299610D01*
X7604556Y4314850D01*
X7604556Y4317542D01*
X7600492Y4326229D01*
X7599425Y4327144D01*
X7596631Y4331716D01*
X7592212Y4350054D01*
X7585506Y4360164D01*
X7580579Y4381246D01*
X7576616Y4389475D01*
X7572857Y4394962D01*
X7570368Y4401413D01*
X7568590Y4410557D01*
X7566710Y4418380D01*
X7565085Y4418380D01*
X7565085Y4420362D01*
X7560919Y4425340D01*
X7556550Y4444492D01*
X7549286Y4454398D01*
X7546949Y4467606D01*
X7544917Y4471416D01*
X7544917Y4475327D01*
X7540040Y4483912D01*
X7537856Y4486656D01*
X7533030Y4501896D01*
X7533030Y4506620D01*
X7530896Y4513732D01*
X7529372Y4513732D01*
X7529372Y4516424D01*
X7525715Y4518355D01*
X7521092Y4533544D01*
X7521092Y4536643D01*
G37*
G36*
X6469888Y4543958D02*
G01*
X6435394Y4540351D01*
X6427724Y4536694D01*
X6421323Y4533036D01*
X6405727Y4529074D01*
X6402070Y4527397D01*
X6394958Y4521047D01*
X6393281Y4521047D01*
X6381445Y4513275D01*
X6381445Y4465929D01*
X6384086Y4460748D01*
X6388303Y4459630D01*
X6396228Y4459630D01*
X6400241Y4461713D01*
X6409131Y4469688D01*
X6412128Y4469739D01*
X6416751Y4473346D01*
X6418783Y4473346D01*
X6423152Y4476750D01*
X6432296Y4481474D01*
X6451549Y4485386D01*
X6465620Y4489958D01*
X6482740Y4491888D01*
X6494678Y4490770D01*
X6503822Y4489145D01*
X6516674Y4485335D01*
X6538315Y4480458D01*
X6540855Y4477969D01*
X6542836Y4477969D01*
X6543954Y4475073D01*
X6557924Y4468520D01*
X6565493Y4461459D01*
X6566712Y4461459D01*
X6590944Y4437176D01*
X6595516Y4425696D01*
X6596481Y4425696D01*
X6603085Y4419752D01*
X6607200Y4405985D01*
X6615125Y4389475D01*
X6618122Y4363821D01*
X6619138Y4349648D01*
X6617004Y4322521D01*
X6614972Y4305147D01*
X6610603Y4295038D01*
X6607098Y4289552D01*
X6606997Y4286250D01*
X6601510Y4274515D01*
X6595313Y4268470D01*
X6590487Y4259275D01*
X6582664Y4251756D01*
X6575704Y4243222D01*
X6573266Y4243222D01*
X6568033Y4236567D01*
X6563410Y4232605D01*
X6557924Y4230370D01*
X6551218Y4224020D01*
X6543243Y4221073D01*
X6535826Y4218940D01*
X6531356Y4215942D01*
X6527088Y4211878D01*
X6505651Y4208373D01*
X6471716Y4207256D01*
X6441541Y4211421D01*
X6430721Y4219397D01*
X6426606Y4219397D01*
X6416751Y4223359D01*
X6408420Y4231335D01*
X6406083Y4231335D01*
X6398310Y4236669D01*
X6395872Y4239564D01*
X6390741Y4239564D01*
X6385610Y4241495D01*
X6381445Y4239260D01*
X6381496Y4191406D01*
X6386017Y4182262D01*
X6386068Y4180433D01*
X6389573Y4176268D01*
X6399834Y4171746D01*
X6402273Y4171746D01*
X6417665Y4163669D01*
X6431381Y4160723D01*
X6444234Y4158843D01*
X6460744Y4155389D01*
X6468973Y4152239D01*
X6500164Y4153306D01*
X6510781Y4156151D01*
X6515049Y4156151D01*
X6523075Y4158996D01*
X6537756Y4160824D01*
X6551371Y4164380D01*
X6554266Y4166819D01*
X6561581Y4171086D01*
X6567119Y4172458D01*
X6576720Y4176014D01*
X6584442Y4183634D01*
X6586829Y4183634D01*
X6595567Y4188206D01*
X6609486Y4200601D01*
X6620154Y4211167D01*
X6621576Y4211167D01*
X6627164Y4217111D01*
X6627164Y4218584D01*
X6634276Y4226255D01*
X6638594Y4231792D01*
X6640931Y4235450D01*
X6643522Y4240936D01*
X6650990Y4247743D01*
X6650990Y4249572D01*
X6654647Y4256125D01*
X6654647Y4258564D01*
X6658305Y4261866D01*
X6662928Y4271873D01*
X6662928Y4275785D01*
X6666585Y4285843D01*
X6666585Y4290060D01*
X6670294Y4297375D01*
X6675221Y4315206D01*
X6675120Y4380331D01*
X6671005Y4395876D01*
X6668770Y4398670D01*
X6666788Y4403242D01*
X6662521Y4421581D01*
X6654647Y4433468D01*
X6654647Y4435551D01*
X6650634Y4445406D01*
X6643217Y4454550D01*
X6640931Y4458258D01*
X6637020Y4465574D01*
X6631228Y4471060D01*
X6626707Y4479899D01*
X6619240Y4485690D01*
X6614769Y4491736D01*
X6606082Y4498238D01*
X6602120Y4503826D01*
X6595770Y4506468D01*
X6582867Y4517390D01*
X6580428Y4517390D01*
X6574434Y4521047D01*
X6572351Y4521047D01*
X6563614Y4529277D01*
X6559143Y4529277D01*
X6543243Y4533138D01*
X6539585Y4535373D01*
X6526733Y4540504D01*
X6491935Y4543755D01*
G37*
G36*
X5419191Y4543856D02*
G01*
X5380685Y4543044D01*
X5356809Y4540453D01*
X5344007Y4533646D01*
X5322265Y4528464D01*
X5318353Y4525162D01*
X5314645Y4521403D01*
X5304586Y4517542D01*
X5300573Y4516374D01*
X5293563Y4509414D01*
X5284978Y4504842D01*
X5280253Y4499254D01*
X5280253Y4497222D01*
X5278120Y4497222D01*
X5274665Y4494022D01*
X5268366Y4487570D01*
X5268366Y4485284D01*
X5266232Y4485284D01*
X5262727Y4482084D01*
X5256428Y4475683D01*
X5256428Y4473346D01*
X5253786Y4473346D01*
X5252313Y4470908D01*
X5248300Y4468774D01*
X5243372Y4458258D01*
X5240832Y4456785D01*
X5240832Y4454550D01*
X5237632Y4452569D01*
X5230418Y4438091D01*
X5228945Y4437481D01*
X5228945Y4435094D01*
X5225084Y4432554D01*
X5220665Y4414215D01*
X5220614Y4410557D01*
X5217058Y4405985D01*
X5217007Y4403598D01*
X5213197Y4396079D01*
X5210708Y4376623D01*
X5210317Y4372051D01*
X5268163Y4372051D01*
X5270347Y4391710D01*
X5272684Y4400651D01*
X5279948Y4411624D01*
X5281930Y4418838D01*
X5284419Y4425238D01*
X5285384Y4426153D01*
X5291734Y4434332D01*
X5297576Y4444644D01*
X5302250Y4447692D01*
X5308498Y4456988D01*
X5317388Y4461713D01*
X5324449Y4468723D01*
X5335371Y4474464D01*
X5340959Y4479544D01*
X5344922Y4481372D01*
X5359095Y4485284D01*
X5361889Y4485284D01*
X5368747Y4489551D01*
X5382514Y4493564D01*
X5421020Y4493310D01*
X5438444Y4489602D01*
X5445760Y4486097D01*
X5461863Y4480763D01*
X5469585Y4474514D01*
X5480202Y4469688D01*
X5481370Y4469688D01*
X5488838Y4461662D01*
X5492750Y4460494D01*
X5506567Y4447032D01*
X5511342Y4438091D01*
X5517642Y4433468D01*
X5523433Y4420666D01*
X5526582Y4416958D01*
X5530494Y4408728D01*
X5534406Y4391304D01*
X5538063Y4382160D01*
X5541822Y4369308D01*
X5541975Y4339945D01*
X5536946Y4322521D01*
X5534406Y4312462D01*
X5530291Y4293209D01*
X5522468Y4281271D01*
X5517794Y4271111D01*
X5509920Y4263694D01*
X5502960Y4255160D01*
X5500319Y4255160D01*
X5495544Y4247896D01*
X5489448Y4243222D01*
X5487720Y4243222D01*
X5484876Y4238955D01*
X5479237Y4233316D01*
X5472582Y4231081D01*
X5461355Y4223461D01*
X5447588Y4219194D01*
X5441188Y4216806D01*
X5422798Y4211167D01*
X5382514Y4211167D01*
X5364175Y4217670D01*
X5354980Y4220057D01*
X5343550Y4224223D01*
X5343550Y4225493D01*
X5335422Y4231335D01*
X5332069Y4231335D01*
X5327497Y4234942D01*
X5324652Y4234992D01*
X5317388Y4242409D01*
X5307888Y4247896D01*
X5306771Y4251350D01*
X5297576Y4261104D01*
X5292191Y4268978D01*
X5292191Y4269587D01*
X5286044Y4276293D01*
X5284114Y4280357D01*
X5280253Y4289856D01*
X5280253Y4293057D01*
X5278069Y4299153D01*
X5276596Y4299153D01*
X5276596Y4301337D01*
X5272684Y4305503D01*
X5269026Y4319778D01*
X5268163Y4372051D01*
X5210317Y4372051D01*
X5208676Y4352798D01*
X5210606Y4316120D01*
X5212384Y4308805D01*
X5212435Y4301439D01*
X5220665Y4284472D01*
X5220665Y4282694D01*
X5225084Y4267403D01*
X5232552Y4255617D01*
X5232603Y4253687D01*
X5237124Y4244238D01*
X5240832Y4242257D01*
X5240832Y4239717D01*
X5242356Y4239107D01*
X5246827Y4232503D01*
X5256885Y4221022D01*
X5260086Y4218076D01*
X5260086Y4215892D01*
X5266537Y4210710D01*
X5278424Y4199229D01*
X5280101Y4199229D01*
X5280710Y4197807D01*
X5292191Y4189018D01*
X5292191Y4187291D01*
X5294477Y4187291D01*
X5303164Y4182922D01*
X5309666Y4176014D01*
X5319217Y4172559D01*
X5324754Y4171086D01*
X5332984Y4166260D01*
X5338470Y4163618D01*
X5355437Y4159808D01*
X5359349Y4159808D01*
X5373319Y4156252D01*
X5387086Y4153204D01*
X5417362Y4152239D01*
X5447284Y4159808D01*
X5454040Y4159910D01*
X5470855Y4163923D01*
X5475579Y4168038D01*
X5477154Y4168038D01*
X5479440Y4170730D01*
X5486095Y4171950D01*
X5497372Y4177029D01*
X5498947Y4179519D01*
X5502605Y4181805D01*
X5506262Y4183481D01*
X5516880Y4187698D01*
X5522772Y4195521D01*
X5524246Y4195572D01*
X5530138Y4199686D01*
X5536285Y4207459D01*
X5538470Y4207459D01*
X5544058Y4213453D01*
X5548122Y4219397D01*
X5550154Y4219397D01*
X5556148Y4225950D01*
X5558536Y4231335D01*
X5559450Y4231335D01*
X5565140Y4236364D01*
X5569356Y4245356D01*
X5574131Y4251045D01*
X5577941Y4256532D01*
X5579973Y4263847D01*
X5582666Y4271213D01*
X5589016Y4283202D01*
X5593842Y4308449D01*
X5593842Y4317034D01*
X5598414Y4335932D01*
X5598414Y4370324D01*
X5596737Y4372051D01*
X5593842Y4382008D01*
X5593842Y4391304D01*
X5590184Y4406544D01*
X5590184Y4411268D01*
X5588050Y4418380D01*
X5586526Y4418380D01*
X5586526Y4421022D01*
X5583224Y4422800D01*
X5578449Y4435297D01*
X5577332Y4440224D01*
X5574588Y4442968D01*
X5574588Y4444492D01*
X5570778Y4446879D01*
X5565698Y4457649D01*
X5558078Y4466742D01*
X5558078Y4468164D01*
X5529529Y4497222D01*
X5528614Y4497222D01*
X5521147Y4504944D01*
X5517286Y4507230D01*
X5512714Y4509516D01*
X5504891Y4517390D01*
X5502960Y4517390D01*
X5493156Y4522012D01*
X5490972Y4524654D01*
X5483352Y4528972D01*
X5464098Y4533188D01*
X5459526Y4535170D01*
X5456783Y4537252D01*
X5446064Y4541215D01*
X5436616Y4541367D01*
G37*
G36*
X6707022Y4539386D02*
G01*
X6702348Y4537252D01*
X6702348Y4536084D01*
X6699046Y4532528D01*
X6696608Y4523841D01*
X6697472Y4492142D01*
X6699503Y4487214D01*
X6704634Y4484573D01*
X6777075Y4483862D01*
X6782104Y4479442D01*
X6782104Y4167124D01*
X6789420Y4159808D01*
X6824725Y4159808D01*
X6837222Y4164177D01*
X6839813Y4167581D01*
X6839915Y4477512D01*
X6843064Y4481271D01*
X6850430Y4484319D01*
X6920382Y4484827D01*
X6925157Y4489297D01*
X6925106Y4529734D01*
X6921601Y4537456D01*
X6915505Y4538472D01*
X6909104Y4539081D01*
G37*
G36*
X6074410Y4539386D02*
G01*
X6039002Y4539234D01*
X6033312Y4537100D01*
X6027978Y4532477D01*
X6023864Y4524908D01*
X6023864Y4167428D01*
X6027978Y4163720D01*
X6031636Y4162653D01*
X6039002Y4159859D01*
X6074613Y4159808D01*
X6081623Y4167276D01*
X6081623Y4322521D01*
X6082741Y4334459D01*
X6087567Y4338116D01*
X6229146Y4338675D01*
X6239205Y4334052D01*
X6241542Y4329887D01*
X6243828Y4321606D01*
X6243980Y4166666D01*
X6246215Y4163923D01*
X6253784Y4159808D01*
X6289294Y4159859D01*
X6293866Y4163415D01*
X6296101Y4163466D01*
X6297980Y4167022D01*
X6297980Y4525162D01*
X6295999Y4532325D01*
X6293408Y4534916D01*
X6293408Y4537100D01*
X6289294Y4539183D01*
X6254089Y4539386D01*
X6249416Y4537252D01*
X6249416Y4536084D01*
X6246063Y4532477D01*
X6244437Y4527905D01*
X6243218Y4402328D01*
X6241846Y4394454D01*
X6232956Y4389932D01*
X6091224Y4390136D01*
X6085941Y4391304D01*
X6082080Y4396486D01*
X6081064Y4526991D01*
X6077508Y4536338D01*
G37*
G36*
X5919774Y4539132D02*
G01*
X5844590Y4538573D01*
X5822594Y4536948D01*
X5806998Y4532985D01*
X5798769Y4532934D01*
X5778601Y4529328D01*
X5773064Y4529277D01*
X5758434Y4521301D01*
X5741924Y4516475D01*
X5734151Y4509566D01*
X5725414Y4504994D01*
X5718098Y4497527D01*
X5713476Y4495393D01*
X5710123Y4493107D01*
X5697423Y4480509D01*
X5697423Y4479340D01*
X5687568Y4468825D01*
X5684723Y4462780D01*
X5678119Y4457344D01*
X5673445Y4447235D01*
X5672226Y4445254D01*
X5665825Y4436567D01*
X5661812Y4422495D01*
X5661710Y4417110D01*
X5653989Y4401413D01*
X5650687Y4380331D01*
X5650096Y4360062D01*
X5707278Y4360062D01*
X5711291Y4394047D01*
X5713882Y4402937D01*
X5721299Y4413961D01*
X5721299Y4417669D01*
X5725414Y4425238D01*
X5732729Y4434382D01*
X5735015Y4438091D01*
X5738723Y4444898D01*
X5743752Y4447590D01*
X5753506Y4457801D01*
X5755233Y4457801D01*
X5763006Y4462780D01*
X5770321Y4468622D01*
X5785916Y4473549D01*
X5789574Y4475226D01*
X5798769Y4481017D01*
X5828995Y4484573D01*
X5873038Y4485284D01*
X5884468Y4480407D01*
X5884468Y4477969D01*
X5886297Y4477969D01*
X5886297Y4228033D01*
X5884214Y4223512D01*
X5875375Y4219397D01*
X5826252Y4219397D01*
X5797854Y4223258D01*
X5782310Y4231335D01*
X5779820Y4231335D01*
X5770321Y4235348D01*
X5764834Y4241088D01*
X5756046Y4246880D01*
X5755182Y4246880D01*
X5736894Y4265218D01*
X5736894Y4265828D01*
X5725820Y4277512D01*
X5721299Y4287113D01*
X5721248Y4289552D01*
X5713018Y4300423D01*
X5713018Y4305147D01*
X5710174Y4316120D01*
X5708396Y4339031D01*
X5707278Y4360062D01*
X5650096Y4360062D01*
X5649518Y4341774D01*
X5651652Y4309872D01*
X5653582Y4296867D01*
X5656529Y4291380D01*
X5657646Y4290466D01*
X5660948Y4283405D01*
X5662574Y4273042D01*
X5666028Y4263339D01*
X5669635Y4259275D01*
X5673598Y4253484D01*
X5673598Y4251350D01*
X5678119Y4241850D01*
X5685536Y4233824D01*
X5685536Y4232503D01*
X5689193Y4229201D01*
X5689193Y4227474D01*
X5701131Y4214571D01*
X5701131Y4212234D01*
X5710732Y4207306D01*
X5717743Y4199229D01*
X5719622Y4199229D01*
X5734558Y4187698D01*
X5744464Y4183634D01*
X5746800Y4183634D01*
X5749290Y4181348D01*
X5757824Y4175404D01*
X5760364Y4175404D01*
X5762091Y4173829D01*
X5771235Y4171543D01*
X5783173Y4167784D01*
X5794197Y4163618D01*
X5812536Y4161688D01*
X5860338Y4159605D01*
X5929884Y4160316D01*
X5935827Y4164736D01*
X5935776Y4529734D01*
X5932322Y4537456D01*
X5926226Y4538472D01*
G37*
D10*
X2209800Y5754946D02*
G01*
X2135908Y5560984D01*
X2062017Y5754946D02*
G01*
X2135908Y5560984D01*
X1890222Y5662584D02*
G01*
X1908695Y5681055D01*
X1927166Y5690293D01*
X1954875Y5690293D01*
X1973348Y5681055D01*
X1991822Y5662584D01*
X2001057Y5634875D01*
X2001057Y5616402D01*
X1991822Y5588693D01*
X1973348Y5570220D01*
X1954875Y5560984D01*
X1927166Y5560984D01*
X1908695Y5570220D01*
X1890222Y5588693D01*
X1718424Y5662584D02*
G01*
X1736897Y5681055D01*
X1755371Y5690293D01*
X1783079Y5690293D01*
X1801553Y5681055D01*
X1820024Y5662584D01*
X1829262Y5634875D01*
X1829262Y5616402D01*
X1820024Y5588693D01*
X1801553Y5570220D01*
X1783079Y5560984D01*
X1755371Y5560984D01*
X1736897Y5570220D01*
X1718424Y5588693D01*
D11*
X2093191Y5231937D02*
G01*
X2111664Y5250411D01*
X2139373Y5259646D01*
X2176317Y5259646D01*
X2204026Y5250411D01*
X2222500Y5231937D01*
X2222500Y5213464D01*
X2213264Y5194993D01*
X2204026Y5185755D01*
X2185555Y5176520D01*
X2130135Y5158046D01*
X2111664Y5148811D01*
X2102426Y5139575D01*
X2093191Y5121102D01*
X2093191Y5093393D01*
X2111664Y5074920D01*
X2139373Y5065684D01*
X2176317Y5065684D01*
X2204026Y5074920D01*
X2222500Y5093393D01*
X1893684Y5213464D02*
G01*
X1902922Y5231937D01*
X1921395Y5250411D01*
X1939866Y5259646D01*
X1976813Y5259646D01*
X1995284Y5250411D01*
X2013757Y5231937D01*
X2022995Y5213464D01*
X2032231Y5185755D01*
X2032231Y5139575D01*
X2022995Y5111864D01*
X2013757Y5093393D01*
X1995284Y5074920D01*
X1976813Y5065684D01*
X1939866Y5065684D01*
X1921395Y5074920D01*
X1902922Y5093393D01*
X1893684Y5111864D01*
X1832724Y5259646D02*
G01*
X1832724Y5065684D01*
X1832724Y5065684D02*
G01*
X1721888Y5065684D01*
X2118591Y4749337D02*
G01*
X2137064Y4767811D01*
X2164773Y4777046D01*
X2201717Y4777046D01*
X2229426Y4767811D01*
X2247900Y4749337D01*
X2247900Y4730864D01*
X2238664Y4712393D01*
X2229426Y4703155D01*
X2210955Y4693920D01*
X2155535Y4675446D01*
X2137064Y4666211D01*
X2127826Y4656975D01*
X2118591Y4638502D01*
X2118591Y4610793D01*
X2137064Y4592320D01*
X2164773Y4583084D01*
X2201717Y4583084D01*
X2229426Y4592320D01*
X2247900Y4610793D01*
X2057631Y4777046D02*
G01*
X2057631Y4583084D01*
X2057631Y4777046D02*
G01*
X1992975Y4777046D01*
X1965266Y4767811D01*
X1946795Y4749337D01*
X1937557Y4730864D01*
X1928322Y4703155D01*
X1928322Y4656975D01*
X1937557Y4629264D01*
X1946795Y4610793D01*
X1965266Y4592320D01*
X1992975Y4583084D01*
X2057631Y4583084D01*
X1793471Y4777046D02*
G01*
X1867362Y4583084D01*
X1793471Y4777046D02*
G01*
X1719579Y4583084D01*
X1839653Y4647737D02*
G01*
X1747288Y4647737D01*
X2096655Y4172064D02*
G01*
X2105891Y4190537D01*
X2124364Y4209011D01*
X2142835Y4218246D01*
X2179782Y4218246D01*
X2198255Y4209011D01*
X2216726Y4190537D01*
X2225964Y4172064D01*
X2235200Y4144355D01*
X2235200Y4098175D01*
X2225964Y4070464D01*
X2216726Y4051993D01*
X2198255Y4033520D01*
X2179782Y4024284D01*
X2142835Y4024284D01*
X2124364Y4033520D01*
X2105891Y4051993D01*
X2096655Y4070464D01*
X2096655Y4098175D01*
X2142835Y4098175D02*
G01*
X2096655Y4098175D01*
X2035695Y4218246D02*
G01*
X2035695Y4024284D01*
X2035695Y4218246D02*
G01*
X1906384Y4024284D01*
X1906384Y4218246D02*
G01*
X1906384Y4024284D01*
X1845424Y4218246D02*
G01*
X1845424Y4024284D01*
X1845424Y4218246D02*
G01*
X1780771Y4218246D01*
X1753062Y4209011D01*
X1734588Y4190537D01*
X1725353Y4172064D01*
X1716115Y4144355D01*
X1716115Y4098175D01*
X1725353Y4070464D01*
X1734588Y4051993D01*
X1753062Y4033520D01*
X1780771Y4024284D01*
X1845424Y4024284D01*
X2516446Y1790700D02*
G01*
X2322484Y1864591D01*
X2516446Y1938482D02*
G01*
X2322484Y1864591D01*
X2424084Y2110277D02*
G01*
X2442555Y2091804D01*
X2451793Y2073333D01*
X2451793Y2045624D01*
X2442555Y2027151D01*
X2424084Y2008677D01*
X2396375Y1999442D01*
X2377902Y1999442D01*
X2350193Y2008677D01*
X2331720Y2027151D01*
X2322484Y2045624D01*
X2322484Y2073333D01*
X2331720Y2091804D01*
X2350193Y2110277D01*
X2424084Y2282075D02*
G01*
X2442555Y2263602D01*
X2451793Y2245128D01*
X2451793Y2217420D01*
X2442555Y2198946D01*
X2424084Y2180475D01*
X2396375Y2171237D01*
X2377902Y2171237D01*
X2350193Y2180475D01*
X2331720Y2198946D01*
X2322484Y2217420D01*
X2322484Y2245128D01*
X2331720Y2263602D01*
X2350193Y2282075D01*
X3062546Y1778000D02*
G01*
X2868584Y1778000D01*
X3062546Y1778000D02*
G01*
X3062546Y1842655D01*
X3053311Y1870364D01*
X3034837Y1888835D01*
X3016364Y1898073D01*
X2988655Y1907308D01*
X2942475Y1907308D01*
X2914764Y1898073D01*
X2896293Y1888835D01*
X2877820Y1870364D01*
X2868584Y1842655D01*
X2868584Y1778000D01*
X2997893Y2079104D02*
G01*
X2868584Y2079104D01*
X2970184Y2079104D02*
G01*
X2988655Y2060633D01*
X2997893Y2042160D01*
X2997893Y2014451D01*
X2988655Y1995977D01*
X2970184Y1977504D01*
X2942475Y1968268D01*
X2924002Y1968268D01*
X2896293Y1977504D01*
X2877820Y1995977D01*
X2868584Y2014451D01*
X2868584Y2042160D01*
X2877820Y2060633D01*
X2896293Y2079104D01*
X3062546Y2167775D02*
G01*
X2905528Y2167775D01*
X2877820Y2177011D01*
X2868584Y2195484D01*
X2868584Y2213955D01*
X2997893Y2140064D02*
G01*
X2997893Y2204720D01*
X2997893Y2385753D02*
G01*
X2868584Y2385753D01*
X2970184Y2385753D02*
G01*
X2988655Y2367279D01*
X2997893Y2348806D01*
X2997893Y2321097D01*
X2988655Y2302624D01*
X2970184Y2284153D01*
X2942475Y2274915D01*
X2924002Y2274915D01*
X2896293Y2284153D01*
X2877820Y2302624D01*
X2868584Y2321097D01*
X2868584Y2348806D01*
X2877820Y2367279D01*
X2896293Y2385753D01*
X3498964Y1891144D02*
G01*
X3517437Y1881908D01*
X3535911Y1863435D01*
X3545146Y1844964D01*
X3545146Y1808017D01*
X3535911Y1789544D01*
X3517437Y1771073D01*
X3498964Y1761835D01*
X3471255Y1752600D01*
X3425075Y1752600D01*
X3397364Y1761835D01*
X3378893Y1771073D01*
X3360420Y1789544D01*
X3351184Y1808017D01*
X3351184Y1844964D01*
X3360420Y1863435D01*
X3378893Y1881908D01*
X3397364Y1891144D01*
X3425075Y1891144D01*
X3425075Y1844964D02*
G01*
X3425075Y1891144D01*
X3545146Y1952104D02*
G01*
X3351184Y1952104D01*
X3545146Y1952104D02*
G01*
X3351184Y2081415D01*
X3545146Y2081415D02*
G01*
X3351184Y2081415D01*
X3545146Y2142375D02*
G01*
X3351184Y2142375D01*
X3545146Y2142375D02*
G01*
X3545146Y2207028D01*
X3535911Y2234737D01*
X3517437Y2253211D01*
X3498964Y2262446D01*
X3471255Y2271684D01*
X3425075Y2271684D01*
X3397364Y2262446D01*
X3378893Y2253211D01*
X3360420Y2234737D01*
X3351184Y2207028D01*
X3351184Y2142375D01*
X5615246Y1752600D02*
G01*
X5421284Y1826491D01*
X5615246Y1900382D02*
G01*
X5421284Y1826491D01*
X5522884Y2072177D02*
G01*
X5541355Y2053704D01*
X5550593Y2035233D01*
X5550593Y2007524D01*
X5541355Y1989051D01*
X5522884Y1970577D01*
X5495175Y1961342D01*
X5476702Y1961342D01*
X5448993Y1970577D01*
X5430520Y1989051D01*
X5421284Y2007524D01*
X5421284Y2035233D01*
X5430520Y2053704D01*
X5448993Y2072177D01*
X5522884Y2243975D02*
G01*
X5541355Y2225502D01*
X5550593Y2207028D01*
X5550593Y2179320D01*
X5541355Y2160846D01*
X5522884Y2142375D01*
X5495175Y2133137D01*
X5476702Y2133137D01*
X5448993Y2142375D01*
X5430520Y2160846D01*
X5421284Y2179320D01*
X5421284Y2207028D01*
X5430520Y2225502D01*
X5448993Y2243975D01*
X6135946Y1752600D02*
G01*
X5941984Y1752600D01*
X6135946Y1752600D02*
G01*
X6135946Y1817255D01*
X6126711Y1844964D01*
X6108237Y1863435D01*
X6089764Y1872673D01*
X6062055Y1881908D01*
X6015875Y1881908D01*
X5988164Y1872673D01*
X5969693Y1863435D01*
X5951220Y1844964D01*
X5941984Y1817255D01*
X5941984Y1752600D01*
X6071293Y2053704D02*
G01*
X5941984Y2053704D01*
X6043584Y2053704D02*
G01*
X6062055Y2035233D01*
X6071293Y2016760D01*
X6071293Y1989051D01*
X6062055Y1970577D01*
X6043584Y1952104D01*
X6015875Y1942868D01*
X5997402Y1942868D01*
X5969693Y1952104D01*
X5951220Y1970577D01*
X5941984Y1989051D01*
X5941984Y2016760D01*
X5951220Y2035233D01*
X5969693Y2053704D01*
X6135946Y2142375D02*
G01*
X5978928Y2142375D01*
X5951220Y2151611D01*
X5941984Y2170084D01*
X5941984Y2188555D01*
X6071293Y2114664D02*
G01*
X6071293Y2179320D01*
X6071293Y2360353D02*
G01*
X5941984Y2360353D01*
X6043584Y2360353D02*
G01*
X6062055Y2341879D01*
X6071293Y2323406D01*
X6071293Y2295697D01*
X6062055Y2277224D01*
X6043584Y2258753D01*
X6015875Y2249515D01*
X5997402Y2249515D01*
X5969693Y2258753D01*
X5951220Y2277224D01*
X5941984Y2295697D01*
X5941984Y2323406D01*
X5951220Y2341879D01*
X5969693Y2360353D01*
X6585064Y1891144D02*
G01*
X6603537Y1881908D01*
X6622011Y1863435D01*
X6631246Y1844964D01*
X6631246Y1808017D01*
X6622011Y1789544D01*
X6603537Y1771073D01*
X6585064Y1761835D01*
X6557355Y1752600D01*
X6511175Y1752600D01*
X6483464Y1761835D01*
X6464993Y1771073D01*
X6446520Y1789544D01*
X6437284Y1808017D01*
X6437284Y1844964D01*
X6446520Y1863435D01*
X6464993Y1881908D01*
X6483464Y1891144D01*
X6511175Y1891144D01*
X6511175Y1844964D02*
G01*
X6511175Y1891144D01*
X6631246Y1952104D02*
G01*
X6437284Y1952104D01*
X6631246Y1952104D02*
G01*
X6437284Y2081415D01*
X6631246Y2081415D02*
G01*
X6437284Y2081415D01*
X6631246Y2142375D02*
G01*
X6437284Y2142375D01*
X6631246Y2142375D02*
G01*
X6631246Y2207028D01*
X6622011Y2234737D01*
X6603537Y2253211D01*
X6585064Y2262446D01*
X6557355Y2271684D01*
X6511175Y2271684D01*
X6483464Y2262446D01*
X6464993Y2253211D01*
X6446520Y2234737D01*
X6437284Y2207028D01*
X6437284Y2142375D01*
X8418253Y3314700D02*
G01*
X8612215Y3314700D01*
X8418253Y3314700D02*
G01*
X8418253Y3231573D01*
X8427488Y3203864D01*
X8436724Y3194626D01*
X8455197Y3185391D01*
X8482906Y3185391D01*
X8501379Y3194626D01*
X8510615Y3203864D01*
X8519853Y3231573D01*
X8519853Y3314700D01*
X8418253Y3124431D02*
G01*
X8612215Y3078248D01*
X8418253Y3032066D02*
G01*
X8612215Y3078248D01*
X8418253Y3032066D02*
G01*
X8612215Y2985884D01*
X8418253Y2939704D02*
G01*
X8612215Y2985884D01*
X8418253Y2878744D02*
G01*
X8612215Y2878744D01*
X8418253Y2878744D02*
G01*
X8418253Y2795615D01*
X8427488Y2767906D01*
X8436724Y2758671D01*
X8455197Y2749435D01*
X8473671Y2749435D01*
X8492144Y2758671D01*
X8501379Y2767906D01*
X8510615Y2795615D01*
X8510615Y2878744D01*
X8510615Y2814088D02*
G01*
X8612215Y2749435D01*
X8464435Y3976255D02*
G01*
X8445962Y3985491D01*
X8427488Y4003964D01*
X8418253Y4022435D01*
X8418253Y4059382D01*
X8427488Y4077855D01*
X8445962Y4096326D01*
X8464435Y4105564D01*
X8492144Y4114800D01*
X8538324Y4114800D01*
X8566035Y4105564D01*
X8584506Y4096326D01*
X8602979Y4077855D01*
X8612215Y4059382D01*
X8612215Y4022435D01*
X8602979Y4003964D01*
X8584506Y3985491D01*
X8566035Y3976255D01*
X8538324Y3976255D01*
X8538324Y4022435D02*
G01*
X8538324Y3976255D01*
X8418253Y3915295D02*
G01*
X8612215Y3915295D01*
X8418253Y3915295D02*
G01*
X8612215Y3785984D01*
X8418253Y3785984D02*
G01*
X8612215Y3785984D01*
X8418253Y3725024D02*
G01*
X8612215Y3725024D01*
X8418253Y3725024D02*
G01*
X8418253Y3660371D01*
X8427488Y3632662D01*
X8445962Y3614188D01*
X8464435Y3604953D01*
X8492144Y3595715D01*
X8538324Y3595715D01*
X8566035Y3604953D01*
X8584506Y3614188D01*
X8602979Y3632662D01*
X8612215Y3660371D01*
X8612215Y3725024D01*
M02*
