M48
METRIC,LZ,000.000
;FILE_FORMAT=3:3
;TYPE=PLATED
;Layer: PTH_Through
;EasyEDA v6.5.47, 2024-09-23 10:33:38
;d3944284b6e04abc8746af3109f317fc,455023a0ac88494abd61f565c8365122,10
;Gerber Generator version 0.2
;Holesize 1 = 0.306 mm
T01C0.306
;Holesize 2 = 0.310 mm
T02C0.310
;Holesize 3 = 0.915 mm
T03C0.915
;Holesize 4 = 1.000 mm
T04C1.000
;Holesize 5 = 3.000 mm
T05C3.000
%
G05
G90
T01
X053340Y086614
T02
X048895Y073025
T03
X070585Y078559
X073085Y078559
X075585Y078559
X068085Y078559
X078085Y078559
X080585Y078559
X083085Y078559
X085585Y078559
X068085Y103559
X070585Y103559
X073085Y103559
X075585Y103559
X078085Y103559
X080585Y103559
X083085Y103559
X085585Y103559
X085621Y055037
X085621Y052497
X085622Y049958
X085621Y057577
X085621Y060117
X085621Y062657
X060622Y055038
X060622Y057577
X060622Y060117
X060622Y062657
X060622Y065197
X085621Y065197
T04
X042731Y061071G85X042731Y061071
X042731Y063611G85X042731Y063611
X042731Y066151G85X042731Y066151
X042731Y068691G85X042731Y068691
X042731Y071231G85X042731Y071231
X042731Y073771G85X042731Y073771
X042731Y076311G85X042731Y076311
X042731Y078851G85X042731Y078851
X042731Y081391G85X042731Y081391
X042731Y083931G85X042731Y083931
X042731Y086471G85X042731Y086471
X042731Y089011G85X042731Y089011
X042731Y091551G85X042731Y091551
X042731Y094091G85X042731Y094091
X042731Y096631G85X042731Y096631
X017961Y096631G85X017961Y096631
X017961Y094091G85X017961Y094091
X017961Y091551G85X017961Y091551
X017961Y089011G85X017961Y089011
X017961Y086471G85X017961Y086471
X017961Y083931G85X017961Y083931
X017961Y081391G85X017961Y081391
X017961Y078851G85X017961Y078851
X017961Y076311G85X017961Y076311
X017961Y073771G85X017961Y073771
X017961Y071231G85X017961Y071231
X017961Y068691G85X017961Y068691
X017961Y066151G85X017961Y066151
X017961Y063611G85X017961Y063611
X017961Y061071G85X017961Y061071
T05
X013081Y103251
X090678Y103251
X090678Y045085
X013208Y045212
M30
