G04 Layer: TopLayer*
G04 EasyEDA v6.5.47, 2024-09-23 10:33:38*
G04 d3944284b6e04abc8746af3109f317fc,455023a0ac88494abd61f565c8365122,10*
G04 Gerber Generator version 0.2*
G04 Scale: 100 percent, Rotated: No, Reflected: No *
G04 Dimensions in millimeters *
G04 leading zeros omitted , absolute positions ,4 integer and 5 decimal *
%FSLAX45Y45*%
%MOMM*%

%ADD10C,0.2540*%
%ADD11C,1.0000*%
%ADD12C,1.9304*%
%ADD13R,1.8000X2.1000*%
%ADD14O,1.7999964X2.0999958*%
%ADD15C,2.0320*%
%ADD16R,1.7780X2.0320*%
%ADD17C,4.0000*%
%ADD18C,0.6100*%
%ADD19C,0.6200*%
%ADD20C,0.0140*%

%LPD*%
G36*
X8799576Y3925874D02*
G01*
X1600149Y3925925D01*
X1559407Y3926840D01*
X1519123Y3929684D01*
X1478991Y3934307D01*
X1439164Y3940860D01*
X1399641Y3949192D01*
X1360576Y3959351D01*
X1322019Y3971290D01*
X1284020Y3985006D01*
X1246733Y4000500D01*
X1210157Y4017670D01*
X1174445Y4036466D01*
X1139647Y4056938D01*
X1105814Y4078986D01*
X1073048Y4102608D01*
X1041400Y4127703D01*
X1010970Y4154220D01*
X981760Y4182110D01*
X953871Y4211320D01*
X927404Y4241749D01*
X902309Y4273448D01*
X878738Y4306214D01*
X856742Y4340047D01*
X836269Y4374845D01*
X817473Y4410608D01*
X800303Y4447133D01*
X784860Y4484471D01*
X771144Y4522419D01*
X759206Y4561027D01*
X749096Y4600092D01*
X740765Y4639614D01*
X734263Y4679442D01*
X729640Y4719574D01*
X726846Y4759858D01*
X725932Y4800396D01*
X725932Y9999573D01*
X726846Y10040569D01*
X729691Y10080853D01*
X734314Y10120985D01*
X740867Y10160812D01*
X749198Y10200335D01*
X759358Y10239400D01*
X771296Y10277957D01*
X785012Y10315956D01*
X800506Y10353243D01*
X817676Y10389819D01*
X836472Y10425531D01*
X856945Y10460329D01*
X878992Y10494162D01*
X902614Y10526928D01*
X927709Y10558576D01*
X954227Y10589006D01*
X982116Y10618216D01*
X1011326Y10646105D01*
X1041755Y10672572D01*
X1073454Y10697667D01*
X1106220Y10721238D01*
X1140053Y10743234D01*
X1174851Y10763707D01*
X1210614Y10782503D01*
X1247140Y10799673D01*
X1284478Y10815116D01*
X1322425Y10828832D01*
X1361033Y10840770D01*
X1400098Y10850880D01*
X1439621Y10859211D01*
X1479448Y10865713D01*
X1519580Y10870336D01*
X1559864Y10873130D01*
X1600403Y10874044D01*
X8799576Y10874044D01*
X8840571Y10873130D01*
X8880856Y10870285D01*
X8920988Y10865662D01*
X8960815Y10859109D01*
X9000337Y10850778D01*
X9039402Y10840618D01*
X9077960Y10828680D01*
X9115958Y10814964D01*
X9153245Y10799470D01*
X9189821Y10782300D01*
X9225534Y10763504D01*
X9260332Y10743031D01*
X9294164Y10720984D01*
X9326930Y10697362D01*
X9358579Y10672267D01*
X9389008Y10645749D01*
X9418218Y10617860D01*
X9446107Y10588650D01*
X9472574Y10558221D01*
X9497669Y10526522D01*
X9521240Y10493756D01*
X9543237Y10459923D01*
X9563709Y10425125D01*
X9582505Y10389362D01*
X9599676Y10352836D01*
X9615119Y10315498D01*
X9628835Y10277551D01*
X9640773Y10238943D01*
X9650882Y10199878D01*
X9659213Y10160355D01*
X9665716Y10120528D01*
X9670338Y10080396D01*
X9673132Y10040112D01*
X9674098Y9999573D01*
X9674098Y4800396D01*
X9673132Y4759401D01*
X9670288Y4719116D01*
X9665665Y4678984D01*
X9659112Y4639157D01*
X9650780Y4599635D01*
X9640620Y4560570D01*
X9628682Y4522012D01*
X9614966Y4484014D01*
X9599472Y4446727D01*
X9582302Y4410151D01*
X9563506Y4374438D01*
X9543034Y4339640D01*
X9520986Y4305808D01*
X9497364Y4273042D01*
X9472269Y4241393D01*
X9445752Y4210964D01*
X9417862Y4181754D01*
X9388652Y4153865D01*
X9358223Y4127398D01*
X9326524Y4102303D01*
X9293758Y4078732D01*
X9259925Y4056735D01*
X9225127Y4036263D01*
X9189364Y4017467D01*
X9152839Y4000296D01*
X9115501Y3984853D01*
X9077553Y3971137D01*
X9038945Y3959199D01*
X8999880Y3949090D01*
X8960358Y3940759D01*
X8920530Y3934256D01*
X8880398Y3929634D01*
X8840114Y3926840D01*
G37*

%LPC*%
G36*
X9067800Y4282592D02*
G01*
X9088628Y4283557D01*
X9109303Y4286453D01*
X9129623Y4291228D01*
X9149384Y4297832D01*
X9168485Y4306265D01*
X9186722Y4316425D01*
X9203944Y4328210D01*
X9219996Y4341571D01*
X9234728Y4356303D01*
X9248089Y4372356D01*
X9259874Y4389577D01*
X9270034Y4407814D01*
X9278467Y4426915D01*
X9285071Y4446676D01*
X9289846Y4466996D01*
X9292742Y4487672D01*
X9293707Y4508500D01*
X9292742Y4529328D01*
X9289846Y4550003D01*
X9285071Y4570323D01*
X9278467Y4590084D01*
X9270034Y4609185D01*
X9259874Y4627422D01*
X9248089Y4644644D01*
X9234728Y4660696D01*
X9219996Y4675428D01*
X9203944Y4688789D01*
X9186722Y4700574D01*
X9168485Y4710734D01*
X9149384Y4719167D01*
X9129623Y4725771D01*
X9109303Y4730546D01*
X9088628Y4733442D01*
X9067800Y4734407D01*
X9046972Y4733442D01*
X9026296Y4730546D01*
X9005976Y4725771D01*
X8986215Y4719167D01*
X8967114Y4710734D01*
X8948877Y4700574D01*
X8931656Y4688789D01*
X8915603Y4675428D01*
X8900871Y4660696D01*
X8887510Y4644644D01*
X8875725Y4627422D01*
X8865565Y4609185D01*
X8857132Y4590084D01*
X8850528Y4570323D01*
X8845753Y4550003D01*
X8842857Y4529328D01*
X8841892Y4508500D01*
X8842857Y4487672D01*
X8845753Y4466996D01*
X8850528Y4446676D01*
X8857132Y4426915D01*
X8865565Y4407814D01*
X8875725Y4389577D01*
X8887510Y4372356D01*
X8900871Y4356303D01*
X8915603Y4341571D01*
X8931656Y4328210D01*
X8948877Y4316425D01*
X8967114Y4306265D01*
X8986215Y4297832D01*
X9005976Y4291228D01*
X9026296Y4286453D01*
X9046972Y4283557D01*
G37*
G36*
X1320800Y4295292D02*
G01*
X1341628Y4296257D01*
X1362303Y4299153D01*
X1382623Y4303928D01*
X1402384Y4310532D01*
X1421485Y4318965D01*
X1439722Y4329125D01*
X1456944Y4340910D01*
X1472996Y4354271D01*
X1487728Y4369003D01*
X1501089Y4385056D01*
X1512874Y4402277D01*
X1523034Y4420514D01*
X1531467Y4439615D01*
X1538071Y4459376D01*
X1542846Y4479696D01*
X1545742Y4500372D01*
X1546707Y4521200D01*
X1545742Y4542028D01*
X1542846Y4562703D01*
X1538071Y4583023D01*
X1531467Y4602784D01*
X1523034Y4621885D01*
X1512874Y4640122D01*
X1501089Y4657344D01*
X1487728Y4673396D01*
X1472996Y4688128D01*
X1456944Y4701489D01*
X1439722Y4713274D01*
X1421485Y4723434D01*
X1402384Y4731867D01*
X1382623Y4738471D01*
X1362303Y4743246D01*
X1341628Y4746142D01*
X1320800Y4747107D01*
X1299972Y4746142D01*
X1279296Y4743246D01*
X1258976Y4738471D01*
X1239215Y4731867D01*
X1220114Y4723434D01*
X1201877Y4713274D01*
X1184656Y4701489D01*
X1168603Y4688128D01*
X1153871Y4673396D01*
X1140510Y4657344D01*
X1128725Y4640122D01*
X1118565Y4621885D01*
X1110132Y4602784D01*
X1103528Y4583023D01*
X1098753Y4562703D01*
X1095857Y4542028D01*
X1094892Y4521200D01*
X1095857Y4500372D01*
X1098753Y4479696D01*
X1103528Y4459376D01*
X1110132Y4439615D01*
X1118565Y4420514D01*
X1128725Y4402277D01*
X1140510Y4385056D01*
X1153871Y4369003D01*
X1168603Y4354271D01*
X1184656Y4340910D01*
X1201877Y4329125D01*
X1220114Y4318965D01*
X1239215Y4310532D01*
X1258976Y4303928D01*
X1279296Y4299153D01*
X1299972Y4296257D01*
G37*
G36*
X8473897Y4868265D02*
G01*
X8650528Y4868265D01*
X8656878Y4869027D01*
X8662314Y4870907D01*
X8667242Y4874006D01*
X8671306Y4878070D01*
X8674404Y4882997D01*
X8676284Y4888433D01*
X8677046Y4894783D01*
X8677046Y5096814D01*
X8676284Y5103164D01*
X8674404Y5108600D01*
X8671306Y5113528D01*
X8667242Y5117592D01*
X8662314Y5120690D01*
X8656878Y5122570D01*
X8650528Y5123281D01*
X8635492Y5123281D01*
X8631224Y5124246D01*
X8627719Y5126888D01*
X8625687Y5130749D01*
X8625433Y5135118D01*
X8627059Y5139131D01*
X8630208Y5142179D01*
X8634526Y5144770D01*
X8646617Y5154269D01*
X8657488Y5165140D01*
X8666988Y5177231D01*
X8674963Y5190439D01*
X8681313Y5204460D01*
X8685885Y5219141D01*
X8688628Y5234279D01*
X8689594Y5249672D01*
X8688628Y5265064D01*
X8685885Y5280202D01*
X8681313Y5294884D01*
X8674963Y5308904D01*
X8666988Y5322112D01*
X8657488Y5334203D01*
X8646617Y5345074D01*
X8634526Y5354574D01*
X8621318Y5362549D01*
X8610549Y5367426D01*
X8607399Y5369610D01*
X8605316Y5372862D01*
X8604554Y5376672D01*
X8605316Y5380482D01*
X8607399Y5383733D01*
X8610549Y5385917D01*
X8621318Y5390794D01*
X8634526Y5398770D01*
X8646617Y5408269D01*
X8657488Y5419140D01*
X8666988Y5431231D01*
X8674963Y5444439D01*
X8681313Y5458460D01*
X8685885Y5473141D01*
X8688628Y5488279D01*
X8689594Y5503672D01*
X8688628Y5519064D01*
X8685885Y5534202D01*
X8681313Y5548884D01*
X8674963Y5562904D01*
X8666988Y5576112D01*
X8657488Y5588203D01*
X8646617Y5599074D01*
X8634526Y5608574D01*
X8621318Y5616549D01*
X8610549Y5621426D01*
X8607399Y5623610D01*
X8605316Y5626862D01*
X8604554Y5630672D01*
X8605316Y5634482D01*
X8607399Y5637733D01*
X8610549Y5639917D01*
X8621318Y5644794D01*
X8634526Y5652770D01*
X8646617Y5662269D01*
X8657488Y5673140D01*
X8666988Y5685231D01*
X8674963Y5698439D01*
X8681313Y5712460D01*
X8685885Y5727141D01*
X8688628Y5742279D01*
X8689594Y5757672D01*
X8688628Y5773064D01*
X8685885Y5788202D01*
X8681313Y5802884D01*
X8674963Y5816904D01*
X8666988Y5830112D01*
X8657488Y5842203D01*
X8646617Y5853074D01*
X8634526Y5862574D01*
X8621318Y5870549D01*
X8610549Y5875426D01*
X8607399Y5877610D01*
X8605316Y5880862D01*
X8604554Y5884672D01*
X8605316Y5888482D01*
X8607399Y5891733D01*
X8610549Y5893917D01*
X8621318Y5898794D01*
X8634526Y5906770D01*
X8646617Y5916269D01*
X8657488Y5927140D01*
X8666988Y5939231D01*
X8674963Y5952439D01*
X8681313Y5966460D01*
X8685885Y5981141D01*
X8688628Y5996279D01*
X8689594Y6011672D01*
X8688628Y6027064D01*
X8685885Y6042202D01*
X8681313Y6056884D01*
X8674963Y6070904D01*
X8666988Y6084112D01*
X8657488Y6096203D01*
X8646617Y6107074D01*
X8634526Y6116574D01*
X8621318Y6124549D01*
X8610549Y6129426D01*
X8608314Y6131001D01*
X8606078Y6131255D01*
X8592616Y6135471D01*
X8577478Y6138214D01*
X8562086Y6139180D01*
X8546693Y6138214D01*
X8531555Y6135471D01*
X8518144Y6131255D01*
X8515858Y6131001D01*
X8513622Y6129426D01*
X8502853Y6124549D01*
X8489645Y6116574D01*
X8477554Y6107074D01*
X8466683Y6096203D01*
X8457184Y6084112D01*
X8449208Y6070904D01*
X8442858Y6056884D01*
X8438286Y6042202D01*
X8435543Y6027064D01*
X8434578Y6011672D01*
X8435543Y5996279D01*
X8438286Y5981141D01*
X8442858Y5966460D01*
X8449208Y5952439D01*
X8457184Y5939231D01*
X8466683Y5927140D01*
X8477554Y5916269D01*
X8489645Y5906770D01*
X8502853Y5898794D01*
X8513622Y5893917D01*
X8516772Y5891733D01*
X8518855Y5888482D01*
X8519617Y5884672D01*
X8518855Y5880862D01*
X8516772Y5877610D01*
X8513622Y5875426D01*
X8502853Y5870549D01*
X8489645Y5862574D01*
X8477554Y5853074D01*
X8466683Y5842203D01*
X8457184Y5830112D01*
X8449208Y5816904D01*
X8442858Y5802884D01*
X8438286Y5788202D01*
X8435543Y5773064D01*
X8434578Y5757672D01*
X8435543Y5742279D01*
X8438286Y5727141D01*
X8442858Y5712460D01*
X8449208Y5698439D01*
X8457184Y5685231D01*
X8466683Y5673140D01*
X8477554Y5662269D01*
X8489645Y5652770D01*
X8502853Y5644794D01*
X8513622Y5639917D01*
X8516772Y5637733D01*
X8518855Y5634482D01*
X8519617Y5630672D01*
X8518855Y5626862D01*
X8516772Y5623610D01*
X8513622Y5621426D01*
X8502853Y5616549D01*
X8489645Y5608574D01*
X8477554Y5599074D01*
X8466683Y5588203D01*
X8457184Y5576112D01*
X8449208Y5562904D01*
X8442858Y5548884D01*
X8438286Y5534202D01*
X8435543Y5519064D01*
X8434578Y5503672D01*
X8435543Y5488279D01*
X8438286Y5473141D01*
X8442858Y5458460D01*
X8449208Y5444439D01*
X8457184Y5431231D01*
X8466683Y5419140D01*
X8477554Y5408269D01*
X8489645Y5398770D01*
X8502853Y5390794D01*
X8513622Y5385917D01*
X8516772Y5383733D01*
X8518855Y5380482D01*
X8519617Y5376672D01*
X8518855Y5372862D01*
X8516772Y5369610D01*
X8513622Y5367426D01*
X8502853Y5362549D01*
X8489645Y5354574D01*
X8477554Y5345074D01*
X8466683Y5334203D01*
X8457184Y5322112D01*
X8449208Y5308904D01*
X8442858Y5294884D01*
X8438286Y5280202D01*
X8435543Y5265064D01*
X8434578Y5249672D01*
X8435543Y5234279D01*
X8438286Y5219141D01*
X8442858Y5204460D01*
X8449208Y5190439D01*
X8457184Y5177231D01*
X8466683Y5165140D01*
X8477554Y5154269D01*
X8489645Y5144770D01*
X8493963Y5142179D01*
X8497112Y5139131D01*
X8498738Y5135118D01*
X8498484Y5130749D01*
X8496452Y5126888D01*
X8492947Y5124246D01*
X8488680Y5123281D01*
X8473897Y5123281D01*
X8467547Y5122570D01*
X8462111Y5120690D01*
X8457184Y5117592D01*
X8453120Y5113528D01*
X8450021Y5108600D01*
X8448141Y5103164D01*
X8447430Y5096814D01*
X8447430Y4894783D01*
X8448141Y4888433D01*
X8450021Y4882997D01*
X8453120Y4878070D01*
X8457184Y4874006D01*
X8462111Y4870907D01*
X8467547Y4869027D01*
G37*
G36*
X5973876Y5376265D02*
G01*
X6150559Y5376265D01*
X6156858Y5377027D01*
X6162344Y5378907D01*
X6167221Y5382006D01*
X6171336Y5386070D01*
X6174384Y5390997D01*
X6176314Y5396433D01*
X6177026Y5402783D01*
X6177026Y5604814D01*
X6176314Y5611164D01*
X6174384Y5616600D01*
X6171336Y5621528D01*
X6167221Y5625592D01*
X6162344Y5628690D01*
X6156858Y5630570D01*
X6150559Y5631281D01*
X6135624Y5631281D01*
X6131356Y5632246D01*
X6127851Y5634888D01*
X6125819Y5638749D01*
X6125565Y5643118D01*
X6127191Y5647131D01*
X6130340Y5650179D01*
X6134658Y5652770D01*
X6146749Y5662269D01*
X6157620Y5673140D01*
X6167120Y5685231D01*
X6175095Y5698439D01*
X6181445Y5712460D01*
X6186017Y5727141D01*
X6188760Y5742279D01*
X6189726Y5757672D01*
X6188760Y5773064D01*
X6186017Y5788202D01*
X6181445Y5802884D01*
X6175095Y5816904D01*
X6167120Y5830112D01*
X6157620Y5842203D01*
X6146749Y5853074D01*
X6134658Y5862574D01*
X6121450Y5870549D01*
X6110681Y5875426D01*
X6107531Y5877610D01*
X6105448Y5880862D01*
X6104686Y5884672D01*
X6105448Y5888482D01*
X6107531Y5891733D01*
X6110681Y5893917D01*
X6121450Y5898794D01*
X6134658Y5906770D01*
X6146749Y5916269D01*
X6157620Y5927140D01*
X6167120Y5939231D01*
X6175095Y5952439D01*
X6181445Y5966460D01*
X6186017Y5981141D01*
X6188760Y5996279D01*
X6189726Y6011672D01*
X6188760Y6027064D01*
X6186017Y6042202D01*
X6181445Y6056884D01*
X6175095Y6070904D01*
X6167120Y6084112D01*
X6157620Y6096203D01*
X6146749Y6107074D01*
X6134658Y6116574D01*
X6121450Y6124549D01*
X6110681Y6129426D01*
X6107531Y6131610D01*
X6105448Y6134862D01*
X6104686Y6138672D01*
X6105448Y6142482D01*
X6107531Y6145733D01*
X6110681Y6147917D01*
X6121450Y6152794D01*
X6134658Y6160770D01*
X6146749Y6170269D01*
X6157620Y6181140D01*
X6167120Y6193231D01*
X6175095Y6206439D01*
X6181445Y6220460D01*
X6186017Y6235141D01*
X6188760Y6250279D01*
X6189726Y6265672D01*
X6188760Y6281064D01*
X6186017Y6296202D01*
X6181445Y6310884D01*
X6175095Y6324904D01*
X6167120Y6338112D01*
X6157620Y6350203D01*
X6146749Y6361074D01*
X6134658Y6370574D01*
X6121450Y6378549D01*
X6110681Y6383426D01*
X6108446Y6385001D01*
X6106210Y6385255D01*
X6092748Y6389471D01*
X6077610Y6392214D01*
X6062218Y6393180D01*
X6046825Y6392214D01*
X6031687Y6389471D01*
X6018276Y6385255D01*
X6015990Y6385001D01*
X6013754Y6383426D01*
X6002985Y6378549D01*
X5989777Y6370574D01*
X5977686Y6361074D01*
X5966815Y6350203D01*
X5963056Y6345478D01*
X5960872Y6343396D01*
X5958128Y6342024D01*
X5955080Y6341567D01*
X4429048Y6341516D01*
X4420209Y6340703D01*
X4417872Y6340297D01*
X4406544Y6337249D01*
X4398568Y6333998D01*
X4396384Y6332880D01*
X4388764Y6328257D01*
X4379976Y6321247D01*
X4368088Y6309410D01*
X4364786Y6307226D01*
X4360926Y6306464D01*
X4327702Y6306464D01*
X4327702Y6273241D01*
X4326940Y6269329D01*
X4324705Y6266027D01*
X4290517Y6231839D01*
X4286961Y6229553D01*
X4282694Y6228892D01*
X4273092Y6229502D01*
X4258056Y6228588D01*
X4243222Y6225794D01*
X4228846Y6221222D01*
X4215180Y6214922D01*
X4202379Y6206998D01*
X4190593Y6197549D01*
X4180128Y6186728D01*
X4171035Y6174689D01*
X4163517Y6161633D01*
X4157624Y6147765D01*
X4153509Y6133287D01*
X4151172Y6118402D01*
X4150715Y6103315D01*
X4152137Y6088329D01*
X4155338Y6073597D01*
X4160367Y6059373D01*
X4167073Y6045860D01*
X4175404Y6033312D01*
X4185208Y6021882D01*
X4196334Y6011722D01*
X4208627Y6003036D01*
X4221937Y5995873D01*
X4235958Y5990437D01*
X4250588Y5986780D01*
X4265523Y5984900D01*
X4280611Y5984900D01*
X4295597Y5986780D01*
X4310176Y5990437D01*
X4324248Y5995873D01*
X4337507Y6003036D01*
X4349800Y6011722D01*
X4360976Y6021882D01*
X4370781Y6033312D01*
X4379112Y6045860D01*
X4385818Y6059373D01*
X4390796Y6073597D01*
X4394047Y6088329D01*
X4395419Y6103315D01*
X4395012Y6117132D01*
X4395724Y6121146D01*
X4397959Y6124600D01*
X4460138Y6186779D01*
X4463440Y6189014D01*
X4467352Y6189776D01*
X5955080Y6189776D01*
X5958078Y6189319D01*
X5960872Y6187948D01*
X5963056Y6185865D01*
X5966815Y6181140D01*
X5977686Y6170269D01*
X5989777Y6160770D01*
X6002985Y6152794D01*
X6013754Y6147917D01*
X6016904Y6145733D01*
X6018987Y6142482D01*
X6019749Y6138672D01*
X6018987Y6134862D01*
X6016904Y6131610D01*
X6013754Y6129426D01*
X6002985Y6124549D01*
X5989777Y6116574D01*
X5977686Y6107074D01*
X5966815Y6096203D01*
X5957316Y6084112D01*
X5949340Y6070904D01*
X5942990Y6056884D01*
X5938418Y6042202D01*
X5935675Y6027064D01*
X5934710Y6011672D01*
X5935675Y5996279D01*
X5938418Y5981141D01*
X5942990Y5966460D01*
X5949340Y5952439D01*
X5957316Y5939231D01*
X5966815Y5927140D01*
X5977686Y5916269D01*
X5989777Y5906770D01*
X6002985Y5898794D01*
X6013754Y5893917D01*
X6016904Y5891733D01*
X6018987Y5888482D01*
X6019749Y5884672D01*
X6018987Y5880862D01*
X6016904Y5877610D01*
X6013754Y5875426D01*
X6002985Y5870549D01*
X5989777Y5862574D01*
X5977686Y5853074D01*
X5966815Y5842203D01*
X5957316Y5830112D01*
X5949340Y5816904D01*
X5942990Y5802884D01*
X5938418Y5788202D01*
X5935675Y5773064D01*
X5934710Y5757672D01*
X5935675Y5742279D01*
X5938418Y5727141D01*
X5942990Y5712460D01*
X5949340Y5698439D01*
X5957316Y5685231D01*
X5966815Y5673140D01*
X5977686Y5662269D01*
X5989777Y5652770D01*
X5994095Y5650179D01*
X5997244Y5647131D01*
X5998870Y5643118D01*
X5998616Y5638749D01*
X5996584Y5634888D01*
X5993079Y5632246D01*
X5988812Y5631281D01*
X5973876Y5631281D01*
X5967577Y5630570D01*
X5962091Y5628690D01*
X5957214Y5625592D01*
X5953099Y5621528D01*
X5950051Y5616600D01*
X5948121Y5611164D01*
X5947410Y5604814D01*
X5947410Y5402783D01*
X5948121Y5396433D01*
X5950051Y5390997D01*
X5953099Y5386070D01*
X5957214Y5382006D01*
X5962091Y5378907D01*
X5967577Y5377027D01*
G37*
G36*
X1788515Y5984900D02*
G01*
X1803603Y5984900D01*
X1818589Y5986780D01*
X1833168Y5990437D01*
X1847240Y5995873D01*
X1860499Y6003036D01*
X1872792Y6011722D01*
X1883968Y6021882D01*
X1893773Y6033312D01*
X1902104Y6045860D01*
X1908810Y6059373D01*
X1913788Y6073597D01*
X1917039Y6088329D01*
X1918411Y6103315D01*
X1917954Y6118402D01*
X1915668Y6133287D01*
X1911502Y6147765D01*
X1905660Y6161633D01*
X1898091Y6174689D01*
X1889048Y6186728D01*
X1878533Y6197549D01*
X1866798Y6206998D01*
X1853996Y6214922D01*
X1840280Y6221222D01*
X1825904Y6225794D01*
X1811121Y6228588D01*
X1796084Y6229502D01*
X1781048Y6228588D01*
X1766214Y6225794D01*
X1751838Y6221222D01*
X1738172Y6214922D01*
X1725371Y6206998D01*
X1713585Y6197549D01*
X1703120Y6186728D01*
X1694027Y6174689D01*
X1686509Y6161633D01*
X1680616Y6147765D01*
X1676501Y6133287D01*
X1674164Y6118402D01*
X1673707Y6103315D01*
X1675130Y6088329D01*
X1678330Y6073597D01*
X1683359Y6059373D01*
X1690065Y6045860D01*
X1698396Y6033312D01*
X1708200Y6021882D01*
X1719325Y6011722D01*
X1731619Y6003036D01*
X1744929Y5995873D01*
X1758950Y5990437D01*
X1773580Y5986780D01*
G37*
G36*
X8619236Y6151829D02*
G01*
X8621318Y6152794D01*
X8634526Y6160770D01*
X8646617Y6170269D01*
X8657488Y6181140D01*
X8666988Y6193231D01*
X8674963Y6206439D01*
X8675928Y6208522D01*
X8619236Y6208522D01*
G37*
G36*
X8504936Y6151829D02*
G01*
X8504936Y6208522D01*
X8448243Y6208522D01*
X8449208Y6206439D01*
X8457184Y6193231D01*
X8466683Y6181140D01*
X8477554Y6170269D01*
X8489645Y6160770D01*
X8502853Y6152794D01*
G37*
G36*
X1850694Y6251752D02*
G01*
X1860499Y6257036D01*
X1872792Y6265722D01*
X1883968Y6275882D01*
X1893773Y6287312D01*
X1902104Y6299860D01*
X1905355Y6306464D01*
X1850694Y6306464D01*
G37*
G36*
X1741474Y6251752D02*
G01*
X1741474Y6306464D01*
X1686763Y6306464D01*
X1690065Y6299860D01*
X1698396Y6287312D01*
X1708200Y6275882D01*
X1719325Y6265722D01*
X1731619Y6257036D01*
G37*
G36*
X4218482Y6251752D02*
G01*
X4218482Y6306464D01*
X4163771Y6306464D01*
X4167073Y6299860D01*
X4175404Y6287312D01*
X4185208Y6275882D01*
X4196334Y6265722D01*
X4208627Y6257036D01*
G37*
G36*
X8619236Y6322822D02*
G01*
X8675928Y6322822D01*
X8674963Y6324904D01*
X8666988Y6338112D01*
X8657488Y6350203D01*
X8646617Y6361074D01*
X8634526Y6370574D01*
X8621318Y6378549D01*
X8619236Y6379514D01*
G37*
G36*
X8448243Y6322822D02*
G01*
X8504936Y6322822D01*
X8504936Y6379514D01*
X8502853Y6378549D01*
X8489645Y6370574D01*
X8477554Y6361074D01*
X8466683Y6350203D01*
X8457184Y6338112D01*
X8449208Y6324904D01*
G37*
G36*
X8562086Y6392164D02*
G01*
X8577478Y6393129D01*
X8592616Y6395872D01*
X8606078Y6400088D01*
X8608314Y6400342D01*
X8610549Y6401917D01*
X8621318Y6406794D01*
X8634526Y6414770D01*
X8646617Y6424269D01*
X8657488Y6435140D01*
X8666988Y6447231D01*
X8674963Y6460439D01*
X8681313Y6474460D01*
X8685885Y6489141D01*
X8688628Y6504279D01*
X8689594Y6519672D01*
X8688628Y6535064D01*
X8685885Y6550202D01*
X8681313Y6564884D01*
X8674963Y6578904D01*
X8666988Y6592112D01*
X8657488Y6604203D01*
X8646617Y6615074D01*
X8634526Y6624574D01*
X8621318Y6632549D01*
X8607298Y6638899D01*
X8592616Y6643471D01*
X8577478Y6646214D01*
X8562086Y6647180D01*
X8546693Y6646214D01*
X8531555Y6643471D01*
X8516874Y6638899D01*
X8502853Y6632549D01*
X8489645Y6624574D01*
X8477554Y6615074D01*
X8466683Y6604203D01*
X8457184Y6592112D01*
X8449208Y6578904D01*
X8442858Y6564884D01*
X8438286Y6550202D01*
X8435543Y6535064D01*
X8434578Y6519672D01*
X8435543Y6504279D01*
X8438286Y6489141D01*
X8442858Y6474460D01*
X8449208Y6460439D01*
X8457184Y6447231D01*
X8466683Y6435140D01*
X8477554Y6424269D01*
X8489645Y6414770D01*
X8502853Y6406794D01*
X8513622Y6401917D01*
X8515858Y6400342D01*
X8518144Y6400088D01*
X8531555Y6395872D01*
X8546693Y6393129D01*
G37*
G36*
X6005068Y6405829D02*
G01*
X6005068Y6462522D01*
X5948375Y6462522D01*
X5949340Y6460439D01*
X5957316Y6447231D01*
X5966815Y6435140D01*
X5977686Y6424269D01*
X5989777Y6414770D01*
X6002985Y6406794D01*
G37*
G36*
X6119368Y6405829D02*
G01*
X6121450Y6406794D01*
X6134658Y6414770D01*
X6146749Y6424269D01*
X6157620Y6435140D01*
X6167120Y6447231D01*
X6175095Y6460439D01*
X6176060Y6462522D01*
X6119368Y6462522D01*
G37*
G36*
X4163517Y6415684D02*
G01*
X4218482Y6415684D01*
X4218482Y6470446D01*
X4215180Y6468922D01*
X4202379Y6460998D01*
X4190593Y6451549D01*
X4180128Y6440728D01*
X4171035Y6428689D01*
G37*
G36*
X1686509Y6415684D02*
G01*
X1741474Y6415684D01*
X1741474Y6470446D01*
X1738172Y6468922D01*
X1725371Y6460998D01*
X1713585Y6451549D01*
X1703120Y6440728D01*
X1694027Y6428689D01*
G37*
G36*
X4327702Y6415684D02*
G01*
X4382617Y6415684D01*
X4375099Y6428689D01*
X4366056Y6440728D01*
X4355541Y6451549D01*
X4343806Y6460998D01*
X4331004Y6468922D01*
X4327702Y6470446D01*
G37*
G36*
X1850694Y6415684D02*
G01*
X1905609Y6415684D01*
X1898091Y6428689D01*
X1889048Y6440728D01*
X1878533Y6451549D01*
X1866798Y6460998D01*
X1853996Y6468922D01*
X1850694Y6470446D01*
G37*
G36*
X1788515Y6492900D02*
G01*
X1803603Y6492900D01*
X1818589Y6494780D01*
X1833168Y6498437D01*
X1847240Y6503873D01*
X1860499Y6511035D01*
X1872792Y6519722D01*
X1883968Y6529882D01*
X1893773Y6541312D01*
X1902104Y6553860D01*
X1908810Y6567373D01*
X1913788Y6581597D01*
X1917039Y6596329D01*
X1918411Y6611315D01*
X1917954Y6626402D01*
X1915668Y6641287D01*
X1911502Y6655765D01*
X1905660Y6669633D01*
X1898091Y6682689D01*
X1889048Y6694728D01*
X1878533Y6705549D01*
X1866798Y6714998D01*
X1853996Y6722922D01*
X1840280Y6729222D01*
X1830425Y6732371D01*
X1826666Y6734556D01*
X1824177Y6738061D01*
X1823364Y6742379D01*
X1824431Y6746595D01*
X1827123Y6749948D01*
X1831035Y6751878D01*
X1833168Y6752437D01*
X1847240Y6757873D01*
X1860499Y6765036D01*
X1872792Y6773722D01*
X1883968Y6783882D01*
X1893773Y6795312D01*
X1902104Y6807860D01*
X1908810Y6821373D01*
X1913788Y6835597D01*
X1917039Y6850329D01*
X1918411Y6865315D01*
X1917954Y6880402D01*
X1915668Y6895287D01*
X1911502Y6909765D01*
X1905660Y6923633D01*
X1898091Y6936689D01*
X1889048Y6948728D01*
X1878533Y6959549D01*
X1866798Y6968998D01*
X1853996Y6976922D01*
X1840280Y6983222D01*
X1830425Y6986371D01*
X1826666Y6988556D01*
X1824177Y6992061D01*
X1823364Y6996379D01*
X1824431Y7000595D01*
X1827123Y7003948D01*
X1831035Y7005878D01*
X1833168Y7006437D01*
X1847240Y7011873D01*
X1860499Y7019036D01*
X1872792Y7027722D01*
X1883968Y7037882D01*
X1893773Y7049312D01*
X1902104Y7061860D01*
X1908810Y7075373D01*
X1913788Y7089597D01*
X1917039Y7104329D01*
X1918411Y7119315D01*
X1917954Y7134402D01*
X1915668Y7149287D01*
X1911502Y7163765D01*
X1905660Y7177633D01*
X1898091Y7190689D01*
X1889048Y7202728D01*
X1878533Y7213549D01*
X1866798Y7222998D01*
X1853996Y7230922D01*
X1840280Y7237222D01*
X1830425Y7240371D01*
X1826666Y7242556D01*
X1824177Y7246061D01*
X1823364Y7250379D01*
X1824431Y7254595D01*
X1827123Y7257948D01*
X1831035Y7259878D01*
X1833168Y7260437D01*
X1847240Y7265873D01*
X1860499Y7273036D01*
X1872792Y7281722D01*
X1883968Y7291882D01*
X1893773Y7303312D01*
X1902104Y7315860D01*
X1908810Y7329373D01*
X1913788Y7343597D01*
X1917039Y7358329D01*
X1918411Y7373315D01*
X1917954Y7388402D01*
X1915668Y7403287D01*
X1911502Y7417765D01*
X1905660Y7431633D01*
X1898091Y7444689D01*
X1889048Y7456728D01*
X1878533Y7467549D01*
X1866798Y7476998D01*
X1853996Y7484922D01*
X1840280Y7491222D01*
X1830425Y7494371D01*
X1826666Y7496556D01*
X1824177Y7500061D01*
X1823364Y7504379D01*
X1824431Y7508595D01*
X1827123Y7511948D01*
X1831035Y7513878D01*
X1833168Y7514437D01*
X1847240Y7519873D01*
X1860499Y7527036D01*
X1872792Y7535722D01*
X1883968Y7545882D01*
X1893773Y7557312D01*
X1902104Y7569860D01*
X1908810Y7583373D01*
X1913788Y7597597D01*
X1917039Y7612329D01*
X1918411Y7627315D01*
X1917954Y7642402D01*
X1915668Y7657287D01*
X1911502Y7671765D01*
X1905660Y7685633D01*
X1898091Y7698689D01*
X1889048Y7710728D01*
X1878533Y7721549D01*
X1866798Y7730998D01*
X1853996Y7738922D01*
X1840280Y7745222D01*
X1830425Y7748371D01*
X1826666Y7750556D01*
X1824177Y7754061D01*
X1823364Y7758379D01*
X1824431Y7762595D01*
X1827123Y7765948D01*
X1831035Y7767878D01*
X1833168Y7768437D01*
X1847240Y7773873D01*
X1860499Y7781036D01*
X1872792Y7789722D01*
X1883968Y7799882D01*
X1893773Y7811312D01*
X1902104Y7823860D01*
X1908810Y7837373D01*
X1913788Y7851597D01*
X1917039Y7866329D01*
X1918411Y7881315D01*
X1917954Y7896402D01*
X1915668Y7911287D01*
X1911502Y7925765D01*
X1905660Y7939633D01*
X1898091Y7952689D01*
X1889048Y7964728D01*
X1878533Y7975549D01*
X1866798Y7984998D01*
X1853996Y7992922D01*
X1840280Y7999222D01*
X1830425Y8002371D01*
X1826666Y8004556D01*
X1824177Y8008061D01*
X1823364Y8012379D01*
X1824431Y8016595D01*
X1827123Y8019948D01*
X1831035Y8021878D01*
X1833168Y8022437D01*
X1847240Y8027873D01*
X1860499Y8035036D01*
X1872792Y8043722D01*
X1883968Y8053882D01*
X1893773Y8065312D01*
X1902104Y8077860D01*
X1908810Y8091373D01*
X1913788Y8105597D01*
X1917039Y8120329D01*
X1918411Y8135315D01*
X1917954Y8150402D01*
X1915668Y8165287D01*
X1911502Y8179765D01*
X1905660Y8193633D01*
X1898091Y8206689D01*
X1889048Y8218728D01*
X1878533Y8229549D01*
X1866798Y8238998D01*
X1853996Y8246922D01*
X1840280Y8253222D01*
X1830425Y8256371D01*
X1826666Y8258556D01*
X1824177Y8262061D01*
X1823364Y8266379D01*
X1824431Y8270595D01*
X1827123Y8273948D01*
X1831035Y8275878D01*
X1833168Y8276437D01*
X1847240Y8281873D01*
X1860499Y8289036D01*
X1872792Y8297722D01*
X1883968Y8307882D01*
X1893773Y8319312D01*
X1902104Y8331860D01*
X1908810Y8345373D01*
X1913788Y8359597D01*
X1917039Y8374329D01*
X1918411Y8389315D01*
X1917954Y8404402D01*
X1915668Y8419287D01*
X1911502Y8433765D01*
X1905660Y8447633D01*
X1898091Y8460689D01*
X1889048Y8472728D01*
X1878533Y8483549D01*
X1866798Y8492998D01*
X1853996Y8500922D01*
X1840280Y8507222D01*
X1830425Y8510371D01*
X1826666Y8512556D01*
X1824177Y8516061D01*
X1823364Y8520379D01*
X1824431Y8524595D01*
X1827123Y8527948D01*
X1831035Y8529878D01*
X1833168Y8530437D01*
X1847240Y8535873D01*
X1860499Y8543036D01*
X1872792Y8551722D01*
X1883968Y8561882D01*
X1893773Y8573312D01*
X1902104Y8585860D01*
X1908810Y8599373D01*
X1913788Y8613597D01*
X1917039Y8628329D01*
X1918411Y8643315D01*
X1917954Y8658402D01*
X1915668Y8673287D01*
X1911502Y8687765D01*
X1905660Y8701633D01*
X1898091Y8714689D01*
X1889048Y8726728D01*
X1878533Y8737549D01*
X1866798Y8746998D01*
X1853996Y8754922D01*
X1840280Y8761222D01*
X1830425Y8764371D01*
X1826666Y8766556D01*
X1824177Y8770061D01*
X1823364Y8774379D01*
X1824431Y8778595D01*
X1827123Y8781948D01*
X1831035Y8783878D01*
X1833168Y8784437D01*
X1847240Y8789873D01*
X1860499Y8797036D01*
X1872792Y8805722D01*
X1883968Y8815882D01*
X1893773Y8827312D01*
X1902104Y8839860D01*
X1908810Y8853373D01*
X1913788Y8867597D01*
X1917039Y8882329D01*
X1918411Y8897315D01*
X1917954Y8912402D01*
X1915668Y8927287D01*
X1911502Y8941765D01*
X1905660Y8955633D01*
X1898091Y8968689D01*
X1889048Y8980728D01*
X1878533Y8991549D01*
X1866798Y9000998D01*
X1853996Y9008922D01*
X1840280Y9015222D01*
X1830425Y9018371D01*
X1826666Y9020556D01*
X1824177Y9024061D01*
X1823364Y9028379D01*
X1824431Y9032595D01*
X1827123Y9035948D01*
X1831035Y9037878D01*
X1833168Y9038437D01*
X1847240Y9043873D01*
X1860499Y9051036D01*
X1872792Y9059722D01*
X1883968Y9069882D01*
X1893773Y9081312D01*
X1902104Y9093860D01*
X1908810Y9107373D01*
X1913788Y9121597D01*
X1917039Y9136329D01*
X1918411Y9151315D01*
X1917954Y9166402D01*
X1915668Y9181287D01*
X1911502Y9195765D01*
X1905660Y9209633D01*
X1898091Y9222689D01*
X1889048Y9234728D01*
X1878533Y9245549D01*
X1866798Y9254998D01*
X1853996Y9262922D01*
X1840280Y9269222D01*
X1830425Y9272371D01*
X1826666Y9274556D01*
X1824177Y9278061D01*
X1823364Y9282379D01*
X1824431Y9286595D01*
X1827123Y9289948D01*
X1831035Y9291878D01*
X1833168Y9292437D01*
X1847240Y9297873D01*
X1860499Y9305036D01*
X1872792Y9313722D01*
X1883968Y9323882D01*
X1893773Y9335312D01*
X1902104Y9347860D01*
X1908810Y9361373D01*
X1913788Y9375597D01*
X1917039Y9390329D01*
X1918411Y9405315D01*
X1917954Y9420402D01*
X1915668Y9435287D01*
X1911502Y9449765D01*
X1905660Y9463633D01*
X1898091Y9476689D01*
X1889048Y9488728D01*
X1878533Y9499549D01*
X1866798Y9508998D01*
X1853996Y9516922D01*
X1840280Y9523222D01*
X1830425Y9526371D01*
X1826666Y9528556D01*
X1824177Y9532061D01*
X1823364Y9536379D01*
X1824431Y9540595D01*
X1827123Y9543948D01*
X1831035Y9545878D01*
X1833168Y9546437D01*
X1847240Y9551873D01*
X1860499Y9559036D01*
X1872792Y9567722D01*
X1883968Y9577882D01*
X1893773Y9589312D01*
X1902104Y9601860D01*
X1908810Y9615373D01*
X1913788Y9629597D01*
X1917039Y9644329D01*
X1918411Y9659315D01*
X1917954Y9674402D01*
X1915668Y9689287D01*
X1911502Y9703765D01*
X1905660Y9717633D01*
X1898091Y9730689D01*
X1889048Y9742728D01*
X1878533Y9753549D01*
X1866798Y9762998D01*
X1853996Y9770922D01*
X1840280Y9777222D01*
X1825904Y9781794D01*
X1811121Y9784588D01*
X1796084Y9785502D01*
X1781048Y9784588D01*
X1766214Y9781794D01*
X1751838Y9777222D01*
X1738172Y9770922D01*
X1725371Y9762998D01*
X1713585Y9753549D01*
X1703120Y9742728D01*
X1694027Y9730689D01*
X1686509Y9717633D01*
X1680616Y9703765D01*
X1676501Y9689287D01*
X1674164Y9674402D01*
X1673707Y9659315D01*
X1675130Y9644329D01*
X1678330Y9629597D01*
X1683359Y9615373D01*
X1690065Y9601860D01*
X1698396Y9589312D01*
X1708200Y9577882D01*
X1719325Y9567722D01*
X1731619Y9559036D01*
X1744929Y9551873D01*
X1758950Y9546437D01*
X1761083Y9545878D01*
X1764995Y9543948D01*
X1767738Y9540595D01*
X1768805Y9536379D01*
X1767992Y9532061D01*
X1765452Y9528556D01*
X1761693Y9526371D01*
X1751838Y9523222D01*
X1738172Y9516922D01*
X1725371Y9508998D01*
X1713585Y9499549D01*
X1703120Y9488728D01*
X1694027Y9476689D01*
X1686509Y9463633D01*
X1680616Y9449765D01*
X1676501Y9435287D01*
X1674164Y9420402D01*
X1673707Y9405315D01*
X1675130Y9390329D01*
X1678330Y9375597D01*
X1683359Y9361373D01*
X1690065Y9347860D01*
X1698396Y9335312D01*
X1708200Y9323882D01*
X1719325Y9313722D01*
X1731619Y9305036D01*
X1744929Y9297873D01*
X1758950Y9292437D01*
X1761083Y9291878D01*
X1764995Y9289948D01*
X1767738Y9286595D01*
X1768805Y9282379D01*
X1767992Y9278061D01*
X1765452Y9274556D01*
X1761693Y9272371D01*
X1751838Y9269222D01*
X1738172Y9262922D01*
X1725371Y9254998D01*
X1713585Y9245549D01*
X1703120Y9234728D01*
X1694027Y9222689D01*
X1686509Y9209633D01*
X1680616Y9195765D01*
X1676501Y9181287D01*
X1674164Y9166402D01*
X1673707Y9151315D01*
X1675130Y9136329D01*
X1678330Y9121597D01*
X1683359Y9107373D01*
X1690065Y9093860D01*
X1698396Y9081312D01*
X1708200Y9069882D01*
X1719325Y9059722D01*
X1731619Y9051036D01*
X1744929Y9043873D01*
X1758950Y9038437D01*
X1761083Y9037878D01*
X1764995Y9035948D01*
X1767738Y9032595D01*
X1768805Y9028379D01*
X1767992Y9024061D01*
X1765452Y9020556D01*
X1761693Y9018371D01*
X1751838Y9015222D01*
X1738172Y9008922D01*
X1725371Y9000998D01*
X1713585Y8991549D01*
X1703120Y8980728D01*
X1694027Y8968689D01*
X1686509Y8955633D01*
X1680616Y8941765D01*
X1676501Y8927287D01*
X1674164Y8912402D01*
X1673707Y8897315D01*
X1675130Y8882329D01*
X1678330Y8867597D01*
X1683359Y8853373D01*
X1690065Y8839860D01*
X1698396Y8827312D01*
X1708200Y8815882D01*
X1719325Y8805722D01*
X1731619Y8797036D01*
X1744929Y8789873D01*
X1758950Y8784437D01*
X1761083Y8783878D01*
X1764995Y8781948D01*
X1767738Y8778595D01*
X1768805Y8774379D01*
X1767992Y8770061D01*
X1765452Y8766556D01*
X1761693Y8764371D01*
X1751838Y8761222D01*
X1738172Y8754922D01*
X1725371Y8746998D01*
X1713585Y8737549D01*
X1703120Y8726728D01*
X1694027Y8714689D01*
X1686509Y8701633D01*
X1680616Y8687765D01*
X1676501Y8673287D01*
X1674164Y8658402D01*
X1673707Y8643315D01*
X1675130Y8628329D01*
X1678330Y8613597D01*
X1683359Y8599373D01*
X1690065Y8585860D01*
X1698396Y8573312D01*
X1708200Y8561882D01*
X1719325Y8551722D01*
X1731619Y8543036D01*
X1744929Y8535873D01*
X1758950Y8530437D01*
X1761083Y8529878D01*
X1764995Y8527948D01*
X1767738Y8524595D01*
X1768805Y8520379D01*
X1767992Y8516061D01*
X1765452Y8512556D01*
X1761693Y8510371D01*
X1751838Y8507222D01*
X1738172Y8500922D01*
X1725371Y8492998D01*
X1713585Y8483549D01*
X1703120Y8472728D01*
X1694027Y8460689D01*
X1686509Y8447633D01*
X1680616Y8433765D01*
X1676501Y8419287D01*
X1674164Y8404402D01*
X1673707Y8389315D01*
X1675130Y8374329D01*
X1678330Y8359597D01*
X1683359Y8345373D01*
X1690065Y8331860D01*
X1698396Y8319312D01*
X1708200Y8307882D01*
X1719325Y8297722D01*
X1731619Y8289036D01*
X1744929Y8281873D01*
X1758950Y8276437D01*
X1761083Y8275878D01*
X1764995Y8273948D01*
X1767738Y8270595D01*
X1768805Y8266379D01*
X1767992Y8262061D01*
X1765452Y8258556D01*
X1761693Y8256371D01*
X1751838Y8253222D01*
X1738172Y8246922D01*
X1725371Y8238998D01*
X1713585Y8229549D01*
X1703120Y8218728D01*
X1694027Y8206689D01*
X1686509Y8193633D01*
X1680616Y8179765D01*
X1676501Y8165287D01*
X1674164Y8150402D01*
X1673707Y8135315D01*
X1675130Y8120329D01*
X1678330Y8105597D01*
X1683359Y8091373D01*
X1690065Y8077860D01*
X1698396Y8065312D01*
X1708200Y8053882D01*
X1719325Y8043722D01*
X1731619Y8035036D01*
X1744929Y8027873D01*
X1758950Y8022437D01*
X1761083Y8021878D01*
X1764995Y8019948D01*
X1767738Y8016595D01*
X1768805Y8012379D01*
X1767992Y8008061D01*
X1765452Y8004556D01*
X1761693Y8002371D01*
X1751838Y7999222D01*
X1738172Y7992922D01*
X1725371Y7984998D01*
X1713585Y7975549D01*
X1703120Y7964728D01*
X1694027Y7952689D01*
X1686509Y7939633D01*
X1680616Y7925765D01*
X1676501Y7911287D01*
X1674164Y7896402D01*
X1673707Y7881315D01*
X1675130Y7866329D01*
X1678330Y7851597D01*
X1683359Y7837373D01*
X1690065Y7823860D01*
X1698396Y7811312D01*
X1708200Y7799882D01*
X1719325Y7789722D01*
X1731619Y7781036D01*
X1744929Y7773873D01*
X1758950Y7768437D01*
X1761083Y7767878D01*
X1764995Y7765948D01*
X1767738Y7762595D01*
X1768805Y7758379D01*
X1767992Y7754061D01*
X1765452Y7750556D01*
X1761693Y7748371D01*
X1751838Y7745222D01*
X1738172Y7738922D01*
X1725371Y7730998D01*
X1713585Y7721549D01*
X1703120Y7710728D01*
X1694027Y7698689D01*
X1686509Y7685633D01*
X1680616Y7671765D01*
X1676501Y7657287D01*
X1674164Y7642402D01*
X1673707Y7627315D01*
X1675130Y7612329D01*
X1678330Y7597597D01*
X1683359Y7583373D01*
X1690065Y7569860D01*
X1698396Y7557312D01*
X1708200Y7545882D01*
X1719325Y7535722D01*
X1731619Y7527036D01*
X1744929Y7519873D01*
X1758950Y7514437D01*
X1761083Y7513878D01*
X1764995Y7511948D01*
X1767738Y7508595D01*
X1768805Y7504379D01*
X1767992Y7500061D01*
X1765452Y7496556D01*
X1761693Y7494371D01*
X1751838Y7491222D01*
X1738172Y7484922D01*
X1725371Y7476998D01*
X1713585Y7467549D01*
X1703120Y7456728D01*
X1694027Y7444689D01*
X1686509Y7431633D01*
X1680616Y7417765D01*
X1676501Y7403287D01*
X1674164Y7388402D01*
X1673707Y7373315D01*
X1675130Y7358329D01*
X1678330Y7343597D01*
X1683359Y7329373D01*
X1690065Y7315860D01*
X1698396Y7303312D01*
X1708200Y7291882D01*
X1719325Y7281722D01*
X1731619Y7273036D01*
X1744929Y7265873D01*
X1758950Y7260437D01*
X1761083Y7259878D01*
X1764995Y7257948D01*
X1767738Y7254595D01*
X1768805Y7250379D01*
X1767992Y7246061D01*
X1765452Y7242556D01*
X1761693Y7240371D01*
X1751838Y7237222D01*
X1738172Y7230922D01*
X1725371Y7222998D01*
X1713585Y7213549D01*
X1703120Y7202728D01*
X1694027Y7190689D01*
X1686509Y7177633D01*
X1680616Y7163765D01*
X1676501Y7149287D01*
X1674164Y7134402D01*
X1673707Y7119315D01*
X1675130Y7104329D01*
X1678330Y7089597D01*
X1683359Y7075373D01*
X1690065Y7061860D01*
X1698396Y7049312D01*
X1708200Y7037882D01*
X1719325Y7027722D01*
X1731619Y7019036D01*
X1744929Y7011873D01*
X1758950Y7006437D01*
X1761083Y7005878D01*
X1764995Y7003948D01*
X1767738Y7000595D01*
X1768805Y6996379D01*
X1767992Y6992061D01*
X1765452Y6988556D01*
X1761693Y6986371D01*
X1751838Y6983222D01*
X1738172Y6976922D01*
X1725371Y6968998D01*
X1713585Y6959549D01*
X1703120Y6948728D01*
X1694027Y6936689D01*
X1686509Y6923633D01*
X1680616Y6909765D01*
X1676501Y6895287D01*
X1674164Y6880402D01*
X1673707Y6865315D01*
X1675130Y6850329D01*
X1678330Y6835597D01*
X1683359Y6821373D01*
X1690065Y6807860D01*
X1698396Y6795312D01*
X1708200Y6783882D01*
X1719325Y6773722D01*
X1731619Y6765036D01*
X1744929Y6757873D01*
X1758950Y6752437D01*
X1761083Y6751878D01*
X1764995Y6749948D01*
X1767738Y6746595D01*
X1768805Y6742379D01*
X1767992Y6738061D01*
X1765452Y6734556D01*
X1761693Y6732371D01*
X1751838Y6729222D01*
X1738172Y6722922D01*
X1725371Y6714998D01*
X1713585Y6705549D01*
X1703120Y6694728D01*
X1694027Y6682689D01*
X1686509Y6669633D01*
X1680616Y6655765D01*
X1676501Y6641287D01*
X1674164Y6626402D01*
X1673707Y6611315D01*
X1675130Y6596329D01*
X1678330Y6581597D01*
X1683359Y6567373D01*
X1690065Y6553860D01*
X1698396Y6541312D01*
X1708200Y6529882D01*
X1719325Y6519722D01*
X1731619Y6511035D01*
X1744929Y6503873D01*
X1758950Y6498437D01*
X1773580Y6494780D01*
G37*
G36*
X4265523Y6492900D02*
G01*
X4280611Y6492900D01*
X4295597Y6494780D01*
X4310176Y6498437D01*
X4324248Y6503873D01*
X4337507Y6511035D01*
X4349800Y6519722D01*
X4360976Y6529882D01*
X4370781Y6541312D01*
X4379112Y6553860D01*
X4385818Y6567373D01*
X4390796Y6581597D01*
X4394047Y6596329D01*
X4395419Y6611315D01*
X4394962Y6626402D01*
X4392676Y6641287D01*
X4388510Y6655765D01*
X4382668Y6669633D01*
X4375099Y6682689D01*
X4366056Y6694728D01*
X4355541Y6705549D01*
X4343806Y6714998D01*
X4331004Y6722922D01*
X4317288Y6729222D01*
X4307433Y6732371D01*
X4303674Y6734556D01*
X4301185Y6738061D01*
X4300372Y6742379D01*
X4301439Y6746595D01*
X4304131Y6749948D01*
X4308043Y6751878D01*
X4310176Y6752437D01*
X4324248Y6757873D01*
X4337507Y6765036D01*
X4349800Y6773722D01*
X4360976Y6783882D01*
X4370781Y6795312D01*
X4379112Y6807860D01*
X4385818Y6821373D01*
X4390796Y6835597D01*
X4394047Y6850329D01*
X4395419Y6865315D01*
X4394962Y6880402D01*
X4392676Y6895287D01*
X4388510Y6909765D01*
X4382668Y6923633D01*
X4375099Y6936689D01*
X4366056Y6948728D01*
X4355541Y6959549D01*
X4343806Y6968998D01*
X4331004Y6976922D01*
X4317288Y6983222D01*
X4307433Y6986371D01*
X4303674Y6988556D01*
X4301185Y6992061D01*
X4300372Y6996379D01*
X4301439Y7000595D01*
X4304131Y7003948D01*
X4308043Y7005878D01*
X4310176Y7006437D01*
X4324248Y7011873D01*
X4337507Y7019036D01*
X4349800Y7027722D01*
X4360976Y7037882D01*
X4370781Y7049312D01*
X4379112Y7061860D01*
X4385818Y7075373D01*
X4386630Y7077709D01*
X4388764Y7081215D01*
X4392168Y7083602D01*
X4396181Y7084466D01*
X7075170Y7084466D01*
X7083196Y7085279D01*
X7090409Y7087463D01*
X7097064Y7091019D01*
X7103313Y7096150D01*
X7743494Y7736281D01*
X7747101Y7738618D01*
X7751419Y7739227D01*
X7755534Y7738008D01*
X7759141Y7736027D01*
X7772704Y7730693D01*
X7786776Y7727086D01*
X7801203Y7725257D01*
X7815783Y7725257D01*
X7830210Y7727086D01*
X7844332Y7730693D01*
X7857845Y7736027D01*
X7870596Y7743037D01*
X7882381Y7751622D01*
X7892999Y7761579D01*
X7902244Y7772806D01*
X7910068Y7785049D01*
X7916265Y7798257D01*
X7920736Y7812074D01*
X7923530Y7826603D01*
X7925003Y7830312D01*
X7927848Y7833156D01*
X7931505Y7834680D01*
X7935468Y7834680D01*
X7939176Y7833156D01*
X7941970Y7830312D01*
X7943494Y7826603D01*
X7946237Y7812074D01*
X7950758Y7798257D01*
X7956956Y7785049D01*
X7964728Y7772806D01*
X7974025Y7761579D01*
X7984642Y7751622D01*
X7996377Y7743037D01*
X8009178Y7736027D01*
X8022691Y7730693D01*
X8036763Y7727086D01*
X8051241Y7725257D01*
X8065770Y7725257D01*
X8080197Y7727086D01*
X8094319Y7730693D01*
X8107832Y7736027D01*
X8120583Y7743037D01*
X8132368Y7751622D01*
X8142986Y7761579D01*
X8152231Y7772806D01*
X8160054Y7785049D01*
X8166252Y7798257D01*
X8170722Y7812074D01*
X8173516Y7826603D01*
X8175040Y7830312D01*
X8177834Y7833156D01*
X8181492Y7834680D01*
X8185505Y7834680D01*
X8189163Y7833156D01*
X8191957Y7830312D01*
X8193481Y7826603D01*
X8196275Y7812074D01*
X8200745Y7798257D01*
X8206943Y7785049D01*
X8214766Y7772806D01*
X8224012Y7761579D01*
X8234629Y7751622D01*
X8246414Y7743037D01*
X8259165Y7736027D01*
X8272678Y7730693D01*
X8286800Y7727086D01*
X8301228Y7725257D01*
X8315756Y7725257D01*
X8330234Y7727086D01*
X8344306Y7730693D01*
X8357819Y7736027D01*
X8370570Y7743037D01*
X8382355Y7751622D01*
X8392972Y7761579D01*
X8402269Y7772806D01*
X8410041Y7785049D01*
X8416239Y7798257D01*
X8420760Y7812074D01*
X8423503Y7826603D01*
X8425027Y7830312D01*
X8427821Y7833156D01*
X8431479Y7834680D01*
X8435492Y7834680D01*
X8439150Y7833156D01*
X8441994Y7830312D01*
X8443468Y7826603D01*
X8446262Y7812074D01*
X8450732Y7798257D01*
X8456930Y7785049D01*
X8464753Y7772806D01*
X8473998Y7761579D01*
X8484616Y7751622D01*
X8496401Y7743037D01*
X8509152Y7736027D01*
X8522665Y7730693D01*
X8536787Y7727086D01*
X8551214Y7725257D01*
X8565794Y7725257D01*
X8580221Y7727086D01*
X8594293Y7730693D01*
X8607856Y7736027D01*
X8620607Y7743037D01*
X8632342Y7751622D01*
X8642959Y7761579D01*
X8652256Y7772806D01*
X8660028Y7785049D01*
X8666226Y7798257D01*
X8670747Y7812074D01*
X8673490Y7826400D01*
X8674404Y7841234D01*
X8674404Y7870596D01*
X8673490Y7885430D01*
X8670747Y7899704D01*
X8666226Y7913573D01*
X8660028Y7926730D01*
X8652256Y7939024D01*
X8642959Y7950250D01*
X8632342Y7960207D01*
X8620607Y7968742D01*
X8607856Y7975752D01*
X8594293Y7981137D01*
X8580221Y7984744D01*
X8565794Y7986572D01*
X8551214Y7986572D01*
X8536787Y7984744D01*
X8522665Y7981137D01*
X8509152Y7975752D01*
X8496401Y7968742D01*
X8484616Y7960207D01*
X8473998Y7950250D01*
X8464753Y7939024D01*
X8456930Y7926730D01*
X8450732Y7913573D01*
X8446262Y7899704D01*
X8443468Y7885175D01*
X8441994Y7881518D01*
X8439150Y7878673D01*
X8435492Y7877149D01*
X8431479Y7877149D01*
X8427821Y7878673D01*
X8425027Y7881518D01*
X8423503Y7885175D01*
X8420760Y7899704D01*
X8416239Y7913573D01*
X8410041Y7926730D01*
X8402269Y7939024D01*
X8392972Y7950250D01*
X8382355Y7960207D01*
X8370570Y7968742D01*
X8357819Y7975752D01*
X8344306Y7981137D01*
X8330234Y7984744D01*
X8315756Y7986572D01*
X8301228Y7986572D01*
X8286800Y7984744D01*
X8272678Y7981137D01*
X8259165Y7975752D01*
X8246414Y7968742D01*
X8234629Y7960207D01*
X8224012Y7950250D01*
X8214766Y7939024D01*
X8206943Y7926730D01*
X8200745Y7913573D01*
X8196275Y7899704D01*
X8193481Y7885175D01*
X8191957Y7881518D01*
X8189163Y7878673D01*
X8185505Y7877149D01*
X8181492Y7877149D01*
X8177834Y7878673D01*
X8175040Y7881518D01*
X8173516Y7885175D01*
X8170722Y7899704D01*
X8166252Y7913573D01*
X8160054Y7926730D01*
X8152231Y7939024D01*
X8142986Y7950250D01*
X8132368Y7960207D01*
X8120583Y7968742D01*
X8107832Y7975752D01*
X8094319Y7981137D01*
X8080197Y7984744D01*
X8065770Y7986572D01*
X8051241Y7986572D01*
X8036763Y7984744D01*
X8022691Y7981137D01*
X8009178Y7975752D01*
X7996377Y7968742D01*
X7984642Y7960207D01*
X7974025Y7950250D01*
X7964728Y7939024D01*
X7956956Y7926730D01*
X7950758Y7913573D01*
X7946237Y7899704D01*
X7943494Y7885175D01*
X7941970Y7881518D01*
X7939176Y7878673D01*
X7935468Y7877149D01*
X7931505Y7877149D01*
X7927848Y7878673D01*
X7925003Y7881518D01*
X7923530Y7885175D01*
X7920736Y7899704D01*
X7916265Y7913573D01*
X7910068Y7926730D01*
X7902244Y7939024D01*
X7892999Y7950250D01*
X7882381Y7960207D01*
X7870596Y7968742D01*
X7857845Y7975752D01*
X7844332Y7981137D01*
X7830210Y7984744D01*
X7815783Y7986572D01*
X7801203Y7986572D01*
X7786776Y7984744D01*
X7772704Y7981137D01*
X7759141Y7975752D01*
X7746390Y7968742D01*
X7734604Y7960207D01*
X7724038Y7950250D01*
X7714742Y7939024D01*
X7706969Y7926730D01*
X7700772Y7913573D01*
X7696250Y7899704D01*
X7693456Y7885175D01*
X7691983Y7881518D01*
X7689189Y7878673D01*
X7685481Y7877149D01*
X7681518Y7877149D01*
X7677810Y7878673D01*
X7675016Y7881518D01*
X7673543Y7885175D01*
X7670749Y7899704D01*
X7666228Y7913573D01*
X7660030Y7926730D01*
X7652258Y7939024D01*
X7642961Y7950250D01*
X7632344Y7960207D01*
X7620609Y7968742D01*
X7607858Y7975752D01*
X7594295Y7981137D01*
X7580223Y7984744D01*
X7565796Y7986572D01*
X7551216Y7986572D01*
X7536789Y7984744D01*
X7522667Y7981137D01*
X7509154Y7975752D01*
X7496403Y7968742D01*
X7484618Y7960207D01*
X7474000Y7950250D01*
X7464755Y7939024D01*
X7456931Y7926730D01*
X7450734Y7913573D01*
X7446264Y7899704D01*
X7443470Y7885175D01*
X7441996Y7881518D01*
X7439152Y7878673D01*
X7435494Y7877149D01*
X7431481Y7877149D01*
X7427823Y7878673D01*
X7425029Y7881518D01*
X7423505Y7885175D01*
X7420762Y7899704D01*
X7416241Y7913573D01*
X7410043Y7926730D01*
X7402271Y7939024D01*
X7392974Y7950250D01*
X7382357Y7960207D01*
X7370572Y7968742D01*
X7357821Y7975752D01*
X7344308Y7981137D01*
X7330236Y7984744D01*
X7315758Y7986572D01*
X7301230Y7986572D01*
X7286802Y7984744D01*
X7272680Y7981137D01*
X7259167Y7975752D01*
X7246416Y7968742D01*
X7234631Y7960207D01*
X7224014Y7950250D01*
X7214768Y7939024D01*
X7206945Y7926730D01*
X7200747Y7913573D01*
X7196277Y7899704D01*
X7193534Y7885430D01*
X7192568Y7870596D01*
X7192568Y7841234D01*
X7193534Y7826400D01*
X7196277Y7812074D01*
X7200747Y7798257D01*
X7206945Y7785049D01*
X7214768Y7772806D01*
X7224014Y7761579D01*
X7234631Y7751622D01*
X7246416Y7743037D01*
X7259167Y7736027D01*
X7272680Y7730693D01*
X7286802Y7727086D01*
X7301230Y7725257D01*
X7315758Y7725257D01*
X7329119Y7726934D01*
X7333284Y7726578D01*
X7336942Y7724597D01*
X7339482Y7721295D01*
X7340549Y7717281D01*
X7339838Y7713167D01*
X7337552Y7709662D01*
X6971995Y7344105D01*
X6968693Y7341870D01*
X6964781Y7341108D01*
X4935321Y7341108D01*
X4931359Y7341920D01*
X4919319Y7350912D01*
X4910683Y7355281D01*
X4901488Y7358075D01*
X4891938Y7359345D01*
X4882286Y7358888D01*
X4872837Y7356856D01*
X4863896Y7353300D01*
X4855667Y7348220D01*
X4848453Y7341870D01*
X4842357Y7334351D01*
X4837684Y7325918D01*
X4834483Y7316825D01*
X4832858Y7307325D01*
X4832858Y7297674D01*
X4834483Y7288174D01*
X4837684Y7279081D01*
X4842357Y7270648D01*
X4848453Y7263130D01*
X4855667Y7256780D01*
X4863896Y7251700D01*
X4872837Y7248144D01*
X4882286Y7246112D01*
X4891938Y7245654D01*
X4901488Y7246924D01*
X4910683Y7249718D01*
X4919319Y7254087D01*
X4931359Y7263079D01*
X4935321Y7263892D01*
X6984492Y7263892D01*
X6992518Y7264704D01*
X6999731Y7266889D01*
X7006437Y7270445D01*
X7012635Y7275575D01*
X7480858Y7743748D01*
X7483805Y7745780D01*
X7487259Y7746695D01*
X7490815Y7746339D01*
X7494016Y7744815D01*
X7496403Y7743037D01*
X7509154Y7736027D01*
X7522667Y7730693D01*
X7536789Y7727086D01*
X7551216Y7725257D01*
X7565796Y7725257D01*
X7580223Y7727086D01*
X7594295Y7730693D01*
X7605572Y7735163D01*
X7609433Y7735874D01*
X7613294Y7735062D01*
X7616545Y7732826D01*
X7618730Y7729524D01*
X7619492Y7725664D01*
X7618679Y7721803D01*
X7616494Y7718501D01*
X7062622Y7164679D01*
X7059320Y7162444D01*
X7055459Y7161682D01*
X4396130Y7161682D01*
X4392269Y7162444D01*
X4389018Y7164628D01*
X4386783Y7167880D01*
X4382668Y7177633D01*
X4375099Y7190689D01*
X4366056Y7202728D01*
X4355541Y7213549D01*
X4343806Y7222998D01*
X4331004Y7230922D01*
X4317288Y7237222D01*
X4307433Y7240371D01*
X4303674Y7242556D01*
X4301185Y7246061D01*
X4300372Y7250379D01*
X4301439Y7254595D01*
X4304131Y7257948D01*
X4308043Y7259878D01*
X4310176Y7260437D01*
X4324248Y7265873D01*
X4337507Y7273036D01*
X4349800Y7281722D01*
X4360976Y7291882D01*
X4370781Y7303312D01*
X4379112Y7315860D01*
X4385818Y7329373D01*
X4390796Y7343597D01*
X4394047Y7358329D01*
X4395419Y7373315D01*
X4394962Y7388402D01*
X4392676Y7403287D01*
X4388510Y7417765D01*
X4382668Y7431633D01*
X4375099Y7444689D01*
X4366056Y7456728D01*
X4355541Y7467549D01*
X4343806Y7476998D01*
X4331004Y7484922D01*
X4317288Y7491222D01*
X4307433Y7494371D01*
X4303674Y7496556D01*
X4301185Y7500061D01*
X4300372Y7504379D01*
X4301439Y7508595D01*
X4304131Y7511948D01*
X4308043Y7513878D01*
X4310176Y7514437D01*
X4324248Y7519873D01*
X4337507Y7527036D01*
X4349800Y7535722D01*
X4360976Y7545882D01*
X4370781Y7557312D01*
X4379112Y7569860D01*
X4385818Y7583373D01*
X4390796Y7597597D01*
X4394047Y7612329D01*
X4395419Y7627315D01*
X4394962Y7642402D01*
X4392676Y7657287D01*
X4388510Y7671765D01*
X4382668Y7685633D01*
X4375099Y7698689D01*
X4366056Y7710728D01*
X4355541Y7721549D01*
X4343806Y7730998D01*
X4331004Y7738922D01*
X4317288Y7745222D01*
X4307433Y7748371D01*
X4303674Y7750556D01*
X4301185Y7754061D01*
X4300372Y7758379D01*
X4301439Y7762595D01*
X4304131Y7765948D01*
X4308043Y7767878D01*
X4310176Y7768437D01*
X4324248Y7773873D01*
X4337507Y7781036D01*
X4349800Y7789722D01*
X4360976Y7799882D01*
X4370781Y7811312D01*
X4379112Y7823860D01*
X4385818Y7837373D01*
X4390796Y7851597D01*
X4394047Y7866329D01*
X4395419Y7881315D01*
X4394962Y7896402D01*
X4392676Y7911287D01*
X4388510Y7925765D01*
X4382668Y7939633D01*
X4375099Y7952689D01*
X4366056Y7964728D01*
X4355541Y7975549D01*
X4343806Y7984998D01*
X4331004Y7992922D01*
X4317288Y7999222D01*
X4307433Y8002371D01*
X4303674Y8004556D01*
X4301185Y8008061D01*
X4300372Y8012379D01*
X4301439Y8016595D01*
X4304131Y8019948D01*
X4308043Y8021878D01*
X4310176Y8022437D01*
X4324248Y8027873D01*
X4337507Y8035036D01*
X4349800Y8043722D01*
X4360976Y8053882D01*
X4370781Y8065312D01*
X4379112Y8077860D01*
X4385818Y8091373D01*
X4386681Y8093760D01*
X4388815Y8097316D01*
X4392168Y8099704D01*
X4396232Y8100568D01*
X5591048Y8100568D01*
X5599074Y8101380D01*
X5606288Y8103565D01*
X5612993Y8107121D01*
X5619191Y8112252D01*
X7743494Y10236301D01*
X7747152Y10238638D01*
X7751419Y10239248D01*
X7755585Y10237978D01*
X7759141Y10236047D01*
X7772704Y10230662D01*
X7786776Y10227056D01*
X7801203Y10225227D01*
X7815783Y10225227D01*
X7830210Y10227056D01*
X7844332Y10230662D01*
X7857845Y10236047D01*
X7870596Y10243058D01*
X7882381Y10251592D01*
X7892999Y10261549D01*
X7902244Y10272776D01*
X7910068Y10285069D01*
X7916265Y10298226D01*
X7920736Y10312095D01*
X7923530Y10326624D01*
X7925003Y10330281D01*
X7927848Y10333126D01*
X7931505Y10334650D01*
X7935468Y10334650D01*
X7939176Y10333126D01*
X7941970Y10330281D01*
X7943494Y10326624D01*
X7946237Y10312095D01*
X7950758Y10298226D01*
X7956956Y10285069D01*
X7964728Y10272776D01*
X7974025Y10261549D01*
X7984642Y10251592D01*
X7996377Y10243058D01*
X8009178Y10236047D01*
X8022691Y10230662D01*
X8036763Y10227056D01*
X8051241Y10225227D01*
X8065770Y10225227D01*
X8080197Y10227056D01*
X8094319Y10230662D01*
X8107832Y10236047D01*
X8120583Y10243058D01*
X8132368Y10251592D01*
X8142986Y10261549D01*
X8152231Y10272776D01*
X8160054Y10285069D01*
X8166252Y10298226D01*
X8170722Y10312095D01*
X8173516Y10326624D01*
X8175040Y10330281D01*
X8177834Y10333126D01*
X8181492Y10334650D01*
X8185505Y10334650D01*
X8189163Y10333126D01*
X8191957Y10330281D01*
X8193481Y10326624D01*
X8196275Y10312095D01*
X8200745Y10298226D01*
X8206943Y10285069D01*
X8214766Y10272776D01*
X8224012Y10261549D01*
X8234629Y10251592D01*
X8246414Y10243058D01*
X8259165Y10236047D01*
X8272678Y10230662D01*
X8286800Y10227056D01*
X8301228Y10225227D01*
X8315756Y10225227D01*
X8330234Y10227056D01*
X8344306Y10230662D01*
X8357819Y10236047D01*
X8370570Y10243058D01*
X8382355Y10251592D01*
X8392972Y10261549D01*
X8402269Y10272776D01*
X8410041Y10285069D01*
X8416239Y10298226D01*
X8420760Y10312095D01*
X8423452Y10326370D01*
X8424418Y10341203D01*
X8424418Y10370566D01*
X8423452Y10385399D01*
X8420760Y10399725D01*
X8416239Y10413542D01*
X8410041Y10426750D01*
X8402269Y10438993D01*
X8392972Y10450220D01*
X8382355Y10460177D01*
X8370570Y10468762D01*
X8357819Y10475772D01*
X8344306Y10481106D01*
X8330234Y10484713D01*
X8315756Y10486542D01*
X8301228Y10486542D01*
X8286800Y10484713D01*
X8272678Y10481106D01*
X8259165Y10475772D01*
X8246414Y10468762D01*
X8234629Y10460177D01*
X8224012Y10450220D01*
X8214766Y10438993D01*
X8206943Y10426750D01*
X8200745Y10413542D01*
X8196275Y10399725D01*
X8193481Y10385196D01*
X8191957Y10381488D01*
X8189163Y10378643D01*
X8185505Y10377119D01*
X8181492Y10377119D01*
X8177834Y10378643D01*
X8175040Y10381488D01*
X8173516Y10385196D01*
X8170722Y10399725D01*
X8166252Y10413542D01*
X8160054Y10426750D01*
X8152231Y10438993D01*
X8142986Y10450220D01*
X8132368Y10460177D01*
X8120583Y10468762D01*
X8107832Y10475772D01*
X8094319Y10481106D01*
X8080197Y10484713D01*
X8065770Y10486542D01*
X8051241Y10486542D01*
X8036763Y10484713D01*
X8022691Y10481106D01*
X8009178Y10475772D01*
X7996377Y10468762D01*
X7984642Y10460177D01*
X7974025Y10450220D01*
X7964728Y10438993D01*
X7956956Y10426750D01*
X7950758Y10413542D01*
X7946237Y10399725D01*
X7943494Y10385196D01*
X7941970Y10381488D01*
X7939176Y10378643D01*
X7935468Y10377119D01*
X7931505Y10377119D01*
X7927848Y10378643D01*
X7925003Y10381488D01*
X7923530Y10385196D01*
X7920736Y10399725D01*
X7916265Y10413542D01*
X7910068Y10426750D01*
X7902244Y10438993D01*
X7892999Y10450220D01*
X7882381Y10460177D01*
X7870596Y10468762D01*
X7857845Y10475772D01*
X7844332Y10481106D01*
X7830210Y10484713D01*
X7815783Y10486542D01*
X7801203Y10486542D01*
X7786776Y10484713D01*
X7772704Y10481106D01*
X7759141Y10475772D01*
X7746390Y10468762D01*
X7734604Y10460177D01*
X7724038Y10450220D01*
X7714742Y10438993D01*
X7706969Y10426750D01*
X7700772Y10413542D01*
X7696250Y10399725D01*
X7693456Y10385196D01*
X7691983Y10381488D01*
X7689189Y10378643D01*
X7685481Y10377119D01*
X7681518Y10377119D01*
X7677810Y10378643D01*
X7675016Y10381488D01*
X7673543Y10385196D01*
X7670749Y10399725D01*
X7666228Y10413542D01*
X7660030Y10426750D01*
X7652258Y10438993D01*
X7642961Y10450220D01*
X7632344Y10460177D01*
X7620609Y10468762D01*
X7607858Y10475772D01*
X7594295Y10481106D01*
X7580223Y10484713D01*
X7565796Y10486542D01*
X7551216Y10486542D01*
X7536789Y10484713D01*
X7522667Y10481106D01*
X7509154Y10475772D01*
X7496403Y10468762D01*
X7484618Y10460177D01*
X7474000Y10450220D01*
X7464755Y10438993D01*
X7456931Y10426750D01*
X7450734Y10413542D01*
X7446264Y10399725D01*
X7443470Y10385196D01*
X7441996Y10381488D01*
X7439152Y10378643D01*
X7435494Y10377119D01*
X7431481Y10377119D01*
X7427823Y10378643D01*
X7425029Y10381488D01*
X7423505Y10385196D01*
X7420762Y10399725D01*
X7416241Y10413542D01*
X7410043Y10426750D01*
X7402271Y10438993D01*
X7392974Y10450220D01*
X7382357Y10460177D01*
X7370572Y10468762D01*
X7357821Y10475772D01*
X7344308Y10481106D01*
X7330236Y10484713D01*
X7315758Y10486542D01*
X7301230Y10486542D01*
X7286802Y10484713D01*
X7272680Y10481106D01*
X7259167Y10475772D01*
X7246416Y10468762D01*
X7234631Y10460177D01*
X7224014Y10450220D01*
X7214768Y10438993D01*
X7206945Y10426750D01*
X7200747Y10413542D01*
X7196277Y10399725D01*
X7193483Y10385196D01*
X7191959Y10381488D01*
X7189165Y10378643D01*
X7185507Y10377119D01*
X7181494Y10377119D01*
X7177836Y10378643D01*
X7175042Y10381488D01*
X7173518Y10385196D01*
X7170724Y10399725D01*
X7166254Y10413542D01*
X7160056Y10426750D01*
X7152233Y10438993D01*
X7142988Y10450220D01*
X7132370Y10460177D01*
X7120585Y10468762D01*
X7107834Y10475772D01*
X7094321Y10481106D01*
X7080199Y10484713D01*
X7065772Y10486542D01*
X7051243Y10486542D01*
X7036765Y10484713D01*
X7022693Y10481106D01*
X7009180Y10475772D01*
X6996379Y10468762D01*
X6984644Y10460177D01*
X6974027Y10450220D01*
X6964730Y10438993D01*
X6956958Y10426750D01*
X6950760Y10413542D01*
X6946239Y10399725D01*
X6943547Y10385399D01*
X6942581Y10370566D01*
X6942581Y10341203D01*
X6943547Y10326370D01*
X6946239Y10312095D01*
X6950760Y10298226D01*
X6956958Y10285069D01*
X6964730Y10272776D01*
X6974027Y10261549D01*
X6984644Y10251592D01*
X6996379Y10243058D01*
X7009180Y10236047D01*
X7022693Y10230662D01*
X7036765Y10227056D01*
X7051243Y10225227D01*
X7065772Y10225227D01*
X7080199Y10227056D01*
X7094321Y10230662D01*
X7105751Y10235234D01*
X7109612Y10235946D01*
X7113473Y10235133D01*
X7116724Y10232898D01*
X7118908Y10229596D01*
X7119670Y10225735D01*
X7118858Y10221874D01*
X7116673Y10218572D01*
X6616903Y9719005D01*
X6613601Y9716770D01*
X6609689Y9716008D01*
X4389475Y9716008D01*
X4385970Y9716617D01*
X4382922Y9718395D01*
X4380687Y9721088D01*
X4375099Y9730689D01*
X4366056Y9742728D01*
X4355541Y9753549D01*
X4343806Y9762998D01*
X4331004Y9770922D01*
X4317288Y9777222D01*
X4302912Y9781794D01*
X4288129Y9784588D01*
X4273092Y9785502D01*
X4258056Y9784588D01*
X4243222Y9781794D01*
X4228846Y9777222D01*
X4215180Y9770922D01*
X4202379Y9762998D01*
X4190593Y9753549D01*
X4180128Y9742728D01*
X4171035Y9730689D01*
X4163517Y9717633D01*
X4157624Y9703765D01*
X4153509Y9689287D01*
X4151172Y9674402D01*
X4150715Y9659315D01*
X4152137Y9644329D01*
X4155338Y9629597D01*
X4160367Y9615373D01*
X4167073Y9601860D01*
X4175404Y9589312D01*
X4185208Y9577882D01*
X4196334Y9567722D01*
X4208627Y9559036D01*
X4221937Y9551873D01*
X4235958Y9546437D01*
X4238091Y9545878D01*
X4242003Y9543948D01*
X4244746Y9540595D01*
X4245813Y9536379D01*
X4245000Y9532061D01*
X4242460Y9528556D01*
X4238701Y9526371D01*
X4228846Y9523222D01*
X4215180Y9516922D01*
X4202379Y9508998D01*
X4190593Y9499549D01*
X4180128Y9488728D01*
X4171035Y9476689D01*
X4163517Y9463633D01*
X4157624Y9449765D01*
X4153509Y9435287D01*
X4151172Y9420402D01*
X4150715Y9405315D01*
X4152137Y9390329D01*
X4155338Y9375597D01*
X4160367Y9361373D01*
X4167073Y9347860D01*
X4175404Y9335312D01*
X4185208Y9323882D01*
X4196334Y9313722D01*
X4208627Y9305036D01*
X4221937Y9297873D01*
X4235958Y9292437D01*
X4238091Y9291878D01*
X4242003Y9289948D01*
X4244746Y9286595D01*
X4245813Y9282379D01*
X4245000Y9278061D01*
X4242460Y9274556D01*
X4238701Y9272371D01*
X4228846Y9269222D01*
X4215180Y9262922D01*
X4202379Y9254998D01*
X4190593Y9245549D01*
X4180128Y9234728D01*
X4171035Y9222689D01*
X4163517Y9209633D01*
X4157624Y9195765D01*
X4153509Y9181287D01*
X4151172Y9166402D01*
X4150715Y9151315D01*
X4152137Y9136329D01*
X4155338Y9121597D01*
X4160367Y9107373D01*
X4167073Y9093860D01*
X4175404Y9081312D01*
X4185208Y9069882D01*
X4196334Y9059722D01*
X4208627Y9051036D01*
X4221937Y9043873D01*
X4235958Y9038437D01*
X4238091Y9037878D01*
X4242003Y9035948D01*
X4244746Y9032595D01*
X4245813Y9028379D01*
X4245000Y9024061D01*
X4242460Y9020556D01*
X4238701Y9018371D01*
X4228846Y9015222D01*
X4215180Y9008922D01*
X4202379Y9000998D01*
X4190593Y8991549D01*
X4180128Y8980728D01*
X4171035Y8968689D01*
X4163517Y8955633D01*
X4157624Y8941765D01*
X4153509Y8927287D01*
X4151172Y8912402D01*
X4150715Y8897315D01*
X4152137Y8882329D01*
X4155338Y8867597D01*
X4160367Y8853373D01*
X4167073Y8839860D01*
X4175404Y8827312D01*
X4185208Y8815882D01*
X4196334Y8805722D01*
X4208627Y8797036D01*
X4221937Y8789873D01*
X4235958Y8784437D01*
X4238091Y8783878D01*
X4242003Y8781948D01*
X4244746Y8778595D01*
X4245813Y8774379D01*
X4245000Y8770061D01*
X4242460Y8766556D01*
X4238701Y8764371D01*
X4228846Y8761222D01*
X4215180Y8754922D01*
X4202379Y8746998D01*
X4190593Y8737549D01*
X4180128Y8726728D01*
X4171035Y8714689D01*
X4163517Y8701633D01*
X4157624Y8687765D01*
X4153509Y8673287D01*
X4151172Y8658402D01*
X4150715Y8643315D01*
X4152137Y8628329D01*
X4155338Y8613597D01*
X4160367Y8599373D01*
X4167073Y8585860D01*
X4175404Y8573312D01*
X4185208Y8561882D01*
X4196334Y8551722D01*
X4208627Y8543036D01*
X4221937Y8535873D01*
X4235958Y8530437D01*
X4238091Y8529878D01*
X4242003Y8527948D01*
X4244746Y8524595D01*
X4245813Y8520379D01*
X4245000Y8516061D01*
X4242460Y8512556D01*
X4238701Y8510371D01*
X4228846Y8507222D01*
X4215180Y8500922D01*
X4202379Y8492998D01*
X4190593Y8483549D01*
X4180128Y8472728D01*
X4171035Y8460689D01*
X4163517Y8447633D01*
X4157624Y8433765D01*
X4153509Y8419287D01*
X4151172Y8404402D01*
X4150715Y8389315D01*
X4152137Y8374329D01*
X4155338Y8359597D01*
X4160367Y8345373D01*
X4167073Y8331860D01*
X4175404Y8319312D01*
X4185208Y8307882D01*
X4196334Y8297722D01*
X4208627Y8289036D01*
X4221937Y8281873D01*
X4235958Y8276437D01*
X4238091Y8275878D01*
X4242003Y8273948D01*
X4244746Y8270595D01*
X4245813Y8266379D01*
X4245000Y8262061D01*
X4242460Y8258556D01*
X4238701Y8256371D01*
X4228846Y8253222D01*
X4215180Y8246922D01*
X4202379Y8238998D01*
X4190593Y8229549D01*
X4180128Y8218728D01*
X4171035Y8206689D01*
X4163517Y8193633D01*
X4157624Y8179765D01*
X4153509Y8165287D01*
X4151172Y8150402D01*
X4150715Y8135315D01*
X4152137Y8120329D01*
X4155338Y8105597D01*
X4160367Y8091373D01*
X4167073Y8077860D01*
X4175404Y8065312D01*
X4185208Y8053882D01*
X4196334Y8043722D01*
X4208627Y8035036D01*
X4221937Y8027873D01*
X4235958Y8022437D01*
X4238091Y8021878D01*
X4242003Y8019948D01*
X4244746Y8016595D01*
X4245813Y8012379D01*
X4245000Y8008061D01*
X4242460Y8004556D01*
X4238701Y8002371D01*
X4228846Y7999222D01*
X4215180Y7992922D01*
X4202379Y7984998D01*
X4190593Y7975549D01*
X4180128Y7964728D01*
X4171035Y7952689D01*
X4163517Y7939633D01*
X4157624Y7925765D01*
X4153509Y7911287D01*
X4151172Y7896402D01*
X4150715Y7881315D01*
X4152137Y7866329D01*
X4155338Y7851597D01*
X4160367Y7837373D01*
X4167073Y7823860D01*
X4175404Y7811312D01*
X4185208Y7799882D01*
X4196334Y7789722D01*
X4208627Y7781036D01*
X4221937Y7773873D01*
X4235958Y7768437D01*
X4238091Y7767878D01*
X4242003Y7765948D01*
X4244746Y7762595D01*
X4245813Y7758379D01*
X4245000Y7754061D01*
X4242460Y7750556D01*
X4238701Y7748371D01*
X4228846Y7745222D01*
X4215180Y7738922D01*
X4202379Y7730998D01*
X4190593Y7721549D01*
X4180128Y7710728D01*
X4171035Y7698689D01*
X4163517Y7685633D01*
X4157624Y7671765D01*
X4153509Y7657287D01*
X4151172Y7642402D01*
X4150715Y7627315D01*
X4152137Y7612329D01*
X4155338Y7597597D01*
X4160367Y7583373D01*
X4167073Y7569860D01*
X4175404Y7557312D01*
X4185208Y7545882D01*
X4196334Y7535722D01*
X4208627Y7527036D01*
X4221937Y7519873D01*
X4235958Y7514437D01*
X4238091Y7513878D01*
X4242003Y7511948D01*
X4244746Y7508595D01*
X4245813Y7504379D01*
X4245000Y7500061D01*
X4242460Y7496556D01*
X4238701Y7494371D01*
X4228846Y7491222D01*
X4215180Y7484922D01*
X4202379Y7476998D01*
X4190593Y7467549D01*
X4180128Y7456728D01*
X4171035Y7444689D01*
X4163517Y7431633D01*
X4157624Y7417765D01*
X4153509Y7403287D01*
X4151172Y7388402D01*
X4150715Y7373315D01*
X4152137Y7358329D01*
X4155338Y7343597D01*
X4160367Y7329373D01*
X4167073Y7315860D01*
X4175404Y7303312D01*
X4185208Y7291882D01*
X4196334Y7281722D01*
X4208627Y7273036D01*
X4221937Y7265873D01*
X4235958Y7260437D01*
X4238091Y7259878D01*
X4242003Y7257948D01*
X4244746Y7254595D01*
X4245813Y7250379D01*
X4245000Y7246061D01*
X4242460Y7242556D01*
X4238701Y7240371D01*
X4228846Y7237222D01*
X4215180Y7230922D01*
X4202379Y7222998D01*
X4190593Y7213549D01*
X4180128Y7202728D01*
X4171035Y7190689D01*
X4163517Y7177633D01*
X4157624Y7163765D01*
X4153509Y7149287D01*
X4151172Y7134402D01*
X4150715Y7119315D01*
X4152137Y7104329D01*
X4155338Y7089597D01*
X4160367Y7075373D01*
X4167073Y7061860D01*
X4175404Y7049312D01*
X4185208Y7037882D01*
X4196334Y7027722D01*
X4208627Y7019036D01*
X4221937Y7011873D01*
X4235958Y7006437D01*
X4238091Y7005878D01*
X4242003Y7003948D01*
X4244746Y7000595D01*
X4245813Y6996379D01*
X4245000Y6992061D01*
X4242460Y6988556D01*
X4238701Y6986371D01*
X4228846Y6983222D01*
X4215180Y6976922D01*
X4202379Y6968998D01*
X4190593Y6959549D01*
X4180128Y6948728D01*
X4171035Y6936689D01*
X4163517Y6923633D01*
X4157624Y6909765D01*
X4153509Y6895287D01*
X4151172Y6880402D01*
X4150715Y6865315D01*
X4152137Y6850329D01*
X4155338Y6835597D01*
X4160367Y6821373D01*
X4167073Y6807860D01*
X4175404Y6795312D01*
X4185208Y6783882D01*
X4196334Y6773722D01*
X4208627Y6765036D01*
X4221937Y6757873D01*
X4235958Y6752437D01*
X4238091Y6751878D01*
X4242003Y6749948D01*
X4244746Y6746595D01*
X4245813Y6742379D01*
X4245000Y6738061D01*
X4242460Y6734556D01*
X4238701Y6732371D01*
X4228846Y6729222D01*
X4215180Y6722922D01*
X4202379Y6714998D01*
X4190593Y6705549D01*
X4180128Y6694728D01*
X4171035Y6682689D01*
X4163517Y6669633D01*
X4157624Y6655765D01*
X4153509Y6641287D01*
X4151172Y6626402D01*
X4150715Y6611315D01*
X4152137Y6596329D01*
X4155338Y6581597D01*
X4160367Y6567373D01*
X4167073Y6553860D01*
X4175404Y6541312D01*
X4185208Y6529882D01*
X4196334Y6519722D01*
X4208627Y6511035D01*
X4221937Y6503873D01*
X4235958Y6498437D01*
X4250588Y6494780D01*
G37*
G36*
X6119368Y6576822D02*
G01*
X6176060Y6576822D01*
X6175095Y6578904D01*
X6167120Y6592112D01*
X6157620Y6604203D01*
X6146749Y6615074D01*
X6134658Y6624574D01*
X6121450Y6632549D01*
X6119368Y6633514D01*
G37*
G36*
X5948375Y6576822D02*
G01*
X6005068Y6576822D01*
X6005068Y6633514D01*
X6002985Y6632549D01*
X5989777Y6624574D01*
X5977686Y6615074D01*
X5966815Y6604203D01*
X5957316Y6592112D01*
X5949340Y6578904D01*
G37*
G36*
X6719062Y7725003D02*
G01*
X6757162Y7725003D01*
X6757162Y7797038D01*
X6692595Y7797038D01*
X6692595Y7751470D01*
X6693306Y7745171D01*
X6695236Y7739684D01*
X6698284Y7734808D01*
X6702399Y7730693D01*
X6707276Y7727594D01*
X6712762Y7725714D01*
G37*
G36*
X7109866Y7725003D02*
G01*
X7147915Y7725003D01*
X7154265Y7725714D01*
X7159701Y7727594D01*
X7164628Y7730693D01*
X7168692Y7734808D01*
X7171791Y7739684D01*
X7173671Y7745171D01*
X7174433Y7751470D01*
X7174433Y7797038D01*
X7109866Y7797038D01*
G37*
G36*
X6859828Y7725003D02*
G01*
X6897928Y7725003D01*
X6904228Y7725714D01*
X6909714Y7727594D01*
X6914591Y7730693D01*
X6918706Y7734808D01*
X6921804Y7739684D01*
X6923887Y7745780D01*
X6926072Y7749336D01*
X6929424Y7751724D01*
X6933488Y7752588D01*
X6937552Y7751724D01*
X6940956Y7749336D01*
X6943090Y7745780D01*
X6945223Y7739684D01*
X6948271Y7734808D01*
X6952386Y7730693D01*
X6957263Y7727594D01*
X6962749Y7725714D01*
X6969048Y7725003D01*
X7007148Y7725003D01*
X7007148Y7797038D01*
X6859828Y7797038D01*
G37*
G36*
X6692595Y7914741D02*
G01*
X6757162Y7914741D01*
X6757162Y7986826D01*
X6719062Y7986826D01*
X6712762Y7986115D01*
X6707276Y7984185D01*
X6702399Y7981086D01*
X6698284Y7977022D01*
X6695236Y7972094D01*
X6693306Y7966659D01*
X6692595Y7960309D01*
G37*
G36*
X7109866Y7914741D02*
G01*
X7174433Y7914741D01*
X7174433Y7960309D01*
X7173671Y7966659D01*
X7171791Y7972094D01*
X7168692Y7977022D01*
X7164628Y7981086D01*
X7159701Y7984185D01*
X7154265Y7986115D01*
X7147915Y7986826D01*
X7109866Y7986826D01*
G37*
G36*
X6859828Y7914741D02*
G01*
X7007148Y7914741D01*
X7007148Y7986826D01*
X6969048Y7986826D01*
X6962749Y7986115D01*
X6957263Y7984185D01*
X6952386Y7981086D01*
X6948271Y7977022D01*
X6945223Y7972094D01*
X6943090Y7966049D01*
X6940956Y7962493D01*
X6937552Y7960106D01*
X6933488Y7959242D01*
X6929424Y7960106D01*
X6926072Y7962493D01*
X6923887Y7966049D01*
X6921804Y7972094D01*
X6918706Y7977022D01*
X6914591Y7981086D01*
X6909714Y7984185D01*
X6904228Y7986115D01*
X6897928Y7986826D01*
X6859828Y7986826D01*
G37*
G36*
X9067800Y10099192D02*
G01*
X9088628Y10100157D01*
X9109303Y10103053D01*
X9129623Y10107828D01*
X9149384Y10114432D01*
X9168485Y10122865D01*
X9186722Y10133025D01*
X9203944Y10144810D01*
X9219996Y10158171D01*
X9234728Y10172903D01*
X9248089Y10188956D01*
X9259874Y10206177D01*
X9270034Y10224414D01*
X9278467Y10243515D01*
X9285071Y10263276D01*
X9289846Y10283596D01*
X9292742Y10304272D01*
X9293707Y10325100D01*
X9292742Y10345928D01*
X9289846Y10366603D01*
X9285071Y10386923D01*
X9278467Y10406684D01*
X9270034Y10425785D01*
X9259874Y10444022D01*
X9248089Y10461244D01*
X9234728Y10477296D01*
X9219996Y10492028D01*
X9203944Y10505389D01*
X9186722Y10517174D01*
X9168485Y10527334D01*
X9149384Y10535767D01*
X9129623Y10542371D01*
X9109303Y10547146D01*
X9088628Y10550042D01*
X9067800Y10551007D01*
X9046972Y10550042D01*
X9026296Y10547146D01*
X9005976Y10542371D01*
X8986215Y10535767D01*
X8967114Y10527334D01*
X8948877Y10517174D01*
X8931656Y10505389D01*
X8915603Y10492028D01*
X8900871Y10477296D01*
X8887510Y10461244D01*
X8875725Y10444022D01*
X8865565Y10425785D01*
X8857132Y10406684D01*
X8850528Y10386923D01*
X8845753Y10366603D01*
X8842857Y10345928D01*
X8841892Y10325100D01*
X8842857Y10304272D01*
X8845753Y10283596D01*
X8850528Y10263276D01*
X8857132Y10243515D01*
X8865565Y10224414D01*
X8875725Y10206177D01*
X8887510Y10188956D01*
X8900871Y10172903D01*
X8915603Y10158171D01*
X8931656Y10144810D01*
X8948877Y10133025D01*
X8967114Y10122865D01*
X8986215Y10114432D01*
X9005976Y10107828D01*
X9026296Y10103053D01*
X9046972Y10100157D01*
G37*
G36*
X1308100Y10099192D02*
G01*
X1328928Y10100157D01*
X1349603Y10103053D01*
X1369923Y10107828D01*
X1389684Y10114432D01*
X1408785Y10122865D01*
X1427022Y10133025D01*
X1444244Y10144810D01*
X1460296Y10158171D01*
X1475028Y10172903D01*
X1488389Y10188956D01*
X1500174Y10206177D01*
X1510334Y10224414D01*
X1518767Y10243515D01*
X1525371Y10263276D01*
X1530146Y10283596D01*
X1533042Y10304272D01*
X1534007Y10325100D01*
X1533042Y10345928D01*
X1530146Y10366603D01*
X1525371Y10386923D01*
X1518767Y10406684D01*
X1510334Y10425785D01*
X1500174Y10444022D01*
X1488389Y10461244D01*
X1475028Y10477296D01*
X1460296Y10492028D01*
X1444244Y10505389D01*
X1427022Y10517174D01*
X1408785Y10527334D01*
X1389684Y10535767D01*
X1369923Y10542371D01*
X1349603Y10547146D01*
X1328928Y10550042D01*
X1308100Y10551007D01*
X1287272Y10550042D01*
X1266596Y10547146D01*
X1246276Y10542371D01*
X1226515Y10535767D01*
X1207414Y10527334D01*
X1189177Y10517174D01*
X1171956Y10505389D01*
X1155903Y10492028D01*
X1141171Y10477296D01*
X1127810Y10461244D01*
X1116025Y10444022D01*
X1105865Y10425785D01*
X1097432Y10406684D01*
X1090828Y10386923D01*
X1086053Y10366603D01*
X1083157Y10345928D01*
X1082192Y10325100D01*
X1083157Y10304272D01*
X1086053Y10283596D01*
X1090828Y10263276D01*
X1097432Y10243515D01*
X1105865Y10224414D01*
X1116025Y10206177D01*
X1127810Y10188956D01*
X1141171Y10172903D01*
X1155903Y10158171D01*
X1171956Y10144810D01*
X1189177Y10133025D01*
X1207414Y10122865D01*
X1226515Y10114432D01*
X1246276Y10107828D01*
X1266596Y10103053D01*
X1287272Y10100157D01*
G37*
G36*
X6859828Y10224973D02*
G01*
X6897928Y10224973D01*
X6904228Y10225684D01*
X6909714Y10227614D01*
X6914591Y10230713D01*
X6918706Y10234777D01*
X6921804Y10239705D01*
X6923684Y10245140D01*
X6924395Y10251490D01*
X6924395Y10297058D01*
X6859828Y10297058D01*
G37*
G36*
X6719062Y10224973D02*
G01*
X6757162Y10224973D01*
X6757162Y10297058D01*
X6692595Y10297058D01*
X6692595Y10251490D01*
X6693306Y10245140D01*
X6695236Y10239705D01*
X6698284Y10234777D01*
X6702399Y10230713D01*
X6707276Y10227614D01*
X6712762Y10225684D01*
G37*
G36*
X8609838Y10224973D02*
G01*
X8647938Y10224973D01*
X8654237Y10225684D01*
X8659723Y10227614D01*
X8664600Y10230713D01*
X8668715Y10234777D01*
X8671763Y10239705D01*
X8673693Y10245140D01*
X8674404Y10251490D01*
X8674404Y10297058D01*
X8609838Y10297058D01*
G37*
G36*
X8469071Y10224973D02*
G01*
X8507171Y10224973D01*
X8507171Y10297058D01*
X8442604Y10297058D01*
X8442604Y10251490D01*
X8443315Y10245140D01*
X8445195Y10239705D01*
X8448294Y10234777D01*
X8452408Y10230713D01*
X8457285Y10227614D01*
X8462721Y10225684D01*
G37*
G36*
X6859828Y10414762D02*
G01*
X6924395Y10414762D01*
X6924395Y10460329D01*
X6923684Y10466628D01*
X6921804Y10472115D01*
X6918706Y10476992D01*
X6914591Y10481106D01*
X6909714Y10484205D01*
X6904228Y10486085D01*
X6897928Y10486796D01*
X6859828Y10486796D01*
G37*
G36*
X6692595Y10414762D02*
G01*
X6757162Y10414762D01*
X6757162Y10486796D01*
X6719062Y10486796D01*
X6712762Y10486085D01*
X6707276Y10484205D01*
X6702399Y10481106D01*
X6698284Y10476992D01*
X6695236Y10472115D01*
X6693306Y10466628D01*
X6692595Y10460329D01*
G37*
G36*
X8442604Y10414762D02*
G01*
X8507171Y10414762D01*
X8507171Y10486796D01*
X8469071Y10486796D01*
X8462721Y10486085D01*
X8457285Y10484205D01*
X8452408Y10481106D01*
X8448294Y10476992D01*
X8445195Y10472115D01*
X8443315Y10466628D01*
X8442604Y10460329D01*
G37*
G36*
X8609838Y10414762D02*
G01*
X8674404Y10414762D01*
X8674404Y10460329D01*
X8673693Y10466628D01*
X8671763Y10472115D01*
X8668715Y10476992D01*
X8664600Y10481106D01*
X8659723Y10484205D01*
X8654237Y10486085D01*
X8647938Y10486796D01*
X8609838Y10486796D01*
G37*

%LPD*%
D10*
X5334000Y8661400D02*
G01*
X4287415Y8661400D01*
X4273090Y8647074D01*
X8562088Y6265674D02*
G01*
X8308088Y6519674D01*
X6062220Y6519674D01*
X8440574Y10355912D02*
G01*
X8440574Y10414866D01*
X8360285Y10495155D01*
X7006694Y10495155D01*
X6926404Y10414866D01*
X6926404Y10355912D01*
X8558507Y10355912D02*
G01*
X8440574Y10355912D01*
X6808497Y10355912D02*
G01*
X6926404Y10355912D01*
X6808497Y7855917D02*
G01*
X7058510Y7855917D01*
X6062220Y6519674D02*
G01*
X4431692Y6519674D01*
X4273095Y6361076D01*
X4273095Y6361076D02*
G01*
X1796087Y6361076D01*
D11*
X6062220Y6265674D02*
G01*
X4431692Y6265674D01*
X4273095Y6107076D01*
D10*
X7808495Y7855917D02*
G01*
X7075655Y7123076D01*
X4273095Y7123076D01*
X4273041Y8139176D02*
G01*
X5591556Y8139176D01*
X7808468Y10355834D01*
X7308595Y10355834D02*
G01*
X6629908Y9677400D01*
X4273041Y9677400D01*
X4273041Y9663176D01*
X7558506Y7855915D02*
G01*
X7538415Y7855915D01*
X6985000Y7302500D01*
X4889500Y7302500D01*
X7558509Y10355912D02*
G01*
X5595673Y8393076D01*
X4273095Y8393076D01*
D12*
G01*
X4273092Y6107074D03*
G01*
X4273092Y6361074D03*
G01*
X4273092Y6615074D03*
G01*
X4273092Y6869074D03*
G01*
X4273092Y7123074D03*
G01*
X4273092Y7377074D03*
G01*
X4273092Y7631074D03*
G01*
X4273092Y7885074D03*
G01*
X4273092Y8139074D03*
G01*
X4273092Y8393074D03*
G01*
X4273092Y8647074D03*
G01*
X4273092Y8901074D03*
G01*
X4273092Y9155074D03*
G01*
X4273092Y9409074D03*
G01*
X4273092Y9663074D03*
G01*
X1796084Y9663074D03*
G01*
X1796084Y9409074D03*
G01*
X1796084Y9155074D03*
G01*
X1796084Y8901074D03*
G01*
X1796084Y8647074D03*
G01*
X1796084Y8393074D03*
G01*
X1796084Y8139074D03*
G01*
X1796084Y7885074D03*
G01*
X1796084Y7631074D03*
G01*
X1796084Y7377074D03*
G01*
X1796084Y7123074D03*
G01*
X1796084Y6869074D03*
G01*
X1796084Y6615074D03*
G01*
X1796084Y6361074D03*
G01*
X1796084Y6107074D03*
D13*
G01*
X7058507Y7855915D03*
D14*
G01*
X7308494Y7855915D03*
G01*
X7558506Y7855915D03*
D13*
G01*
X6808495Y7855915D03*
D14*
G01*
X7808493Y7855915D03*
G01*
X8058505Y7855915D03*
G01*
X8308492Y7855915D03*
G01*
X8558504Y7855915D03*
D13*
G01*
X6808495Y10355910D03*
D14*
G01*
X7058507Y10355910D03*
G01*
X7308494Y10355910D03*
G01*
X7558506Y10355910D03*
G01*
X7808493Y10355910D03*
G01*
X8058505Y10355910D03*
G01*
X8308492Y10355910D03*
D13*
G01*
X8558504Y10355910D03*
D15*
G01*
X8562086Y5503671D03*
G01*
X8562086Y5249671D03*
D16*
G01*
X8562213Y4995798D03*
D15*
G01*
X8562086Y5757671D03*
G01*
X8562086Y6011671D03*
G01*
X8562086Y6265671D03*
D16*
G01*
X6062218Y5503798D03*
D15*
G01*
X6062218Y5757671D03*
G01*
X6062218Y6011671D03*
G01*
X6062218Y6265671D03*
G01*
X6062218Y6519671D03*
G01*
X8562086Y6519671D03*
D17*
G01*
X1308100Y10325100D03*
G01*
X9067800Y10325100D03*
G01*
X9067800Y4508500D03*
G01*
X1320800Y4521200D03*
D18*
G01*
X5334000Y8661400D03*
D19*
G01*
X4889500Y7302500D03*
M02*
