G04 Layer: TopSilkscreenLayer*
G04 EasyEDA v6.5.47, 2024-09-23 10:33:38*
G04 d3944284b6e04abc8746af3109f317fc,455023a0ac88494abd61f565c8365122,10*
G04 Gerber Generator version 0.2*
G04 Scale: 100 percent, Rotated: No, Reflected: No *
G04 Dimensions in millimeters *
G04 leading zeros omitted , absolute positions ,4 integer and 5 decimal *
%FSLAX45Y45*%
%MOMM*%

%ADD10C,0.2032*%
%ADD11C,0.1524*%
%ADD12C,0.0813*%
%ADD13C,0.1544*%
%ADD14C,0.2540*%
%ADD15C,0.0139*%

%LPD*%
D10*
X7249922Y5092700D02*
G01*
X7443724Y5092700D01*
X7249922Y5092700D02*
G01*
X7249922Y5157470D01*
X7259065Y5185155D01*
X7277608Y5203444D01*
X7296150Y5212842D01*
X7323836Y5221986D01*
X7369809Y5221986D01*
X7397750Y5212842D01*
X7416038Y5203444D01*
X7434579Y5185155D01*
X7443724Y5157470D01*
X7443724Y5092700D01*
X7277608Y5412231D02*
G01*
X7259065Y5393689D01*
X7249922Y5366004D01*
X7249922Y5329173D01*
X7259065Y5301487D01*
X7277608Y5282945D01*
X7296150Y5282945D01*
X7314438Y5292089D01*
X7323836Y5301487D01*
X7332979Y5320029D01*
X7351522Y5375402D01*
X7360665Y5393689D01*
X7369809Y5403087D01*
X7388352Y5412231D01*
X7416038Y5412231D01*
X7434579Y5393689D01*
X7443724Y5366004D01*
X7443724Y5329173D01*
X7434579Y5301487D01*
X7416038Y5282945D01*
X7286752Y5473192D02*
G01*
X7277608Y5491734D01*
X7249922Y5519420D01*
X7443724Y5519420D01*
X7249922Y5598921D02*
G01*
X7249922Y5700521D01*
X7323836Y5645150D01*
X7323836Y5672836D01*
X7332979Y5691123D01*
X7342124Y5700521D01*
X7369809Y5709665D01*
X7388352Y5709665D01*
X7416038Y5700521D01*
X7434579Y5681979D01*
X7443724Y5654294D01*
X7443724Y5626607D01*
X7434579Y5598921D01*
X7425436Y5589523D01*
X7406893Y5580379D01*
X7249922Y5825997D02*
G01*
X7259065Y5798312D01*
X7286752Y5779770D01*
X7332979Y5770626D01*
X7360665Y5770626D01*
X7406893Y5779770D01*
X7434579Y5798312D01*
X7443724Y5825997D01*
X7443724Y5844539D01*
X7434579Y5872226D01*
X7406893Y5890768D01*
X7360665Y5899912D01*
X7332979Y5899912D01*
X7286752Y5890768D01*
X7259065Y5872226D01*
X7249922Y5844539D01*
X7249922Y5825997D01*
X7249922Y6090157D02*
G01*
X7443724Y5997955D01*
X7249922Y5960871D02*
G01*
X7249922Y6090157D01*
X7249922Y6293357D02*
G01*
X7443724Y6293357D01*
X7249922Y6293357D02*
G01*
X7249922Y6376670D01*
X7259065Y6404355D01*
X7268209Y6413500D01*
X7286752Y6422644D01*
X7305293Y6422644D01*
X7323836Y6413500D01*
X7332979Y6404355D01*
X7342124Y6376670D01*
X7342124Y6293357D01*
X7342124Y6358128D02*
G01*
X7443724Y6422644D01*
X7249922Y6548373D02*
G01*
X7443724Y6548373D01*
X7249922Y6483604D02*
G01*
X7249922Y6612889D01*
X7296150Y6812534D02*
G01*
X7277608Y6803389D01*
X7259065Y6784847D01*
X7249922Y6766305D01*
X7249922Y6729476D01*
X7259065Y6710934D01*
X7277608Y6692392D01*
X7296150Y6683247D01*
X7323836Y6673850D01*
X7369809Y6673850D01*
X7397750Y6683247D01*
X7416038Y6692392D01*
X7434579Y6710934D01*
X7443724Y6729476D01*
X7443724Y6766305D01*
X7434579Y6784847D01*
X7416038Y6803389D01*
X7397750Y6812534D01*
D11*
X3086100Y10559287D02*
G01*
X3096513Y10564621D01*
X3112008Y10580115D01*
X3112008Y10471150D01*
D12*
X4029900Y6019812D02*
G01*
X3979100Y6019812D01*
X4006786Y6056642D01*
X3992816Y6056642D01*
X3983672Y6061214D01*
X3979100Y6066040D01*
X3974528Y6079756D01*
X3974528Y6088900D01*
X3979100Y6102870D01*
X3988244Y6112014D01*
X4002214Y6116840D01*
X4015930Y6116840D01*
X4029900Y6112014D01*
X4034472Y6107442D01*
X4039044Y6098298D01*
X3944048Y6019812D02*
G01*
X3906964Y6116840D01*
X3870134Y6019812D02*
G01*
X3906964Y6116840D01*
X3830256Y6019812D02*
G01*
X3779456Y6019812D01*
X3807142Y6056642D01*
X3793426Y6056642D01*
X3784028Y6061214D01*
X3779456Y6066040D01*
X3774884Y6079756D01*
X3774884Y6088900D01*
X3779456Y6102870D01*
X3788854Y6112014D01*
X3802570Y6116840D01*
X3816540Y6116840D01*
X3830256Y6112014D01*
X3834828Y6107442D01*
X3839654Y6098298D01*
X3969702Y6296926D02*
G01*
X3974528Y6287528D01*
X3983672Y6278384D01*
X3992816Y6273812D01*
X4011358Y6273812D01*
X4020502Y6278384D01*
X4029900Y6287528D01*
X4034472Y6296926D01*
X4039044Y6310642D01*
X4039044Y6333756D01*
X4034472Y6347726D01*
X4029900Y6356870D01*
X4020502Y6366014D01*
X4011358Y6370840D01*
X3992816Y6370840D01*
X3983672Y6366014D01*
X3974528Y6356870D01*
X3969702Y6347726D01*
X3969702Y6333756D01*
X3992816Y6333756D02*
G01*
X3969702Y6333756D01*
X3939222Y6273812D02*
G01*
X3939222Y6370840D01*
X3939222Y6273812D02*
G01*
X3874706Y6370840D01*
X3874706Y6273812D02*
G01*
X3874706Y6370840D01*
X3844226Y6273812D02*
G01*
X3844226Y6370840D01*
X3844226Y6273812D02*
G01*
X3811968Y6273812D01*
X3797998Y6278384D01*
X3788854Y6287528D01*
X3784028Y6296926D01*
X3779456Y6310642D01*
X3779456Y6333756D01*
X3784028Y6347726D01*
X3788854Y6356870D01*
X3797998Y6366014D01*
X3811968Y6370840D01*
X3844226Y6370840D01*
X4039044Y6527812D02*
G01*
X4039044Y6624840D01*
X3980878Y6527812D02*
G01*
X3990022Y6532384D01*
X3999420Y6541528D01*
X4003992Y6550926D01*
X4008564Y6564642D01*
X4008564Y6587756D01*
X4003992Y6601726D01*
X3999420Y6610870D01*
X3990022Y6620014D01*
X3980878Y6624840D01*
X3962336Y6624840D01*
X3953192Y6620014D01*
X3944048Y6610870D01*
X3939222Y6601726D01*
X3934650Y6587756D01*
X3934650Y6564642D01*
X3939222Y6550926D01*
X3944048Y6541528D01*
X3953192Y6532384D01*
X3962336Y6527812D01*
X3980878Y6527812D01*
X3904170Y6546100D02*
G01*
X3895026Y6541528D01*
X3881056Y6527812D01*
X3881056Y6624840D01*
X3795204Y6527812D02*
G01*
X3841432Y6527812D01*
X3846004Y6569214D01*
X3841432Y6564642D01*
X3827462Y6560070D01*
X3813746Y6560070D01*
X3799776Y6564642D01*
X3790632Y6574040D01*
X3786060Y6587756D01*
X3786060Y6596900D01*
X3790632Y6610870D01*
X3799776Y6620014D01*
X3813746Y6624840D01*
X3827462Y6624840D01*
X3841432Y6620014D01*
X3846004Y6615442D01*
X3850576Y6606298D01*
X4039044Y6781812D02*
G01*
X4039044Y6878840D01*
X3980878Y6781812D02*
G01*
X3990022Y6786384D01*
X3999420Y6795528D01*
X4003992Y6804926D01*
X4008564Y6818642D01*
X4008564Y6841756D01*
X4003992Y6855726D01*
X3999420Y6864870D01*
X3990022Y6874014D01*
X3980878Y6878840D01*
X3962336Y6878840D01*
X3953192Y6874014D01*
X3944048Y6864870D01*
X3939222Y6855726D01*
X3934650Y6841756D01*
X3934650Y6818642D01*
X3939222Y6804926D01*
X3944048Y6795528D01*
X3953192Y6786384D01*
X3962336Y6781812D01*
X3980878Y6781812D01*
X3899598Y6804926D02*
G01*
X3899598Y6800100D01*
X3895026Y6790956D01*
X3890454Y6786384D01*
X3881056Y6781812D01*
X3862768Y6781812D01*
X3853370Y6786384D01*
X3848798Y6790956D01*
X3844226Y6800100D01*
X3844226Y6809498D01*
X3848798Y6818642D01*
X3857942Y6832612D01*
X3904170Y6878840D01*
X3839654Y6878840D01*
X4039044Y7035812D02*
G01*
X4039044Y7132840D01*
X3980878Y7035812D02*
G01*
X3990022Y7040384D01*
X3999420Y7049528D01*
X4003992Y7058926D01*
X4008564Y7072642D01*
X4008564Y7095756D01*
X4003992Y7109726D01*
X3999420Y7118870D01*
X3990022Y7128014D01*
X3980878Y7132840D01*
X3962336Y7132840D01*
X3953192Y7128014D01*
X3944048Y7118870D01*
X3939222Y7109726D01*
X3934650Y7095756D01*
X3934650Y7072642D01*
X3939222Y7058926D01*
X3944048Y7049528D01*
X3953192Y7040384D01*
X3962336Y7035812D01*
X3980878Y7035812D01*
X3857942Y7035812D02*
G01*
X3904170Y7100328D01*
X3834828Y7100328D01*
X3857942Y7035812D02*
G01*
X3857942Y7132840D01*
X4039044Y7289812D02*
G01*
X4039044Y7386840D01*
X3980878Y7289812D02*
G01*
X3990022Y7294384D01*
X3999420Y7303528D01*
X4003992Y7312926D01*
X4008564Y7326642D01*
X4008564Y7349756D01*
X4003992Y7363726D01*
X3999420Y7372870D01*
X3990022Y7382014D01*
X3980878Y7386840D01*
X3962336Y7386840D01*
X3953192Y7382014D01*
X3944048Y7372870D01*
X3939222Y7363726D01*
X3934650Y7349756D01*
X3934650Y7326642D01*
X3939222Y7312926D01*
X3944048Y7303528D01*
X3953192Y7294384D01*
X3962336Y7289812D01*
X3980878Y7289812D01*
X3904170Y7308100D02*
G01*
X3895026Y7303528D01*
X3881056Y7289812D01*
X3881056Y7386840D01*
X3795204Y7303528D02*
G01*
X3799776Y7294384D01*
X3813746Y7289812D01*
X3822890Y7289812D01*
X3836860Y7294384D01*
X3846004Y7308100D01*
X3850576Y7331214D01*
X3850576Y7354328D01*
X3846004Y7372870D01*
X3836860Y7382014D01*
X3822890Y7386840D01*
X3818318Y7386840D01*
X3804348Y7382014D01*
X3795204Y7372870D01*
X3790632Y7358900D01*
X3790632Y7354328D01*
X3795204Y7340612D01*
X3804348Y7331214D01*
X3818318Y7326642D01*
X3822890Y7326642D01*
X3836860Y7331214D01*
X3846004Y7340612D01*
X3850576Y7354328D01*
X4039044Y7543812D02*
G01*
X4039044Y7640840D01*
X3980878Y7543812D02*
G01*
X3990022Y7548384D01*
X3999420Y7557528D01*
X4003992Y7566926D01*
X4008564Y7580642D01*
X4008564Y7603756D01*
X4003992Y7617726D01*
X3999420Y7626870D01*
X3990022Y7636014D01*
X3980878Y7640840D01*
X3962336Y7640840D01*
X3953192Y7636014D01*
X3944048Y7626870D01*
X3939222Y7617726D01*
X3934650Y7603756D01*
X3934650Y7580642D01*
X3939222Y7566926D01*
X3944048Y7557528D01*
X3953192Y7548384D01*
X3962336Y7543812D01*
X3980878Y7543812D01*
X3904170Y7562100D02*
G01*
X3895026Y7557528D01*
X3881056Y7543812D01*
X3881056Y7640840D01*
X3786060Y7543812D02*
G01*
X3832288Y7640840D01*
X3850576Y7543812D02*
G01*
X3786060Y7543812D01*
X4039044Y7797812D02*
G01*
X4039044Y7894840D01*
X3980878Y7797812D02*
G01*
X3990022Y7802384D01*
X3999420Y7811528D01*
X4003992Y7820926D01*
X4008564Y7834642D01*
X4008564Y7857756D01*
X4003992Y7871726D01*
X3999420Y7880870D01*
X3990022Y7890014D01*
X3980878Y7894840D01*
X3962336Y7894840D01*
X3953192Y7890014D01*
X3944048Y7880870D01*
X3939222Y7871726D01*
X3934650Y7857756D01*
X3934650Y7834642D01*
X3939222Y7820926D01*
X3944048Y7811528D01*
X3953192Y7802384D01*
X3962336Y7797812D01*
X3980878Y7797812D01*
X3848798Y7797812D02*
G01*
X3895026Y7797812D01*
X3899598Y7839214D01*
X3895026Y7834642D01*
X3881056Y7830070D01*
X3867340Y7830070D01*
X3853370Y7834642D01*
X3844226Y7844040D01*
X3839654Y7857756D01*
X3839654Y7866900D01*
X3844226Y7880870D01*
X3853370Y7890014D01*
X3867340Y7894840D01*
X3881056Y7894840D01*
X3895026Y7890014D01*
X3899598Y7885442D01*
X3904170Y7876298D01*
X4039044Y8051812D02*
G01*
X4039044Y8148840D01*
X3980878Y8051812D02*
G01*
X3990022Y8056384D01*
X3999420Y8065528D01*
X4003992Y8074926D01*
X4008564Y8088642D01*
X4008564Y8111756D01*
X4003992Y8125726D01*
X3999420Y8134870D01*
X3990022Y8144014D01*
X3980878Y8148840D01*
X3962336Y8148840D01*
X3953192Y8144014D01*
X3944048Y8134870D01*
X3939222Y8125726D01*
X3934650Y8111756D01*
X3934650Y8088642D01*
X3939222Y8074926D01*
X3944048Y8065528D01*
X3953192Y8056384D01*
X3962336Y8051812D01*
X3980878Y8051812D01*
X3904170Y8070100D02*
G01*
X3895026Y8065528D01*
X3881056Y8051812D01*
X3881056Y8148840D01*
X3827462Y8051812D02*
G01*
X3841432Y8056384D01*
X3846004Y8065528D01*
X3846004Y8074926D01*
X3841432Y8084070D01*
X3832288Y8088642D01*
X3813746Y8093214D01*
X3799776Y8098040D01*
X3790632Y8107184D01*
X3786060Y8116328D01*
X3786060Y8130298D01*
X3790632Y8139442D01*
X3795204Y8144014D01*
X3809174Y8148840D01*
X3827462Y8148840D01*
X3841432Y8144014D01*
X3846004Y8139442D01*
X3850576Y8130298D01*
X3850576Y8116328D01*
X3846004Y8107184D01*
X3836860Y8098040D01*
X3822890Y8093214D01*
X3804348Y8088642D01*
X3795204Y8084070D01*
X3790632Y8074926D01*
X3790632Y8065528D01*
X3795204Y8056384D01*
X3809174Y8051812D01*
X3827462Y8051812D01*
X4039044Y8305812D02*
G01*
X4039044Y8402840D01*
X3980878Y8305812D02*
G01*
X3990022Y8310384D01*
X3999420Y8319528D01*
X4003992Y8328926D01*
X4008564Y8342642D01*
X4008564Y8365756D01*
X4003992Y8379726D01*
X3999420Y8388870D01*
X3990022Y8398014D01*
X3980878Y8402840D01*
X3962336Y8402840D01*
X3953192Y8398014D01*
X3944048Y8388870D01*
X3939222Y8379726D01*
X3934650Y8365756D01*
X3934650Y8342642D01*
X3939222Y8328926D01*
X3944048Y8319528D01*
X3953192Y8310384D01*
X3962336Y8305812D01*
X3980878Y8305812D01*
X3904170Y8324100D02*
G01*
X3895026Y8319528D01*
X3881056Y8305812D01*
X3881056Y8402840D01*
X3790632Y8338070D02*
G01*
X3795204Y8352040D01*
X3804348Y8361184D01*
X3818318Y8365756D01*
X3822890Y8365756D01*
X3836860Y8361184D01*
X3846004Y8352040D01*
X3850576Y8338070D01*
X3850576Y8333498D01*
X3846004Y8319528D01*
X3836860Y8310384D01*
X3822890Y8305812D01*
X3818318Y8305812D01*
X3804348Y8310384D01*
X3795204Y8319528D01*
X3790632Y8338070D01*
X3790632Y8361184D01*
X3795204Y8384298D01*
X3804348Y8398014D01*
X3818318Y8402840D01*
X3827462Y8402840D01*
X3841432Y8398014D01*
X3846004Y8388870D01*
X4039044Y8559812D02*
G01*
X4039044Y8656840D01*
X3980878Y8559812D02*
G01*
X3990022Y8564384D01*
X3999420Y8573528D01*
X4003992Y8582926D01*
X4008564Y8596642D01*
X4008564Y8619756D01*
X4003992Y8633726D01*
X3999420Y8642870D01*
X3990022Y8652014D01*
X3980878Y8656840D01*
X3962336Y8656840D01*
X3953192Y8652014D01*
X3944048Y8642870D01*
X3939222Y8633726D01*
X3934650Y8619756D01*
X3934650Y8596642D01*
X3939222Y8582926D01*
X3944048Y8573528D01*
X3953192Y8564384D01*
X3962336Y8559812D01*
X3980878Y8559812D01*
X3899598Y8582926D02*
G01*
X3899598Y8578100D01*
X3895026Y8568956D01*
X3890454Y8564384D01*
X3881056Y8559812D01*
X3862768Y8559812D01*
X3853370Y8564384D01*
X3848798Y8568956D01*
X3844226Y8578100D01*
X3844226Y8587498D01*
X3848798Y8596642D01*
X3857942Y8610612D01*
X3904170Y8656840D01*
X3839654Y8656840D01*
X3809174Y8578100D02*
G01*
X3799776Y8573528D01*
X3786060Y8559812D01*
X3786060Y8656840D01*
X4039044Y8813812D02*
G01*
X4039044Y8910840D01*
X3980878Y8813812D02*
G01*
X3990022Y8818384D01*
X3999420Y8827528D01*
X4003992Y8836926D01*
X4008564Y8850642D01*
X4008564Y8873756D01*
X4003992Y8887726D01*
X3999420Y8896870D01*
X3990022Y8906014D01*
X3980878Y8910840D01*
X3962336Y8910840D01*
X3953192Y8906014D01*
X3944048Y8896870D01*
X3939222Y8887726D01*
X3934650Y8873756D01*
X3934650Y8850642D01*
X3939222Y8836926D01*
X3944048Y8827528D01*
X3953192Y8818384D01*
X3962336Y8813812D01*
X3980878Y8813812D01*
X3895026Y8813812D02*
G01*
X3844226Y8813812D01*
X3871912Y8850642D01*
X3857942Y8850642D01*
X3848798Y8855214D01*
X3844226Y8860040D01*
X3839654Y8873756D01*
X3839654Y8882900D01*
X3844226Y8896870D01*
X3853370Y8906014D01*
X3867340Y8910840D01*
X3881056Y8910840D01*
X3895026Y8906014D01*
X3899598Y8901442D01*
X3904170Y8892298D01*
X4039044Y9067812D02*
G01*
X4039044Y9164840D01*
X3980878Y9067812D02*
G01*
X3990022Y9072384D01*
X3999420Y9081528D01*
X4003992Y9090926D01*
X4008564Y9104642D01*
X4008564Y9127756D01*
X4003992Y9141726D01*
X3999420Y9150870D01*
X3990022Y9160014D01*
X3980878Y9164840D01*
X3962336Y9164840D01*
X3953192Y9160014D01*
X3944048Y9150870D01*
X3939222Y9141726D01*
X3934650Y9127756D01*
X3934650Y9104642D01*
X3939222Y9090926D01*
X3944048Y9081528D01*
X3953192Y9072384D01*
X3962336Y9067812D01*
X3980878Y9067812D01*
X3904170Y9086100D02*
G01*
X3895026Y9081528D01*
X3881056Y9067812D01*
X3881056Y9164840D01*
X4039044Y9321812D02*
G01*
X4039044Y9418840D01*
X3980878Y9321812D02*
G01*
X3990022Y9326384D01*
X3999420Y9335528D01*
X4003992Y9344926D01*
X4008564Y9358642D01*
X4008564Y9381756D01*
X4003992Y9395726D01*
X3999420Y9404870D01*
X3990022Y9414014D01*
X3980878Y9418840D01*
X3962336Y9418840D01*
X3953192Y9414014D01*
X3944048Y9404870D01*
X3939222Y9395726D01*
X3934650Y9381756D01*
X3934650Y9358642D01*
X3939222Y9344926D01*
X3944048Y9335528D01*
X3953192Y9326384D01*
X3962336Y9321812D01*
X3980878Y9321812D01*
X3899598Y9344926D02*
G01*
X3899598Y9340100D01*
X3895026Y9330956D01*
X3890454Y9326384D01*
X3881056Y9321812D01*
X3862768Y9321812D01*
X3853370Y9326384D01*
X3848798Y9330956D01*
X3844226Y9340100D01*
X3844226Y9349498D01*
X3848798Y9358642D01*
X3857942Y9372612D01*
X3904170Y9418840D01*
X3839654Y9418840D01*
X3804348Y9344926D02*
G01*
X3804348Y9340100D01*
X3799776Y9330956D01*
X3795204Y9326384D01*
X3786060Y9321812D01*
X3767518Y9321812D01*
X3758374Y9326384D01*
X3753548Y9330956D01*
X3748976Y9340100D01*
X3748976Y9349498D01*
X3753548Y9358642D01*
X3762946Y9372612D01*
X3809174Y9418840D01*
X3744404Y9418840D01*
X4039044Y9575812D02*
G01*
X4039044Y9672840D01*
X3980878Y9575812D02*
G01*
X3990022Y9580384D01*
X3999420Y9589528D01*
X4003992Y9598926D01*
X4008564Y9612642D01*
X4008564Y9635756D01*
X4003992Y9649726D01*
X3999420Y9658870D01*
X3990022Y9668014D01*
X3980878Y9672840D01*
X3962336Y9672840D01*
X3953192Y9668014D01*
X3944048Y9658870D01*
X3939222Y9649726D01*
X3934650Y9635756D01*
X3934650Y9612642D01*
X3939222Y9598926D01*
X3944048Y9589528D01*
X3953192Y9580384D01*
X3962336Y9575812D01*
X3980878Y9575812D01*
X3899598Y9598926D02*
G01*
X3899598Y9594100D01*
X3895026Y9584956D01*
X3890454Y9580384D01*
X3881056Y9575812D01*
X3862768Y9575812D01*
X3853370Y9580384D01*
X3848798Y9584956D01*
X3844226Y9594100D01*
X3844226Y9603498D01*
X3848798Y9612642D01*
X3857942Y9626612D01*
X3904170Y9672840D01*
X3839654Y9672840D01*
X3799776Y9575812D02*
G01*
X3748976Y9575812D01*
X3776662Y9612642D01*
X3762946Y9612642D01*
X3753548Y9617214D01*
X3748976Y9622040D01*
X3744404Y9635756D01*
X3744404Y9644900D01*
X3748976Y9658870D01*
X3758374Y9668014D01*
X3772090Y9672840D01*
X3786060Y9672840D01*
X3799776Y9668014D01*
X3804348Y9663442D01*
X3809174Y9654298D01*
X2267038Y6021641D02*
G01*
X2230208Y6118669D01*
X2193124Y6021641D02*
G01*
X2230208Y6118669D01*
X2162644Y6021641D02*
G01*
X2162644Y6118669D01*
X2132164Y6021641D02*
G01*
X2132164Y6118669D01*
X2132164Y6021641D02*
G01*
X2067648Y6118669D01*
X2067648Y6021641D02*
G01*
X2067648Y6118669D01*
X2197696Y6298755D02*
G01*
X2202522Y6289611D01*
X2211666Y6280467D01*
X2220810Y6275641D01*
X2239352Y6275641D01*
X2248496Y6280467D01*
X2257894Y6289611D01*
X2262466Y6298755D01*
X2267038Y6312725D01*
X2267038Y6335839D01*
X2262466Y6349555D01*
X2257894Y6358953D01*
X2248496Y6368097D01*
X2239352Y6372669D01*
X2220810Y6372669D01*
X2211666Y6368097D01*
X2202522Y6358953D01*
X2197696Y6349555D01*
X2197696Y6335839D01*
X2220810Y6335839D02*
G01*
X2197696Y6335839D01*
X2167216Y6275641D02*
G01*
X2167216Y6372669D01*
X2167216Y6275641D02*
G01*
X2102700Y6372669D01*
X2102700Y6275641D02*
G01*
X2102700Y6372669D01*
X2072220Y6275641D02*
G01*
X2072220Y6372669D01*
X2072220Y6275641D02*
G01*
X2039962Y6275641D01*
X2025992Y6280467D01*
X2016848Y6289611D01*
X2012276Y6298755D01*
X2007450Y6312725D01*
X2007450Y6335839D01*
X2012276Y6349555D01*
X2016848Y6358953D01*
X2025992Y6368097D01*
X2039962Y6372669D01*
X2072220Y6372669D01*
X2267038Y6529641D02*
G01*
X2267038Y6626669D01*
X2208872Y6529641D02*
G01*
X2218016Y6534467D01*
X2227414Y6543611D01*
X2231986Y6552755D01*
X2236558Y6566725D01*
X2236558Y6589839D01*
X2231986Y6603555D01*
X2227414Y6612953D01*
X2218016Y6622097D01*
X2208872Y6626669D01*
X2190330Y6626669D01*
X2181186Y6622097D01*
X2172042Y6612953D01*
X2167216Y6603555D01*
X2162644Y6589839D01*
X2162644Y6566725D01*
X2167216Y6552755D01*
X2172042Y6543611D01*
X2181186Y6534467D01*
X2190330Y6529641D01*
X2208872Y6529641D01*
X2132164Y6548183D02*
G01*
X2123020Y6543611D01*
X2109050Y6529641D01*
X2109050Y6626669D01*
X2069426Y6529641D02*
G01*
X2018626Y6529641D01*
X2046312Y6566725D01*
X2032596Y6566725D01*
X2023198Y6571297D01*
X2018626Y6575869D01*
X2014054Y6589839D01*
X2014054Y6598983D01*
X2018626Y6612953D01*
X2027770Y6622097D01*
X2041740Y6626669D01*
X2055456Y6626669D01*
X2069426Y6622097D01*
X2073998Y6617525D01*
X2078570Y6608381D01*
X2267038Y6783641D02*
G01*
X2267038Y6880669D01*
X2208872Y6783641D02*
G01*
X2218016Y6788467D01*
X2227414Y6797611D01*
X2231986Y6806755D01*
X2236558Y6820725D01*
X2236558Y6843839D01*
X2231986Y6857555D01*
X2227414Y6866953D01*
X2218016Y6876097D01*
X2208872Y6880669D01*
X2190330Y6880669D01*
X2181186Y6876097D01*
X2172042Y6866953D01*
X2167216Y6857555D01*
X2162644Y6843839D01*
X2162644Y6820725D01*
X2167216Y6806755D01*
X2172042Y6797611D01*
X2181186Y6788467D01*
X2190330Y6783641D01*
X2208872Y6783641D01*
X2132164Y6802183D02*
G01*
X2123020Y6797611D01*
X2109050Y6783641D01*
X2109050Y6880669D01*
X2073998Y6806755D02*
G01*
X2073998Y6802183D01*
X2069426Y6793039D01*
X2064854Y6788467D01*
X2055456Y6783641D01*
X2037168Y6783641D01*
X2027770Y6788467D01*
X2023198Y6793039D01*
X2018626Y6802183D01*
X2018626Y6811581D01*
X2023198Y6820725D01*
X2032596Y6834441D01*
X2078570Y6880669D01*
X2014054Y6880669D01*
X2267038Y7037641D02*
G01*
X2267038Y7134669D01*
X2208872Y7037641D02*
G01*
X2218016Y7042467D01*
X2227414Y7051611D01*
X2231986Y7060755D01*
X2236558Y7074725D01*
X2236558Y7097839D01*
X2231986Y7111555D01*
X2227414Y7120953D01*
X2218016Y7130097D01*
X2208872Y7134669D01*
X2190330Y7134669D01*
X2181186Y7130097D01*
X2172042Y7120953D01*
X2167216Y7111555D01*
X2162644Y7097839D01*
X2162644Y7074725D01*
X2167216Y7060755D01*
X2172042Y7051611D01*
X2181186Y7042467D01*
X2190330Y7037641D01*
X2208872Y7037641D01*
X2132164Y7056183D02*
G01*
X2123020Y7051611D01*
X2109050Y7037641D01*
X2109050Y7134669D01*
X2032596Y7037641D02*
G01*
X2078570Y7102411D01*
X2009482Y7102411D01*
X2032596Y7037641D02*
G01*
X2032596Y7134669D01*
X2267038Y7291641D02*
G01*
X2267038Y7388669D01*
X2208872Y7291641D02*
G01*
X2218016Y7296467D01*
X2227414Y7305611D01*
X2231986Y7314755D01*
X2236558Y7328725D01*
X2236558Y7351839D01*
X2231986Y7365555D01*
X2227414Y7374953D01*
X2218016Y7384097D01*
X2208872Y7388669D01*
X2190330Y7388669D01*
X2181186Y7384097D01*
X2172042Y7374953D01*
X2167216Y7365555D01*
X2162644Y7351839D01*
X2162644Y7328725D01*
X2167216Y7314755D01*
X2172042Y7305611D01*
X2181186Y7296467D01*
X2190330Y7291641D01*
X2208872Y7291641D01*
X2127592Y7314755D02*
G01*
X2127592Y7310183D01*
X2123020Y7301039D01*
X2118448Y7296467D01*
X2109050Y7291641D01*
X2090762Y7291641D01*
X2081364Y7296467D01*
X2076792Y7301039D01*
X2072220Y7310183D01*
X2072220Y7319581D01*
X2076792Y7328725D01*
X2085936Y7342441D01*
X2132164Y7388669D01*
X2067648Y7388669D01*
X1972398Y7291641D02*
G01*
X2018626Y7388669D01*
X2037168Y7291641D02*
G01*
X1972398Y7291641D01*
X2267038Y7545641D02*
G01*
X2267038Y7642669D01*
X2208872Y7545641D02*
G01*
X2218016Y7550467D01*
X2227414Y7559611D01*
X2231986Y7568755D01*
X2236558Y7582725D01*
X2236558Y7605839D01*
X2231986Y7619555D01*
X2227414Y7628953D01*
X2218016Y7638097D01*
X2208872Y7642669D01*
X2190330Y7642669D01*
X2181186Y7638097D01*
X2172042Y7628953D01*
X2167216Y7619555D01*
X2162644Y7605839D01*
X2162644Y7582725D01*
X2167216Y7568755D01*
X2172042Y7559611D01*
X2181186Y7550467D01*
X2190330Y7545641D01*
X2208872Y7545641D01*
X2127592Y7568755D02*
G01*
X2127592Y7564183D01*
X2123020Y7555039D01*
X2118448Y7550467D01*
X2109050Y7545641D01*
X2090762Y7545641D01*
X2081364Y7550467D01*
X2076792Y7555039D01*
X2072220Y7564183D01*
X2072220Y7573581D01*
X2076792Y7582725D01*
X2085936Y7596441D01*
X2132164Y7642669D01*
X2067648Y7642669D01*
X1981796Y7559611D02*
G01*
X1986368Y7550467D01*
X2000084Y7545641D01*
X2009482Y7545641D01*
X2023198Y7550467D01*
X2032596Y7564183D01*
X2037168Y7587297D01*
X2037168Y7610411D01*
X2032596Y7628953D01*
X2023198Y7638097D01*
X2009482Y7642669D01*
X2004656Y7642669D01*
X1990940Y7638097D01*
X1981796Y7628953D01*
X1976970Y7614983D01*
X1976970Y7610411D01*
X1981796Y7596441D01*
X1990940Y7587297D01*
X2004656Y7582725D01*
X2009482Y7582725D01*
X2023198Y7587297D01*
X2032596Y7596441D01*
X2037168Y7610411D01*
X2267038Y7799641D02*
G01*
X2267038Y7896669D01*
X2208872Y7799641D02*
G01*
X2218016Y7804467D01*
X2227414Y7813611D01*
X2231986Y7822755D01*
X2236558Y7836725D01*
X2236558Y7859839D01*
X2231986Y7873555D01*
X2227414Y7882953D01*
X2218016Y7892097D01*
X2208872Y7896669D01*
X2190330Y7896669D01*
X2181186Y7892097D01*
X2172042Y7882953D01*
X2167216Y7873555D01*
X2162644Y7859839D01*
X2162644Y7836725D01*
X2167216Y7822755D01*
X2172042Y7813611D01*
X2181186Y7804467D01*
X2190330Y7799641D01*
X2208872Y7799641D01*
X2127592Y7822755D02*
G01*
X2127592Y7818183D01*
X2123020Y7809039D01*
X2118448Y7804467D01*
X2109050Y7799641D01*
X2090762Y7799641D01*
X2081364Y7804467D01*
X2076792Y7809039D01*
X2072220Y7818183D01*
X2072220Y7827581D01*
X2076792Y7836725D01*
X2085936Y7850441D01*
X2132164Y7896669D01*
X2067648Y7896669D01*
X1981796Y7799641D02*
G01*
X2027770Y7799641D01*
X2032596Y7841297D01*
X2027770Y7836725D01*
X2014054Y7832153D01*
X2000084Y7832153D01*
X1986368Y7836725D01*
X1976970Y7845869D01*
X1972398Y7859839D01*
X1972398Y7868983D01*
X1976970Y7882953D01*
X1986368Y7892097D01*
X2000084Y7896669D01*
X2014054Y7896669D01*
X2027770Y7892097D01*
X2032596Y7887525D01*
X2037168Y7878381D01*
X2267038Y8053641D02*
G01*
X2267038Y8150669D01*
X2208872Y8053641D02*
G01*
X2218016Y8058467D01*
X2227414Y8067611D01*
X2231986Y8076755D01*
X2236558Y8090725D01*
X2236558Y8113839D01*
X2231986Y8127555D01*
X2227414Y8136953D01*
X2218016Y8146097D01*
X2208872Y8150669D01*
X2190330Y8150669D01*
X2181186Y8146097D01*
X2172042Y8136953D01*
X2167216Y8127555D01*
X2162644Y8113839D01*
X2162644Y8090725D01*
X2167216Y8076755D01*
X2172042Y8067611D01*
X2181186Y8058467D01*
X2190330Y8053641D01*
X2208872Y8053641D01*
X2123020Y8053641D02*
G01*
X2072220Y8053641D01*
X2099906Y8090725D01*
X2085936Y8090725D01*
X2076792Y8095297D01*
X2072220Y8099869D01*
X2067648Y8113839D01*
X2067648Y8122983D01*
X2072220Y8136953D01*
X2081364Y8146097D01*
X2095334Y8150669D01*
X2109050Y8150669D01*
X2123020Y8146097D01*
X2127592Y8141525D01*
X2132164Y8132381D01*
X2027770Y8053641D02*
G01*
X1976970Y8053641D01*
X2004656Y8090725D01*
X1990940Y8090725D01*
X1981796Y8095297D01*
X1976970Y8099869D01*
X1972398Y8113839D01*
X1972398Y8122983D01*
X1976970Y8136953D01*
X1986368Y8146097D01*
X2000084Y8150669D01*
X2014054Y8150669D01*
X2027770Y8146097D01*
X2032596Y8141525D01*
X2037168Y8132381D01*
X2267038Y8307641D02*
G01*
X2267038Y8404669D01*
X2208872Y8307641D02*
G01*
X2218016Y8312467D01*
X2227414Y8321611D01*
X2231986Y8330755D01*
X2236558Y8344725D01*
X2236558Y8367839D01*
X2231986Y8381555D01*
X2227414Y8390953D01*
X2218016Y8400097D01*
X2208872Y8404669D01*
X2190330Y8404669D01*
X2181186Y8400097D01*
X2172042Y8390953D01*
X2167216Y8381555D01*
X2162644Y8367839D01*
X2162644Y8344725D01*
X2167216Y8330755D01*
X2172042Y8321611D01*
X2181186Y8312467D01*
X2190330Y8307641D01*
X2208872Y8307641D01*
X2123020Y8307641D02*
G01*
X2072220Y8307641D01*
X2099906Y8344725D01*
X2085936Y8344725D01*
X2076792Y8349297D01*
X2072220Y8353869D01*
X2067648Y8367839D01*
X2067648Y8376983D01*
X2072220Y8390953D01*
X2081364Y8400097D01*
X2095334Y8404669D01*
X2109050Y8404669D01*
X2123020Y8400097D01*
X2127592Y8395525D01*
X2132164Y8386381D01*
X2032596Y8330755D02*
G01*
X2032596Y8326183D01*
X2027770Y8317039D01*
X2023198Y8312467D01*
X2014054Y8307641D01*
X1995512Y8307641D01*
X1986368Y8312467D01*
X1981796Y8317039D01*
X1976970Y8326183D01*
X1976970Y8335581D01*
X1981796Y8344725D01*
X1990940Y8358441D01*
X2037168Y8404669D01*
X1972398Y8404669D01*
X2267038Y8561641D02*
G01*
X2267038Y8658669D01*
X2208872Y8561641D02*
G01*
X2218016Y8566467D01*
X2227414Y8575611D01*
X2231986Y8584755D01*
X2236558Y8598725D01*
X2236558Y8621839D01*
X2231986Y8635555D01*
X2227414Y8644953D01*
X2218016Y8654097D01*
X2208872Y8658669D01*
X2190330Y8658669D01*
X2181186Y8654097D01*
X2172042Y8644953D01*
X2167216Y8635555D01*
X2162644Y8621839D01*
X2162644Y8598725D01*
X2167216Y8584755D01*
X2172042Y8575611D01*
X2181186Y8566467D01*
X2190330Y8561641D01*
X2208872Y8561641D01*
X2123020Y8561641D02*
G01*
X2072220Y8561641D01*
X2099906Y8598725D01*
X2085936Y8598725D01*
X2076792Y8603297D01*
X2072220Y8607869D01*
X2067648Y8621839D01*
X2067648Y8630983D01*
X2072220Y8644953D01*
X2081364Y8654097D01*
X2095334Y8658669D01*
X2109050Y8658669D01*
X2123020Y8654097D01*
X2127592Y8649525D01*
X2132164Y8640381D01*
X1981796Y8561641D02*
G01*
X2027770Y8561641D01*
X2032596Y8603297D01*
X2027770Y8598725D01*
X2014054Y8594153D01*
X2000084Y8594153D01*
X1986368Y8598725D01*
X1976970Y8607869D01*
X1972398Y8621839D01*
X1972398Y8630983D01*
X1976970Y8644953D01*
X1986368Y8654097D01*
X2000084Y8658669D01*
X2014054Y8658669D01*
X2027770Y8654097D01*
X2032596Y8649525D01*
X2037168Y8640381D01*
X2267038Y8815641D02*
G01*
X2267038Y8912669D01*
X2208872Y8815641D02*
G01*
X2218016Y8820467D01*
X2227414Y8829611D01*
X2231986Y8838755D01*
X2236558Y8852725D01*
X2236558Y8875839D01*
X2231986Y8889555D01*
X2227414Y8898953D01*
X2218016Y8908097D01*
X2208872Y8912669D01*
X2190330Y8912669D01*
X2181186Y8908097D01*
X2172042Y8898953D01*
X2167216Y8889555D01*
X2162644Y8875839D01*
X2162644Y8852725D01*
X2167216Y8838755D01*
X2172042Y8829611D01*
X2181186Y8820467D01*
X2190330Y8815641D01*
X2208872Y8815641D01*
X2123020Y8815641D02*
G01*
X2072220Y8815641D01*
X2099906Y8852725D01*
X2085936Y8852725D01*
X2076792Y8857297D01*
X2072220Y8861869D01*
X2067648Y8875839D01*
X2067648Y8884983D01*
X2072220Y8898953D01*
X2081364Y8908097D01*
X2095334Y8912669D01*
X2109050Y8912669D01*
X2123020Y8908097D01*
X2127592Y8903525D01*
X2132164Y8894381D01*
X1990940Y8815641D02*
G01*
X2037168Y8880411D01*
X1967826Y8880411D01*
X1990940Y8815641D02*
G01*
X1990940Y8912669D01*
X2267038Y9069641D02*
G01*
X2230208Y9166669D01*
X2193124Y9069641D02*
G01*
X2230208Y9166669D01*
X2162644Y9069641D02*
G01*
X2162644Y9166669D01*
X2162644Y9069641D02*
G01*
X2098128Y9166669D01*
X2098128Y9069641D02*
G01*
X2098128Y9166669D01*
X2267038Y9323641D02*
G01*
X2230208Y9420669D01*
X2193124Y9323641D02*
G01*
X2230208Y9420669D01*
X2162644Y9323641D02*
G01*
X2162644Y9420669D01*
X2162644Y9323641D02*
G01*
X2121242Y9323641D01*
X2107272Y9328467D01*
X2102700Y9333039D01*
X2098128Y9342183D01*
X2098128Y9356153D01*
X2102700Y9365297D01*
X2107272Y9369869D01*
X2121242Y9374441D01*
X2162644Y9374441D01*
X2267038Y9577641D02*
G01*
X2267038Y9674669D01*
X2267038Y9577641D02*
G01*
X2207094Y9577641D01*
X2267038Y9623869D02*
G01*
X2230208Y9623869D01*
X2267038Y9674669D02*
G01*
X2207094Y9674669D01*
X2176614Y9577641D02*
G01*
X2176614Y9674669D01*
X2176614Y9577641D02*
G01*
X2111844Y9674669D01*
X2111844Y9577641D02*
G01*
X2111844Y9674669D01*
D13*
X2851264Y6590652D02*
G01*
X3035668Y6590652D01*
X2851264Y6590652D02*
G01*
X2851264Y6704698D01*
X2939148Y6590652D02*
G01*
X2939148Y6660756D01*
X3035668Y6590652D02*
G01*
X3035668Y6704698D01*
X2877680Y6885546D02*
G01*
X2860154Y6868020D01*
X2851264Y6841604D01*
X2851264Y6806552D01*
X2860154Y6780136D01*
X2877680Y6762610D01*
X2895206Y6762610D01*
X2912732Y6771500D01*
X2921368Y6780136D01*
X2930258Y6797662D01*
X2947784Y6850494D01*
X2956674Y6868020D01*
X2965310Y6876656D01*
X2982836Y6885546D01*
X3009252Y6885546D01*
X3026778Y6868020D01*
X3035668Y6841604D01*
X3035668Y6806552D01*
X3026778Y6780136D01*
X3009252Y6762610D01*
X2851264Y6943458D02*
G01*
X3035668Y6943458D01*
X2851264Y6943458D02*
G01*
X2851264Y7022452D01*
X2860154Y7048614D01*
X2868790Y7057504D01*
X2886316Y7066140D01*
X2912732Y7066140D01*
X2930258Y7057504D01*
X2939148Y7048614D01*
X2947784Y7022452D01*
X2947784Y6943458D01*
X2851264Y7141832D02*
G01*
X2851264Y7238352D01*
X2921368Y7185520D01*
X2921368Y7211936D01*
X2930258Y7229462D01*
X2939148Y7238352D01*
X2965310Y7246988D01*
X2982836Y7246988D01*
X3009252Y7238352D01*
X3026778Y7220572D01*
X3035668Y7194410D01*
X3035668Y7167994D01*
X3026778Y7141832D01*
X3017888Y7132942D01*
X3000362Y7124052D01*
X2895206Y7313790D02*
G01*
X2886316Y7313790D01*
X2868790Y7322426D01*
X2860154Y7331316D01*
X2851264Y7348842D01*
X2851264Y7383894D01*
X2860154Y7401420D01*
X2868790Y7410310D01*
X2886316Y7418946D01*
X2903842Y7418946D01*
X2921368Y7410310D01*
X2947784Y7392784D01*
X3035668Y7304900D01*
X3035668Y7427836D01*
X2956674Y7485748D02*
G01*
X2956674Y7643736D01*
X2851264Y7701648D02*
G01*
X3035668Y7701648D01*
X2851264Y7701648D02*
G01*
X2851264Y7762862D01*
X2860154Y7789278D01*
X2877680Y7806804D01*
X2895206Y7815694D01*
X2921368Y7824330D01*
X2965310Y7824330D01*
X2991726Y7815694D01*
X3009252Y7806804D01*
X3026778Y7789278D01*
X3035668Y7762862D01*
X3035668Y7701648D01*
X2965310Y7882242D02*
G01*
X2965310Y7987652D01*
X2947784Y7987652D01*
X2930258Y7978762D01*
X2921368Y7970126D01*
X2912732Y7952600D01*
X2912732Y7926184D01*
X2921368Y7908658D01*
X2939148Y7891132D01*
X2965310Y7882242D01*
X2982836Y7882242D01*
X3009252Y7891132D01*
X3026778Y7908658D01*
X3035668Y7926184D01*
X3035668Y7952600D01*
X3026778Y7970126D01*
X3009252Y7987652D01*
X2912732Y8045564D02*
G01*
X3035668Y8098142D01*
X2912732Y8150720D02*
G01*
X3035668Y8098142D01*
X2851264Y8208632D02*
G01*
X3035668Y8208632D01*
X2912732Y8296516D02*
G01*
X3000362Y8208632D01*
X2965310Y8243684D02*
G01*
X3035668Y8305152D01*
X2851264Y8363064D02*
G01*
X2860154Y8371954D01*
X2851264Y8380590D01*
X2842628Y8371954D01*
X2851264Y8363064D01*
X2912732Y8371954D02*
G01*
X3035668Y8371954D01*
X2851264Y8464918D02*
G01*
X3000362Y8464918D01*
X3026778Y8473808D01*
X3035668Y8491334D01*
X3035668Y8508860D01*
X2912732Y8438502D02*
G01*
X2912732Y8499970D01*
X2851264Y8701900D02*
G01*
X3035668Y8772004D01*
X2851264Y8842108D02*
G01*
X3035668Y8772004D01*
X2886316Y8900020D02*
G01*
X2877680Y8917800D01*
X2851264Y8943962D01*
X3035668Y8943962D01*
X3534778Y9951859D02*
G01*
X3604882Y10136263D01*
X3534778Y9951859D02*
G01*
X3464420Y10136263D01*
X3578466Y10074795D02*
G01*
X3490836Y10074795D01*
X3406508Y10013327D02*
G01*
X3406508Y10136263D01*
X3406508Y10048379D02*
G01*
X3380346Y10021963D01*
X3362820Y10013327D01*
X3336404Y10013327D01*
X3318878Y10021963D01*
X3309988Y10048379D01*
X3309988Y10136263D01*
X3225914Y9951859D02*
G01*
X3225914Y10100957D01*
X3217024Y10127373D01*
X3199498Y10136263D01*
X3181972Y10136263D01*
X3252076Y10013327D02*
G01*
X3190608Y10013327D01*
X3124060Y10065905D02*
G01*
X3018650Y10065905D01*
X3018650Y10048379D01*
X3027540Y10030853D01*
X3036176Y10021963D01*
X3053956Y10013327D01*
X3080118Y10013327D01*
X3097644Y10021963D01*
X3115170Y10039743D01*
X3124060Y10065905D01*
X3124060Y10083431D01*
X3115170Y10109847D01*
X3097644Y10127373D01*
X3080118Y10136263D01*
X3053956Y10136263D01*
X3036176Y10127373D01*
X3018650Y10109847D01*
X2960738Y10013327D02*
G01*
X2960738Y10136263D01*
X2960738Y10048379D02*
G01*
X2934576Y10021963D01*
X2917050Y10013327D01*
X2890634Y10013327D01*
X2873108Y10021963D01*
X2864218Y10048379D01*
X2864218Y10136263D01*
X2806306Y10013327D02*
G01*
X2806306Y10136263D01*
X2806306Y10048379D02*
G01*
X2780144Y10021963D01*
X2762618Y10013327D01*
X2736202Y10013327D01*
X2718676Y10021963D01*
X2709786Y10048379D01*
X2709786Y10136263D01*
X2546718Y10013327D02*
G01*
X2546718Y10136263D01*
X2546718Y10039743D02*
G01*
X2564244Y10021963D01*
X2581770Y10013327D01*
X2608186Y10013327D01*
X2625712Y10021963D01*
X2643238Y10039743D01*
X2651874Y10065905D01*
X2651874Y10083431D01*
X2643238Y10109847D01*
X2625712Y10127373D01*
X2608186Y10136263D01*
X2581770Y10136263D01*
X2564244Y10127373D01*
X2546718Y10109847D01*
D11*
X6459580Y9115602D02*
G01*
X6537558Y9115602D01*
X6553052Y9120682D01*
X6563466Y9131096D01*
X6568546Y9146844D01*
X6568546Y9157258D01*
X6563466Y9172752D01*
X6553052Y9183166D01*
X6537558Y9188246D01*
X6459580Y9188246D01*
X6485488Y9227870D02*
G01*
X6480408Y9227870D01*
X6469994Y9232950D01*
X6464660Y9238284D01*
X6459580Y9248698D01*
X6459580Y9269272D01*
X6464660Y9279686D01*
X6469994Y9285020D01*
X6480408Y9290100D01*
X6490822Y9290100D01*
X6501236Y9285020D01*
X6516730Y9274606D01*
X6568546Y9222536D01*
X6568546Y9295434D01*
D10*
X7364074Y8191550D02*
G01*
X7558130Y8191550D01*
X7558130Y8191550D02*
G01*
X7558130Y8302294D01*
X7364074Y8418626D02*
G01*
X7373472Y8400338D01*
X7391760Y8381796D01*
X7410302Y8372652D01*
X7437988Y8363254D01*
X7484216Y8363254D01*
X7511902Y8372652D01*
X7530444Y8381796D01*
X7548986Y8400338D01*
X7558130Y8418626D01*
X7558130Y8455710D01*
X7548986Y8474252D01*
X7530444Y8492540D01*
X7511902Y8501938D01*
X7484216Y8511082D01*
X7437988Y8511082D01*
X7410302Y8501938D01*
X7391760Y8492540D01*
X7373472Y8474252D01*
X7364074Y8455710D01*
X7364074Y8418626D01*
X7364074Y8572042D02*
G01*
X7558130Y8572042D01*
X7364074Y8572042D02*
G01*
X7364074Y8655100D01*
X7373472Y8682786D01*
X7382616Y8692184D01*
X7401158Y8701328D01*
X7419446Y8701328D01*
X7437988Y8692184D01*
X7447386Y8682786D01*
X7456530Y8655100D01*
X7456530Y8572042D01*
X7456530Y8636812D02*
G01*
X7558130Y8701328D01*
X7364074Y8836202D02*
G01*
X7558130Y8762288D01*
X7364074Y8836202D02*
G01*
X7558130Y8910116D01*
X7493360Y8789974D02*
G01*
X7493360Y8882430D01*
X7364074Y9113316D02*
G01*
X7558130Y9113316D01*
X7364074Y9113316D02*
G01*
X7364074Y9196374D01*
X7373472Y9224060D01*
X7382616Y9233458D01*
X7401158Y9242602D01*
X7419446Y9242602D01*
X7437988Y9233458D01*
X7447386Y9224060D01*
X7456530Y9196374D01*
X7456530Y9113316D01*
X7456530Y9177832D02*
G01*
X7558130Y9242602D01*
X7428844Y9414306D02*
G01*
X7558130Y9414306D01*
X7456530Y9414306D02*
G01*
X7437988Y9396018D01*
X7428844Y9377476D01*
X7428844Y9349790D01*
X7437988Y9331248D01*
X7456530Y9312706D01*
X7484216Y9303562D01*
X7502758Y9303562D01*
X7530444Y9312706D01*
X7548986Y9331248D01*
X7558130Y9349790D01*
X7558130Y9377476D01*
X7548986Y9396018D01*
X7530444Y9414306D01*
X7475072Y9475266D02*
G01*
X7475072Y9641636D01*
X7364074Y9757968D02*
G01*
X7373472Y9730282D01*
X7401158Y9711740D01*
X7447386Y9702596D01*
X7475072Y9702596D01*
X7521046Y9711740D01*
X7548986Y9730282D01*
X7558130Y9757968D01*
X7558130Y9776510D01*
X7548986Y9804196D01*
X7521046Y9822738D01*
X7475072Y9831882D01*
X7447386Y9831882D01*
X7401158Y9822738D01*
X7373472Y9804196D01*
X7364074Y9776510D01*
X7364074Y9757968D01*
X7410302Y9901986D02*
G01*
X7401158Y9901986D01*
X7382616Y9911384D01*
X7373472Y9920528D01*
X7364074Y9939070D01*
X7364074Y9975900D01*
X7373472Y9994442D01*
X7382616Y10003586D01*
X7401158Y10012984D01*
X7419446Y10012984D01*
X7437988Y10003586D01*
X7465674Y9985298D01*
X7558130Y9892842D01*
X7558130Y10022128D01*
D11*
X5752084Y5918200D02*
G01*
X5830061Y5918200D01*
X5845556Y5923279D01*
X5855970Y5933694D01*
X5861050Y5949442D01*
X5861050Y5959855D01*
X5855970Y5975350D01*
X5845556Y5985763D01*
X5830061Y5990844D01*
X5752084Y5990844D01*
X5752084Y6035547D02*
G01*
X5752084Y6092697D01*
X5793740Y6061710D01*
X5793740Y6077204D01*
X5798820Y6087618D01*
X5803900Y6092697D01*
X5819647Y6098031D01*
X5830061Y6098031D01*
X5845556Y6092697D01*
X5855970Y6082284D01*
X5861050Y6066789D01*
X5861050Y6051295D01*
X5855970Y6035547D01*
X5850890Y6030468D01*
X5840475Y6025134D01*
D14*
X1649082Y5094084D02*
G01*
X1649082Y10294073D01*
X4439069Y10294073D01*
X4439069Y5094084D01*
X1649082Y5094084D01*
X6642105Y7715605D02*
G01*
X6642105Y10515600D01*
X8692113Y10515600D01*
X8692113Y7715605D01*
X6642105Y7715605D01*
X8712200Y4495800D02*
G01*
X8712200Y7345794D01*
X8712200Y4495800D02*
G01*
X5912205Y4495800D01*
X5912205Y4495800D02*
G01*
X5912205Y7345794D01*
X8712200Y7345794D02*
G01*
X5912205Y7345794D01*
G75*
G01
X8013700Y5994400D02*
G03X8013700Y5994400I-774700J0D01*
M02*
