G04 Layer: BottomSolderMaskLayer*
G04 EasyEDA v6.5.47, 2024-09-23 10:33:38*
G04 d3944284b6e04abc8746af3109f317fc,455023a0ac88494abd61f565c8365122,10*
G04 Gerber Generator version 0.2*
G04 Scale: 100 percent, Rotated: No, Reflected: No *
G04 Dimensions in millimeters *
G04 leading zeros omitted , absolute positions ,4 integer and 5 decimal *
%FSLAX45Y45*%
%MOMM*%

%AMMACRO1*4,1,8,-0.9211,-1.1007,-0.9508,-1.0707,-0.9508,1.071,-0.9211,1.1007,0.9209,1.1007,0.9508,1.071,0.9508,-1.0707,0.9209,-1.1007,-0.9211,-1.1007,0*%
%AMMACRO2*4,1,8,-0.9101,-1.0668,-0.9398,-1.0368,-0.9398,1.0371,-0.9101,1.0668,0.9098,1.0668,0.9398,1.0371,0.9398,-1.0368,0.9098,-1.0668,-0.9101,-1.0668,0*%
%ADD10C,2.0320*%
%ADD11MACRO1*%
%ADD12O,1.9015964X2.2015958*%
%ADD13C,2.1336*%
%ADD14MACRO2*%
%ADD15C,4.1016*%

%LPD*%
D10*
G01*
X4273092Y6107074D03*
G01*
X4273092Y6361074D03*
G01*
X4273092Y6615074D03*
G01*
X4273092Y6869074D03*
G01*
X4273092Y7123074D03*
G01*
X4273092Y7377074D03*
G01*
X4273092Y7631074D03*
G01*
X4273092Y7885074D03*
G01*
X4273092Y8139074D03*
G01*
X4273092Y8393074D03*
G01*
X4273092Y8647074D03*
G01*
X4273092Y8901074D03*
G01*
X4273092Y9155074D03*
G01*
X4273092Y9409074D03*
G01*
X4273092Y9663074D03*
G01*
X1796084Y9663074D03*
G01*
X1796084Y9409074D03*
G01*
X1796084Y9155074D03*
G01*
X1796084Y8901074D03*
G01*
X1796084Y8647074D03*
G01*
X1796084Y8393074D03*
G01*
X1796084Y8139074D03*
G01*
X1796084Y7885074D03*
G01*
X1796084Y7631074D03*
G01*
X1796084Y7377074D03*
G01*
X1796084Y7123074D03*
G01*
X1796084Y6869074D03*
G01*
X1796084Y6615074D03*
G01*
X1796084Y6361074D03*
G01*
X1796084Y6107074D03*
D11*
G01*
X7058494Y7855902D03*
D12*
G01*
X7308494Y7855915D03*
G01*
X7558506Y7855915D03*
D11*
G01*
X6808508Y7855902D03*
D12*
G01*
X7808493Y7855915D03*
G01*
X8058505Y7855915D03*
G01*
X8308492Y7855915D03*
G01*
X8558504Y7855915D03*
D11*
G01*
X6808508Y10355897D03*
D12*
G01*
X7058507Y10355910D03*
G01*
X7308494Y10355910D03*
G01*
X7558506Y10355910D03*
G01*
X7808493Y10355910D03*
G01*
X8058505Y10355910D03*
G01*
X8308492Y10355910D03*
D11*
G01*
X8558491Y10355897D03*
D13*
G01*
X8562086Y5503671D03*
G01*
X8562086Y5249671D03*
D14*
G01*
X8562213Y4995799D03*
D13*
G01*
X8562086Y5757671D03*
G01*
X8562086Y6011671D03*
G01*
X8562086Y6265671D03*
D14*
G01*
X6062218Y5503799D03*
D13*
G01*
X6062218Y5757671D03*
G01*
X6062218Y6011671D03*
G01*
X6062218Y6265671D03*
G01*
X6062218Y6519671D03*
G01*
X8562086Y6519671D03*
D15*
G01*
X1308100Y10325100D03*
G01*
X9067800Y10325100D03*
G01*
X9067800Y4508500D03*
G01*
X1320800Y4521200D03*
M02*
